<?xml version="1.0" encoding="utf-8"?>
<!-- Generator: Adobe Illustrator 12.0.0, SVG Export Plug-In . SVG Version: 6.00 Build 51448)  -->
<!DOCTYPE svg PUBLIC "-//W3C//DTD SVG 1.1//EN" "http://www.w3.org/Graphics/SVG/1.1/DTD/svg11.dtd" [
	<!ENTITY ns_svg "http://www.w3.org/2000/svg">
	<!ENTITY ns_xlink "http://www.w3.org/1999/xlink">
]>
<svg  version="1.1" id="LAYER_x5F_1" xmlns="&ns_svg;" xmlns:xlink="&ns_xlink;" width="314.851" height="389.992"
	 viewBox="0 0 314.851 389.992" overflow="visible" enable-background="new 0 0 314.851 389.992" xml:space="preserve">
<path fill="none" stroke="#000000" stroke-width="0.7087" stroke-linecap="round" stroke-linejoin="round" stroke-miterlimit="500" d="
	M222.097,380.889c24.5,4.5,44.666,9.333,66.666-4s35.334-38.667,17.334-50.667s-46-0.667-61.334,0c-15.332,0.667-22-4.667-22-12
	s26-13.999,32.668-24.666c6.666-10.667,24-44.667-8-60.667s-55.334-15.333-61.334-22.666c-6-7.334-26.666-13.334-36.666-7.334
	c-10,6-28.667,2-26-8s36.667-10.667,43.333-27.333c6.668-16.667,5.334-17.333-2-29.333c-7.332-12,11.334-14.667,15.334-22
	c4-7.334,8-29.334-36-34.667s-18.666-23.333-19.333-30.667c-0.667-7.333-71.333-21.666-68-28c3.333-6.333,35.86,0.579,42.667-2.333
	c10.883-4.658,10-11.333-8.667-15.333S5.52,7.601,1.431,20.889c-5.333,17.334,9.333,46.667,40,51.334
	c30.667,4.666,11.333,10,11.333,16.666c0,6.667,5.333,19.334,24.667,20c19.333,0.667,6.667,30-8,38s-32.667,18.001-43.333,17.334
	s-21.333,20-17.333,28s5.333,18.666,2,24.666s-8,28.667,4,31.334c12,2.666,26.666-2.001,29.333,2.666s-15.333,35.334-5.333,44.667
	s19.333,27.332,46.667,16.666s36-36.667,38-46s7.333-21.999,23.333-23.999c16-2,36.668,1.999,16,30.666
	c-20.666,28.667-11.334,43.333-4,48s-2.666,12.667-23.999,10.667c-21.333-2-80.667-26.666-83.333,4s14,52.667,41.333,54
	s47.25-14.001,65.333-15.334C176.181,372.889,197.597,376.389,222.097,380.889z"/>
</svg>
