<?xml version="1.0" encoding="utf-8"?>
<!-- Generator: Adobe Illustrator 12.0.0, SVG Export Plug-In . SVG Version: 6.00 Build 51448)  -->
<!DOCTYPE svg PUBLIC "-//W3C//DTD SVG 1.1//EN" "http://www.w3.org/Graphics/SVG/1.1/DTD/svg11.dtd" [
	<!ENTITY ns_svg "http://www.w3.org/2000/svg">
	<!ENTITY ns_xlink "http://www.w3.org/1999/xlink">
]>
<svg  version="1.1" id="Layer_1" xmlns="&ns_svg;" xmlns:xlink="&ns_xlink;" width="340.64" height="283.2"
	 viewBox="0 0 340.64 283.2" overflow="visible" enable-background="new 0 0 340.64 283.2" xml:space="preserve">
<path fill="none" stroke="#000000" stroke-width="0.7087" stroke-linecap="round" stroke-linejoin="round" stroke-miterlimit="500" d="
	M289.58,90.956c-9.084-0.417-21.667,3-29.667,2.333c-8-0.666-27.334-2.999-36.667,0.334s-18.333,1.666-20.667,4.666
	c-2.333,3,3.334,9.334,9.334,10c6,0.667,11.666-2.667,19.333,2.667c7.667,5.333,9.667,10.667,15.667,12.667s15,0,20,3
	s5.333,9.333,2.666,12c-2.666,2.666-0.666,7.333,3,8c3.667,0.666,15.667-0.333,21.667,1s15.666,1,15,7.666
	c-0.666,6.667-12.666,8.334-19.333,10c-6.667,1.667-17.667,4.667-27-2.333c-9.334-7-19.333-13-25-10.333
	c-5.667,2.666-11.001,8-14.667,8c-3.667,0-17-5.001-19.667-6.667c-2.666-1.667-11.999,0-12.666,5.667
	c-0.667,5.666,1.333,10.333,7.666,11c6.334,0.666,11.334,3.667,10.334,9s-17,18-10.334,23.666
	c6.667,5.667,19.001,1.001,22.334-1.666s11.333-6.001,15.666-2.667c4.334,3.333,7.667,15.333,14.334,15.333
	c6.666,0,25.667-6.666,30-4c4.333,2.667,5.333,10.334,5.333,17.334s-6.334,16.999-18,15.333c-11.667-1.667-36-9.333-50-5.667
	c-14,3.667-28.666,7.667-37.333,15.667s-28,34-47,29.333c-19-4.666-38.001-16.666-38.667-32c-0.667-15.333,8.334-22.666,16.667-27
	c8.333-4.333,12.667-9.333,15-14.666c2.333-5.334,7.333-10.334,10.666-10.334c3.334,0,14.667,2.667,18.667-0.666
	c4-3.334,10.666-13,11-21.334c0.333-8.333-0.798-30.025-14.5-37.5c-11-6-21-8.5-28.75-8.5s-14.75-4.75-19.25-14
	s-10.5-17.25-17.75-17.5s-16.25,4.75-17,11.25s-3.75,10.5-8.75,10.25s-8.5-6.75-6.75-16.75s6-16.25,6.25-21.75s-3-13.75-23.25-12.5
	s-25.25,2-31.25-7.25s-8-17.25-3.25-24.25s13.5-7.75,18.5-12.5s14.5-18.25,26-21.5s14.5-4.75,19.25-2s8.75,9.75,2.5,17.75
	s-1.25,15.5,7.25,12s27.75-18,37-19.5s15.5,1.25,21.25,5s14,8.5,25.75,3.75s20.25-6.5,31.75-8s13.5,4.25,21.5,4s14-6.5,23-6.75
	s17,0,17.5,9.25s6.25,6.25,11,8.75s5.5,7.25,6,15.5s7.25,16.75,23.75,16.25s36,4.75,40.5,12.25s9.5,20-3.75,20.75
	S298.664,91.372,289.58,90.956z"/>
</svg>
