<?xml version="1.0" encoding="utf-8"?>
<!-- Generator: Adobe Illustrator 12.0.0, SVG Export Plug-In . SVG Version: 6.00 Build 51448)  -->
<!DOCTYPE svg PUBLIC "-//W3C//DTD SVG 1.1//EN" "http://www.w3.org/Graphics/SVG/1.1/DTD/svg11.dtd" [
	<!ENTITY ns_svg "http://www.w3.org/2000/svg">
	<!ENTITY ns_xlink "http://www.w3.org/1999/xlink">
]>
<svg  version="1.1" id="Layer_1" xmlns="&ns_svg;" xmlns:xlink="&ns_xlink;" width="179.102" height="372.507"
	 viewBox="0 0 179.102 372.507" overflow="visible" enable-background="new 0 0 179.102 372.507" xml:space="preserve">
<g>
	
		<path fill="none" stroke="#000000" stroke-width="0.7087" stroke-linecap="round" stroke-linejoin="round" stroke-miterlimit="500" d="
		M138.258,120.047c-1.146,4.945-0.076,24.948,5.112,31.494c5.193,6.545,13.332,17.235,8.212,28.462
		c-5.122,11.225-13.827,34.325-24.559,32.311c-10.733-2.016-19.241-6.709-20.88-11.386c-1.637-4.677-2.279-12.553-3.396-18.457
		c-1.119-5.904-3.906-8.082-7.951-7.081c-4.047,1-7.519,11.113-3.813,18.386c3.706,7.274,6.155,20.713,4.309,26.989
		c-1.847,6.277-4.487,19.55,5.642,23.844c10.127,4.293,29.852,11.568,31.804,15.927c1.956,4.358,0.932,11.256-0.8,21.11
		c-1.735,9.855,2.513,8.805-1.392,18.012c-3.902,9.206-9.923,9.641-10.413,18.802c-0.488,9.16,0.918,16.41,2.879,22.671
		c1.961,6.263-0.315,19.961-7.545,26.127c-7.23,6.167-18.718,7.001-26.46-0.354s-12.774-17.906-10.17-31.736
		c2.604-13.831,12.259-29.56,12.503-34.617c0.241-5.056,0.324-9.094-6.581-12.02c-6.905-2.929-22.834-5.064-30.793-8.71
		s-21.449-11.536-16.535-22.487c4.914-10.95,14.761-11.121,20.396-14.162c5.634-3.043,5.053-8.72,3.517-15.345
		c-1.536-6.625-6.361-12.142-4.986-18.517s9.868-10.14,14-19.25c4.133-9.108,1.613-9.568-2.833-21.5
		c-4.445-11.932-1.93-13.079-1.5-20.5s2.333-24.375-7.042-28.75s-6.928,14.065-15.424,18.521c-8.495,4.455-28.282,6.294-34.213-4.91
		c-5.931-11.202-12.378-25.884-6.938-39.145c5.44-13.262,15.451-16.716,24.701-16.341s30.875-12.625,31.5-25.875
		s-18.449-12.295-24.75-17.5c-6.301-5.206-6.027-22.463,6.712-30.097c12.74-7.633,34.263-2.038,40.73,6.406
		c6.468,8.443,22.39,4.621,27.558,8.44c5.168,3.82-13,16.25-12,23.625s9.17,3.717,19.75,21.5c5.874,9.875,13.08,5.233,18.379,0.419
		c5.299-4.813,9.189-8.867,9.69-15.171c0.501-6.305,3.482-15.902,11.301-14.489c7.817,1.413,27.963,15.384,21.52,21.614
		c-6.441,6.229-11.19,9.104-13.47,13.84c-2.279,4.735-5.646,8.196,3.045,14.596c8.692,6.401,5.726,19.805,2.118,21.264
		c-3.604,1.459-19.263-7.079-25.238,1.249C137.978,115.584,139.405,115.103,138.258,120.047z"/>
	
		<path fill="none" stroke="#000000" stroke-width="0.7087" stroke-linecap="round" stroke-linejoin="round" stroke-miterlimit="500" d="
		M112.246,153.551c3.824-12.226,1.184-15.925-1.678-21.347c-2.861-5.423-6.035-11.384-11.885-12.642
		c-5.848-1.256-17.884,1.515-19.432,17.017c-1.547,15.499,3.004,29.104,12.112,28.758
		C100.471,164.989,108.419,165.778,112.246,153.551z"/>
	
		<path fill="none" stroke="#000000" stroke-width="0.7087" stroke-linecap="round" stroke-linejoin="round" stroke-miterlimit="500" d="
		M100.659,336c-3.524-3.563-11.66,1.031-11.9,6.723c-0.241,5.69,4.7,15.387,8.237,13.447c3.538-1.938,7.266-5.607,6.938-10.816
		C103.607,340.146,104.181,339.565,100.659,336z"/>
</g>
</svg>
