<?xml version="1.0" encoding="utf-8"?>
<!-- Generator: Adobe Illustrator 12.0.0, SVG Export Plug-In . SVG Version: 6.00 Build 51448)  -->
<!DOCTYPE svg PUBLIC "-//W3C//DTD SVG 1.1//EN" "http://www.w3.org/Graphics/SVG/1.1/DTD/svg11.dtd" [
	<!ENTITY ns_svg "http://www.w3.org/2000/svg">
	<!ENTITY ns_xlink "http://www.w3.org/1999/xlink">
]>
<svg  version="1.1" id="Layer_1" xmlns="&ns_svg;" xmlns:xlink="&ns_xlink;" width="362.587" height="612.848"
	 viewBox="0 0 362.587 612.848" overflow="visible" enable-background="new 0 0 362.587 612.848" xml:space="preserve">
<path fill="none" stroke="#000000" d="M191.462,203.713c0,0,13.243-6.092,24.482-4.108c11.238,1.984,20.266,4.193,22.464,10.135
	s-1.135,12.182-8.903,17.291c-7.768,5.109-10.31,11.608-11.767,14.569s-5.334,6.57-6.785,10.584
	c-1.45,4.015-5.082,12.999-10.527,18.725c-5.444,5.727-13.274,9.624-18.01,10.708c-4.736,1.083-18.773,4.718-17.84-1.982
	c0.933-6.7-0.763-12.329-3.246-15.225c-2.482-2.896-14.852-8.589-17.352-14.252c-2.5-5.664-0.977-12.696,2.987-15.277
	c3.962-2.582,15.985-8.962,19.512-13.927c3.526-4.963,8.018-10.388,12.237-11.956C182.934,207.431,191.462,203.713,191.462,203.713z
	"/>
<path fill="none" stroke="#000000" d="M305.05,359.119c-2.604,1.75-23.5,17-21.5,29s8,31,16.5,36.5s19,10.5,33.5,11.5
	s24,2.5,27.5,14s-2.5,51-8.5,63s-46.5,70.5-62.5,79s-49,32-70.5,13s-4.5-46.5,6.5-60s29.5-33.5,35-45s3-36-27-28.5s-102,55.5-127,8
	s18.5-72.5,27-79s45.5-26.5,53-35s25.334-32.666,10.334-35.833c-15-3.167-33.334,2-33.334,2s5,32.834-12.667,38.167
	s-45.333-5.001-64.667,2.666s-31.667,0.334-33-4.333s-7-12.333,4.333-20.333s21-15.667,22-25.667s-1-34-15-43.667
	s-31.667-32-27.667-49.333s34.667-31.667,53.333-34.667s45.667-14.666,52-24.333s-2.667-27.667-24.667-30.917
	s-75.333-14.083-88.667-19.75s-33.333-22.333-28-36S18.05,64.286,28.05,63.286s49.667,12.333,58,25s22.667,26.667,40.333,31
	s60.333,4,71.333-5s25.665-21.333,5.666-40.333c-20-19-24.667-36.333-19.333-47.333s18-26,18-26s39.333,19,59.333,21
	s60.334,8.833,73.834,26.167s17.499,48.5,16.166,78.667s-2.083,69.917-18.083,87.667s-17.25,21.75-28.75,30.75s-23.5,15-23.25,25.5
	s22,29.25,28.5,34.75s13.75,21.875,12.125,29s-7.125,16.125-10.25,19.625S307.655,357.369,305.05,359.119z"/>
</svg>
