<?xml version="1.0" encoding="utf-8"?>
<!-- Generator: Adobe Illustrator 12.0.0, SVG Export Plug-In . SVG Version: 6.00 Build 51448)  -->
<!DOCTYPE svg PUBLIC "-//W3C//DTD SVG 1.1//EN" "http://www.w3.org/Graphics/SVG/1.1/DTD/svg11.dtd" [
	<!ENTITY ns_svg "http://www.w3.org/2000/svg">
	<!ENTITY ns_xlink "http://www.w3.org/1999/xlink">
]>
<svg  version="1.1" id="Layer_1" xmlns="&ns_svg;" xmlns:xlink="&ns_xlink;" width="631.872" height="474.88"
	 viewBox="0 0 631.872 474.88" overflow="visible" enable-background="new 0 0 631.872 474.88" xml:space="preserve">
<path fill="none" stroke="#000000" d="M369.707,424.13c0,0-90.5-2-109-28.5s-11.125-29.75,3.625-35.25s40.625-14.25,44.875-25
	s2.5-37,0.5-44.75s-4.875-38.25-37.875-44.875s-77.292,0.875-93.792,4.042s-71.833-9.167-81.667-17.833s-39.834-26.5-54-29.667
	s-38.667-21-41.5-40.833s10.667-68.167,33-89.333s22.833-27,60.333-45.5s76.75-26,76.75-26s-3.5,18-26,34.5
	s-46.125,32.625-51.75,49.5s-8.125,35.25,0,41.75s29,8.75,51.625,2.75s41.875-9.5,54.875-7.75s34.75,16.25,48.75,48
	s33.584,45.417,45.917,45.917s53.5-26,67.167-29.333s58.667-13.083,55.917,22.667s-2,60.75,16,81.25s23.083,43.75,19.417,56.417
	s-9,32.667,8.333,32.667s37-15.667,54.333-20.667s56.333-5.333,83,8.667s57.667,33.333,1,37s-31.583,31.5-26.917,34.167
	s3.5,2.667,3.5,2.667s1.417,16-24.583,12.333s-52.067-3.61-47,17c0.625,2.542,0.875,4.208,0.875,4.208s-60.708-4.208-72.708-15.458
	s-15.5-23.5-32.25-29.25s-22.75-5.25-25.833-5.25S369.707,424.13,369.707,424.13z"/>
</svg>
