  0
SECTION
  2
HEADER
  9
$ACADVER
  1
AC1015
  9
$ACADMAINTVER
 70
     6
  9
$DWGCODEPAGE
  3
ANSI_932
  9
$INSBASE
 10
0.0
 20
0.0
 30
0.0
  9
$EXTMIN
 10
44.836884
 20
98.961401
 30
1.000000E+20
  9
$EXTMAX
 10
165.006982
 20
198.867965
 30
-1.000000E+20
  9
$LIMMIN
 10
44.836884
 20
98.961401
  9
$LIMMAX
 10
165.006982
 20
198.867965
  9
$ORTHOMODE
 70
     0
  9
$REGENMODE
 70
     1
  9
$FILLMODE
 70
     1
  9
$QTEXTMODE
 70
     0
  9
$MIRRTEXT
 70
     1
  9
$LTSCALE
 40
1.0
  9
$ATTMODE
 70
     1
  9
$TEXTSIZE
 40
0.2
  9
$TRACEWID
 40
0.05
  9
$TEXTSTYLE
  7
Standard
  9
$CLAYER
  8
0
  9
$CELTYPE
  6
Continuous
  9
$CECOLOR
 62
   256
  9
$CELTSCALE
 40
1.0
  9
$DISPSILH
 70
     0
  9
$DIMSCALE
 40
1.0
  9
$DIMASZ
 40
0.18
  9
$DIMEXO
 40
0.0625
  9
$DIMDLI
 40
0.38
  9
$DIMRND
 40
0.0
  9
$DIMDLE
 40
0.0
  9
$DIMEXE
 40
0.18
  9
$DIMTP
 40
0.0
  9
$DIMTM
 40
0.0
  9
$DIMTXT
 40
0.18
  9
$DIMCEN
 40
0.09
  9
$DIMTSZ
 40
0.0
  9
$DIMTOL
 70
     0
  9
$DIMLIM
 70
     0
  9
$DIMTIH
 70
     1
  9
$DIMTOH
 70
     1
  9
$DIMSE1
 70
     0
  9
$DIMSE2
 70
     0
  9
$DIMTAD
 70
     0
  9
$DIMZIN
 70
     0
  9
$DIMBLK
  1

  9
$DIMASO
 70
     1
  9
$DIMSHO
 70
     1
  9
$DIMPOST
  1

  9
$DIMAPOST
  1

  9
$DIMALT
 70
     0
  9
$DIMALTD
 70
     2
  9
$DIMALTF
 40
25.4
  9
$DIMLFAC
 40
1.0
  9
$DIMTOFL
 70
     0
  9
$DIMTVP
 40
0.0
  9
$DIMTIX
 70
     0
  9
$DIMSOXD
 70
     0
  9
$DIMSAH
 70
     0
  9
$DIMBLK1
  1

  9
$DIMBLK2
  1

  9
$DIMSTYLE
  2
Standard
  9
$DIMCLRD
 70
     0
  9
$DIMCLRE
 70
     0
  9
$DIMCLRT
 70
     0
  9
$DIMTFAC
 40
1.0
  9
$DIMGAP
 40
0.09
  9
$DIMJUST
 70
     0
  9
$DIMSD1
 70
     0
  9
$DIMSD2
 70
     0
  9
$DIMTOLJ
 70
     1
  9
$DIMTZIN
 70
     0
  9
$DIMALTZ
 70
     0
  9
$DIMALTTZ
 70
     0
  9
$DIMUPT
 70
     0
  9
$DIMDEC
 70
     4
  9
$DIMTDEC
 70
     4
  9
$DIMALTU
 70
     2
  9
$DIMALTTD
 70
     2
  9
$DIMTXSTY
  7
Standard
  9
$DIMAUNIT
 70
     0
  9
$DIMADEC
 70
     0
  9
$DIMALTRND
 40
0.0
  9
$DIMAZIN
 70
     0
  9
$DIMDSEP
 70
     0
  9
$DIMATFIT
 70
     3
  9
$DIMFRAC
 70
     0
  9
$DIMLDRBLK
  1

  9
$DIMLUNIT
 70
     2
  9
$DIMLWD
 70
     0
  9
$DIMLWE
 70
     0
  9
$DIMTMOVE
 70
     0
  9
$LUNITS
 70
     2
  9
$LUPREC
 70
     4
  9
$SKETCHINC
 40
0.1
  9
$FILLETRAD
 40
0.0
  9
$AUNITS
 70
     0
  9
$AUPREC
 70
     0
  9
$MENU
  1
acad
  9
$ELEVATION
 40
0.0
  9
$PELEVATION
 40
0.0
  9
$THICKNESS
 40
0.0
  9
$LIMCHECK
 70
     0
  9
$CHAMFERA
 40
0.0
  9
$CHAMFERB
 40
0.0
  9
$CHAMFERC
 40
0.0
  9
$CHAMFERD
 40
0.0
  9
$SKPOLY
 70
     0
  9
$TDCREATE
 40
0.000000000
  9
$TDUCREATE
 40
0.000000000
  9
$TDUPDATE
 40
0.000000000
  9
$TDUUPDATE
 40
0.000000000
  9
$TDINDWG
 40
0.0000000000
  9
$TDUSRTIMER
 40
0.0000000000
  9
$USRTIMER
 70
     1
  9
$ANGBASE
 50
0.0
  9
$ANGDIR
 70
     0
  9
$PDMODE
 70
     0
  9
$PDSIZE
 40
0.0
  9
$PLINEWID
 40
0.0
  9
$SPLFRAME
 70
     0
  9
$SPLINETYPE
 70
     6
  9
$SPLINESEGS
 70
     8
  9
$HANDSEED
  5
2A
  9
$SURFTAB1
 70
     6
  9
$SURFTAB2
 70
     6
  9
$SURFTYPE
 70
     6
  9
$SURFU
 70
     6
  9
$SURFV
 70
     6
  9
$UCSBASE
  2

  9
$UCSNAME
  2

  9
$UCSORG
 10
0.0
 20
0.0
 30
0.0
  9
$UCSXDIR
 10
1.0
 20
0.0
 30
0.0
  9
$UCSYDIR
 10
0.0
 20
1.0
 30
0.0
  9
$UCSORTHOREF
  2

  9
$UCSORTHOVIEW
 70
     0
  9
$UCSORGTOP
 10
0.0
 20
0.0
 30
0.0
  9
$UCSORGBOTTOM
 10
0.0
 20
0.0
 30
0.0
  9
$UCSORGLEFT
 10
0.0
 20
0.0
 30
0.0
  9
$UCSORGRIGHT
 10
0.0
 20
0.0
 30
0.0
  9
$UCSORGFRONT
 10
0.0
 20
0.0
 30
0.0
  9
$UCSORGBACK
 10
0.0
 20
0.0
 30
0.0
  9
$PUCSBASE
  2

  9
$PUCSNAME
  2

  9
$PUCSORG
 10
0.0
 20
0.0
 30
0.0
  9
$PUCSXDIR
 10
1.0
 20
0.0
 30
0.0
  9
$PUCSYDIR
 10
0.0
 20
1.0
 30
0.0
  9
$PUCSORTHOREF
  2

  9
$PUCSORTHOVIEW
 70
     0
  9
$PUCSORGTOP
 10
0.0
 20
0.0
 30
0.0
  9
$PUCSORGBOTTOM
 10
0.0
 20
0.0
 30
0.0
  9
$PUCSORGLEFT
 10
0.0
 20
0.0
 30
0.0
  9
$PUCSORGRIGHT
 10
0.0
 20
0.0
 30
0.0
  9
$PUCSORGFRONT
 10
0.0
 20
0.0
 30
0.0
  9
$PUCSORGBACK
 10
0.0
 20
0.0
 30
0.0
  9
$USERI1
 70
     0
  9
$USERI2
 70
     0
  9
$USERI3
 70
     0
  9
$USERI4
 70
     0
  9
$USERI5
 70
     0
  9
$USERR1
 40
0.0
  9
$USERR2
 40
0.0
  9
$USERR3
 40
0.0
  9
$USERR4
 40
0.0
  9
$USERR5
 40
0.0
  9
$WORLDVIEW
 70
     1
  9
$SHADEDGE
 70
     3
  9
$SHADEDIF
 70
    70
  9
$TILEMODE
 70
     1
  9
$MAXACTVP
 70
    16
  9
$PINSBASE
 10
0.0
 20
0.0
 30
0.0
  9
$PLIMCHECK
 70
     0
  9
$PEXTMIN
 10
1.000000E+20
 20
1.000000E+20
 30
1.000000E+20
  9
$PEXTMAX
 10
-1.000000E+20
 20
-1.000000E+20
 30
-1.000000E+20
  9
$PLIMMIN
 10
0.0
 20
0.0
  9
$PLIMMAX
 10
12.0
 20
9.0
  9
$UNITMODE
 70
     0
  9
$VISRETAIN
 70
     0
  9
$PLINEGEN
 70
     1
  9
$PSLTSCALE
 70
     0
  9
$TREEDEPTH
 70
  3020
  9
$CMLSTYLE
  2
Standard
  9
$CMLJUST
 70
     0
  9
$CMLSCALE
 40
1.0
  9
$PROXYGRAPHICS
 70
     0
  9
$MEASUREMENT
 70
     1
  9
$CELWEIGHT
370
     0
  9
$ENDCAPS
280
     0
  9
$JOINSTYLE
280
     0
  9
$LWDISPLAY
290
     0
  9
$INSUNITS
 70
     0
  9
$HYPERLINKBASE
  1

  9
$STYLESHEET
  1

  9
$XEDIT
290
     1
  9
$CEPSNTYPE
380
     0
  9
$PSTYLEMODE
290
     1
  9
$FINGERPRINTGUID
  2

  9
$VERSIONGUID
  2

  9
$EXTNAMES
290
     1
  9
$PSVPSCALE
 40
0.0
  0
ENDSEC
  0
SECTION
  2
CLASSES
  0
CLASS
  1
LWPOLYLINE
  2
AcDbPolyline
  3
AutoCAD 2000
 90
    32768
280
     0
281
     1
  0
CLASS
  1
IMAGE
  2
AcDbRasterImage
  3
ISM
 90
    32895
280
     0
281
     1
  0
CLASS
  1
OLE2FRAME
  2
AcDbOle2Frame
  3
AutoCAD 2000
 90
    32768
280
     0
281
     1
  0
CLASS
  1
HATCH
  2
AcDbHatch
  3
AutoCAD 2000
 90
    32768
280
     0
281
     1
  0
CLASS
  1
DICTIONARYVAR
  2
AcDbDictionaryVar
  3
AutoCAD 2000
 90
    32768
280
     0
281
     0
  0
CLASS
  1
RASTERVARIABLES
  2
AcDbRasterVariables
  3
ISM
 90
    32768
280
     0
281
     0
  0
CLASS
  1
IMAGEDEF
  2
AcDbRasterImageDef
  3
ISM
 90
    32768
280
     0
281
     0
  0
CLASS
  1
IMAGEDEF_REACTOR
  2
AcDbRasterImageDefReactor
  3
ISM
 90
    32769
280
     0
281
     0
  0
CLASS
  1
IDBUFFER
  2
AcDbIdBuffer
  3
AutoCAD 2000
 90
    32768
280
     0
281
     0
  0
CLASS
  1
SPATIAL_FILTER
  2
AcDbSpatialFilter
  3
AutoCAD 2000
 90
    32768
280
     0
281
     0
  0
CLASS
  1
XRECORD
  2
AcDbXrecord
  3
AutoCAD 2000
 90
    32768
280
     0
281
     0
  0
CLASS
  1
SORTENTSTABLE
  2
AcDbSortentsTable
  3
AutoCAD 2000
 90
    32768
280
     0
281
     0
  0
CLASS
  1
LAYER_INDEX
  2
AcDbLayerIndex
  3
AutoCAD 2000
 90
    32768
280
     0
281
     0
  0
CLASS
  1
SPATIAL_INDEX
  2
AcDbSpatialIndex
  3
AutoCAD 2000
 90
    32768
280
     0
281
     0
  0
CLASS
  1
OBJECT_PTR
  2
CAseDLPNTableRecord
  3
"ASE-LPNTableRecord"
 90
    32769
280
     0
281
     0
  0
CLASS
  1
LAYOUT
  2
AcDbLayout
  3
AutoCAD 2000
 90
        0
280
     0
281
     0
  0
CLASS
  1
PLOTSETTINGS
  2
AcDbPlotSettings
  3
AutoCAD 2000
 90
    32768
280
     0
281
     0
  0
CLASS
  1
ACDBDICTIONARYWDFLT
  2
AcDbDictionaryWithDefault
  3
AutoCAD 2000
 90
        0
280
     0
281
     0
  0
CLASS
  1
ACDBPLACEHOLDER
  2
AcDbPlaceHolder
  3
AutoCAD 2000
 90
        0
280
     0
281
     0
  0
CLASS
  1
VBA_PROJECT
  2
AcDbVbaProject
  3
acadvba
 90
    32768
280
     0
281
     0
  0
CLASS
  1
WIPEOUT
  2
AcDbWipeout
  3
WipeOut|AutoCAD Express Tool|expresstools@autodesk.com
 90
    32895
280
     0
281
     1
  0
CLASS
  1
WIPEOUTVARIABLES
  2
AcDbWipeoutVariables
  3
WipeOut|AutoCAD Express Tool|expresstools@autodesk.com
 90
        0
280
     0
281
     0
  0
CLASS
  1
RTEXT
  2
RText
  3
RText|AutoCAD Express Tool|expresstools@autodesk.com
 90
    32768
280
     0
281
     1
  0
CLASS
  1
ARCALIGNEDTEXT
  2
AcDbArcAlignedText
  3
ATEXT|AutoCAD Express Tool|expresstools@autodesk.com
 90
    32768
280
     0
281
     1
  0
ENDSEC
  0
SECTION
  2
TABLES
  0
TABLE
  2
VPORT
  5
7
100
AcDbSymbolTable
 70
     1
  0
VPORT
  5
15
100
AcDbSymbolTableRecord
100
AcDbViewportTableRecord
  2
*ACTIVE
 70
     0
 10
0.0
 20
0.0
 11
1.0
 21
1.0
 12
6.591288
 22
4.579184
 13
0.0
 23
0.0
 14
1.0
 24
1.0
 15
0.0
 25
0.0
 16
0.0
 26
0.0
 36
1.0
 17
0.0
 27
0.0
 37
0.0
 40
9.158369
 41
0.688564
 42
50.0
 43
0.0
 44
0.0
 50
0.0
 51
0.0
 71
     0
 72
   100
 73
     1
 74
     1
 75
     0
 76
     0
 77
     0
 78
     0
281
     0
 65
     0
110
0.0
120
0.0
130
0.0
111
1.0
121
0.0
131
0.0
112
0.0
122
1.0
132
0.0
345
0
346
0
 79
     0
146
0.0
  0
ENDTAB
  0
TABLE
  2
LTYPE
  5
4
100
AcDbSymbolTable
 70
     3
  0
LTYPE
  5
11
100
AcDbSymbolTableRecord
100
AcDbLinetypeTableRecord
  2
ByBlock
 70
    64
  3

 72
    65
 73
     0
 40
0.0
  0
LTYPE
  5
12
100
AcDbSymbolTableRecord
100
AcDbLinetypeTableRecord
  2
ByLayer
 70
    64
  3

 72
    65
 73
     0
 40
0.0
  0
LTYPE
  5
13
100
AcDbSymbolTableRecord
100
AcDbLinetypeTableRecord
  2
Continuous
 70
    64
  3
Solid line
 72
    65
 73
     0
 40
0.0
  0
ENDTAB
  0
TABLE
  2
LAYER
  5
2
100
AcDbSymbolTable
 70
     2
  0
LAYER
  5
14
100
AcDbSymbolTableRecord
100
AcDbLayerTableRecord
  2
0
 70
     0
 62
     7
  6
Continuous
290
     1
370
    -3
390
1D
  0
LAYER
  5
28
100
AcDbSymbolTableRecord
100
AcDbLayerTableRecord
  2
LAYER_1
 70
     0
 62
   160
  6
Continuous
290
     1
370
    -3
390
1D
  0
ENDTAB
  0
TABLE
  2
STYLE
  5
3
100
AcDbSymbolTable
 70
     5
  0
STYLE
  5
17
100
AcDbSymbolTableRecord
100
AcDbTextStyleTableRecord
  2
Standard
 70
     0
 40
0.0
 41
1.0
 50
0.0
 71
     0
 42
0.0
  3
txt
  4

  0
STYLE
  5
24
100
AcDbSymbolTableRecord
100
AcDbTextStyleTableRecord
  2
STD
 70
     0
 40
0.0
 41
1.0
 50
0.0
 71
     0
 42
0.0
  3
txt
  4

  0
STYLE
  5
25
100
AcDbSymbolTableRecord
100
AcDbTextStyleTableRecord
  2
TATESTD
 70
     4
 40
0.0
 41
1.0
 50
0.0
 71
     0
 42
0.0
  3
txt
  4

  0
STYLE
  5
26
100
AcDbSymbolTableRecord
100
AcDbTextStyleTableRecord
  2
KANJISTD
 70
     0
 40
0.0
 41
1.0
 50
0.0
 71
     0
 42
0.0
  3
txt
  4
extfont
  0
STYLE
  5
27
100
AcDbSymbolTableRecord
100
AcDbTextStyleTableRecord
  2
KANJITATE
 70
     4
 40
0.0
 41
1.0
 50
0.0
 71
     0
 42
0.0
  3
txt
  4
extfont
  0
ENDTAB
  0
TABLE
  2
VIEW
  5
5
100
AcDbSymbolTable
 70
     0
  0
ENDTAB
  0
TABLE
  2
UCS
  5
6
100
AcDbSymbolTable
 70
     0
  0
ENDTAB
  0
TABLE
  2
APPID
  5
8
100
AcDbSymbolTable
 70
     1
  0
APPID
  5
16
100
AcDbSymbolTableRecord
100
AcDbRegAppTableRecord
  2
ACAD
 70
     0
  0
ENDTAB
  0
TABLE
  2
DIMSTYLE
  5
9
100
AcDbSymbolTable
 70
     1
100
AcDbDimStyleTable
 71
     0
  0
DIMSTYLE
105
18
100
AcDbSymbolTableRecord
100
AcDbDimStyleTableRecord
  2
Standard
 70
     0
  3

  4

 40
1.0
 41
0.18
 42
0.0625
 43
0.38
 44
0.18
 45
0.0
 46
0.0
 47
0.0
 48
0.0
 71
     0
 72
     0
 73
     1
 74
     1
 75
     0
 76
     0
 77
     0
 78
     0
 79
     0
140
0.18
141
0.09
142
0.0
143
25.4
144
1.0
145
0.0
146
1.0
147
0.09
148
0.0
170
     0
171
     2
172
     0
173
     0
174
     0
175
     0
176
     0
177
     0
178
     0
179
     0
271
     4
272
     4
273
     2
274
     2
275
     0
276
     0
277
     2
278
    46
279
     0
280
     0
281
     0
282
     0
283
     1
284
     0
285
     0
286
     0
288
     0
340
17
341
0
342
0
343
0
344
0
371
    -2
372
    -2
  0
ENDTAB
  0
TABLE
  2
BLOCK_RECORD
  5
1
100
AcDbSymbolTable
 70
     0
  0
BLOCK_RECORD
  5
A
100
AcDbSymbolTableRecord
100
AcDbBlockTableRecord
  2
*MODEL_SPACE
340
20
  0
BLOCK_RECORD
  5
B
100
AcDbSymbolTableRecord
100
AcDbBlockTableRecord
  2
*PAPER_SPACE
340
21
  0
ENDTAB
  0
ENDSEC
  0
SECTION
  2
BLOCKS
  0
BLOCK
  5
D
100
AcDbEntity
  8
0
100
AcDbBlockBegin
  2
*MODEL_SPACE
 70
     0
 10
0.0
 20
0.0
 30
0.0
  3
*MODEL_SPACE
  1

  0
ENDBLK
  5
E
100
AcDbEntity
  8
0
100
AcDbBlockEnd
  0
BLOCK
  5
F
100
AcDbEntity
 67
     1
  8
0
100
AcDbBlockBegin
  2
*PAPER_SPACE
 70
     0
 10
0.0
 20
0.0
 30
0.0
  3
*PAPER_SPACE
  1

  0
ENDBLK
  5
10
100
AcDbEntity
 67
     1
  8
0
100
AcDbBlockEnd
  0
ENDSEC
  0
SECTION
  2
ENTITIES
  0
SPLINE
  5
29
100
AcDbEntity
  8
LAYER_1
 62
     7
100
AcDbSpline
210
0.0
220
0.0
230
1.0
 70
     8
 71
     3
 72
   197
 73
   193
 74
     0
 42
0.00000001
 43
0.00000001
 40
0.0
 40
0.0
 40
0.0
 40
0.0
 40
1.0
 40
1.0
 40
1.0
 40
2.0
 40
2.0
 40
2.0
 40
3.0
 40
3.0
 40
3.0
 40
4.0
 40
4.0
 40
4.0
 40
5.0
 40
5.0
 40
5.0
 40
6.0
 40
6.0
 40
6.0
 40
7.0
 40
7.0
 40
7.0
 40
8.0
 40
8.0
 40
8.0
 40
9.0
 40
9.0
 40
9.0
 40
10.0
 40
10.0
 40
10.0
 40
11.0
 40
11.0
 40
11.0
 40
12.0
 40
12.0
 40
12.0
 40
13.0
 40
13.0
 40
13.0
 40
14.0
 40
14.0
 40
14.0
 40
15.0
 40
15.0
 40
15.0
 40
16.0
 40
16.0
 40
16.0
 40
17.0
 40
17.0
 40
17.0
 40
18.0
 40
18.0
 40
18.0
 40
19.0
 40
19.0
 40
19.0
 40
20.0
 40
20.0
 40
20.0
 40
21.0
 40
21.0
 40
21.0
 40
22.0
 40
22.0
 40
22.0
 40
23.0
 40
23.0
 40
23.0
 40
24.0
 40
24.0
 40
24.0
 40
25.0
 40
25.0
 40
25.0
 40
26.0
 40
26.0
 40
26.0
 40
27.0
 40
27.0
 40
27.0
 40
28.0
 40
28.0
 40
28.0
 40
29.0
 40
29.0
 40
29.0
 40
30.0
 40
30.0
 40
30.0
 40
31.0
 40
31.0
 40
31.0
 40
32.0
 40
32.0
 40
32.0
 40
33.0
 40
33.0
 40
33.0
 40
34.0
 40
34.0
 40
34.0
 40
35.0
 40
35.0
 40
35.0
 40
36.0
 40
36.0
 40
36.0
 40
37.0
 40
37.0
 40
37.0
 40
38.0
 40
38.0
 40
38.0
 40
39.0
 40
39.0
 40
39.0
 40
40.0
 40
40.0
 40
40.0
 40
41.0
 40
41.0
 40
41.0
 40
42.0
 40
42.0
 40
42.0
 40
43.0
 40
43.0
 40
43.0
 40
44.0
 40
44.0
 40
44.0
 40
45.0
 40
45.0
 40
45.0
 40
46.0
 40
46.0
 40
46.0
 40
47.0
 40
47.0
 40
47.0
 40
48.0
 40
48.0
 40
48.0
 40
49.0
 40
49.0
 40
49.0
 40
50.0
 40
50.0
 40
50.0
 40
51.0
 40
51.0
 40
51.0
 40
52.0
 40
52.0
 40
52.0
 40
53.0
 40
53.0
 40
53.0
 40
54.0
 40
54.0
 40
54.0
 40
55.0
 40
55.0
 40
55.0
 40
56.0
 40
56.0
 40
56.0
 40
57.0
 40
57.0
 40
57.0
 40
58.0
 40
58.0
 40
58.0
 40
59.0
 40
59.0
 40
59.0
 40
60.0
 40
60.0
 40
60.0
 40
61.0
 40
61.0
 40
61.0
 40
62.0
 40
62.0
 40
62.0
 40
63.0
 40
63.0
 40
63.0
 40
64.0
 40
64.0
 40
64.0
 40
64.0
 10
146.99430067274304
 20
166.7808620876736
 30
0.0
 10
143.7896728515625
 20
166.92796766493055
 30
0.0
 10
139.35066731770831
 20
165.72252875434026
 30
0.0
 10
136.52844509548609
 20
165.95782877604165
 30
0.0
 10
133.70622287326387
 20
166.19278428819442
 30
0.0
 10
126.88562282986111
 20
167.01581759982636
 30
0.0
 10
123.59314507378471
 20
165.84000651041666
 30
0.0
 10
120.30066731770832
 20
164.66419542100692
 30
0.0
 10
117.12566731770832
 20
165.2522732204861
 30
0.0
 10
116.30228949652776
 20
164.19393988715277
 30
0.0
 10
115.47925618489582
 20
163.13560655381943
 30
0.0
 10
117.47844509548609
 20
160.90111762152776
 30
0.0
 10
119.59511176215277
 20
160.66616210937499
 30
0.0
 10
121.71177842881943
 20
160.4308620876736
 30
0.0
 10
123.71062282986109
 20
161.60701768663193
 30
0.0
 10
126.41536729600693
 20
159.72530653211805
 30
0.0
 10
129.12011176215276
 20
157.84393988715277
 30
0.0
 10
129.82566731770831
 20
155.96222873263886
 30
0.0
 10
131.94233398437498
 20
155.25667317708331
 30
0.0
 10
134.05900065104166
 20
154.55111762152777
 30
0.0
 10
137.23400065104164
 20
155.25667317708331
 30
0.0
 10
138.99788953993055
 20
154.19833984374998
 30
0.0
 10
140.76177842881944
 20
153.14000651041664
 30
0.0
 10
140.87925618489581
 20
150.9058620876736
 30
0.0
 10
139.93840060763887
 20
149.96500651041666
 30
0.0
 10
138.99788953993055
 20
149.02449544270831
 30
0.0
 10
139.7034450954861
 20
147.37808430989583
 30
0.0
 10
140.99673394097221
 20
147.14278428819443
 30
0.0
 10
142.29036729600693
 20
146.90782877604164
 30
0.0
 10
146.52370062934025
 20
147.26026204427083
 30
0.0
 10
148.64036729600693
 20
146.79000651041665
 30
0.0
 10
150.7570339626736
 20
146.31975097656249
 30
0.0
 10
154.16698947482638
 20
146.43722873263889
 30
0.0
 10
153.93203396267359
 20
144.08560655381942
 30
0.0
 10
153.69707845052082
 20
141.73363986545138
 30
0.0
 10
149.4637451171875
 20
141.1455620659722
 30
0.0
 10
147.11177842881943
 20
140.55782877604165
 30
0.0
 10
144.75981174045137
 20
139.96975097656249
 30
0.0
 10
140.87925618489581
 20
138.91141764322916
 30
0.0
 10
137.58677842881943
 20
141.38086208767359
 30
0.0
 10
134.29395616319442
 20
143.85030653211805
 30
0.0
 10
130.76652289496528
 20
145.9669731987847
 30
0.0
 10
128.767333984375
 20
145.02611762152776
 30
0.0
 10
126.76814507378471
 20
144.08560655381942
 30
0.0
 10
124.88643391927083
 20
142.20389539930554
 30
0.0
 10
123.59314507378471
 20
142.20389539930554
 30
0.0
 10
122.29951171874998
 20
142.20389539930554
 30
0.0
 10
117.59592285156249
 20
143.96812879774305
 30
0.0
 10
116.65506727430555
 20
144.5558620876736
 30
0.0
 10
115.71455620659721
 20
145.14393988715275
 30
0.0
 10
112.42207845052083
 20
144.5558620876736
 30
0.0
 10
112.18677842881944
 20
142.55667317708333
 30
0.0
 10
111.95147840711805
 20
140.55782877604165
 30
0.0
 10
112.65703396267359
 20
138.91141764322916
 30
0.0
 10
114.89117838541665
 20
138.67611762152777
 30
0.0
 10
117.12566731770832
 20
138.441162109375
 30
0.0
 10
118.88955620659721
 20
137.38248426649304
 30
0.0
 10
118.53677842881943
 20
135.50111762152775
 30
0.0
 10
118.18400065104166
 20
133.6197509765625
 30
0.0
 10
112.53955620659721
 20
129.15111762152776
 30
0.0
 10
114.89117838541665
 20
127.15227322048609
 30
0.0
 10
117.24314507378472
 20
125.15308430989582
 30
0.0
 10
121.59430067274305
 20
126.79915093315971
 30
0.0
 10
122.77011176215277
 20
127.74000651041665
 30
0.0
 10
123.94592285156249
 20
128.6808620876736
 30
0.0
 10
126.76814507378471
 20
129.85701768663193
 30
0.0
 10
128.29673394097222
 20
128.6808620876736
 30
0.0
 10
129.82566731770831
 20
127.50505099826388
 30
0.0
 10
131.00147840711804
 20
123.27171766493055
 30
0.0
 10
133.35344509548611
 20
123.27171766493055
 30
0.0
 10
135.70506727430555
 20
123.27171766493055
 30
0.0
 10
142.40818956163193
 20
125.62333984374999
 30
0.0
 10
143.93677842881942
 20
124.68282877604166
 30
0.0
 10
145.46536729600692
 20
123.74197319878471
 30
0.0
 10
145.81814507378471
 20
121.03722873263888
 30
0.0
 10
145.81814507378471
 20
118.56778428819443
 30
0.0
 10
145.81814507378471
 20
116.09833984374998
 30
0.0
 10
143.58365614149304
 20
112.57090657552082
 30
0.0
 10
139.46814507378471
 20
113.15863986545138
 30
0.0
 10
135.35228949652776
 20
113.74671766493054
 30
0.0
 10
126.76814507378471
 20
116.45111762152777
 30
0.0
 10
121.82925618489583
 20
115.15782877604165
 30
0.0
 10
116.89036729600693
 20
113.86419542100694
 30
0.0
 10
111.71652289496527
 20
112.45308430989583
 30
0.0
 10
108.65900065104165
 20
109.63086208767361
 30
0.0
 10
105.60147840711805
 20
106.80863986545138
 30
0.0
 10
98.781222873263886
 20
97.636417643229152
 30
0.0
 10
92.078445095486103
 20
99.282828776041654
 30
0.0
 10
85.37566731770832
 20
100.92889539930555
 30
0.0
 10
78.67254503038194
 20
105.16222873263888
 30
0.0
 10
78.43758951822916
 20
110.57171766493055
 30
0.0
 10
78.202289496527769
 20
115.9808620876736
 30
0.0
 10
81.377634006076377
 20
118.56778428819443
 30
0.0
 10
84.317333984374997
 20
120.09671766493055
 30
0.0
 10
87.257033962673603
 20
121.62530653211805
 30
0.0
 10
88.785967339409709
 20
123.38919542100693
 30
0.0
 10
89.609000651041654
 20
125.27056206597221
 30
0.0
 10
90.4320339626736
 20
127.15227322048609
 30
0.0
 10
92.195922851562486
 20
128.91616210937499
 30
0.0
 10
93.37173394097222
 20
128.91616210937499
 30
0.0
 10
94.547889539930551
 20
128.91616210937499
 30
0.0
 10
98.545922851562494
 20
127.97530653211804
 30
0.0
 10
99.957033962673606
 20
129.15111762152776
 30
0.0
 10
101.36814507378472
 20
130.32727322048609
 30
0.0
 10
103.71976725260416
 20
133.73722873263887
 30
0.0
 10
103.83758951822915
 20
136.67727322048609
 30
0.0
 10
103.95506727430555
 20
139.61697319878471
 30
0.0
 10
103.55612521701389
 20
147.26956380208333
 30
0.0
 10
98.722311740451374
 20
149.90643988715277
 30
0.0
 10
94.841756184895829
 20
152.02310655381942
 30
0.0
 10
91.313978407118043
 20
152.90505099826387
 30
0.0
 10
88.579950629340274
 20
152.90505099826387
 30
0.0
 10
85.845922851562491
 20
152.90505099826387
 30
0.0
 10
83.376478407118043
 20
154.58074544270832
 30
0.0
 10
81.788978407118051
 20
157.84393988715277
 30
0.0
 10
80.201478407118046
 20
161.10713433159719
 30
0.0
 10
78.084811740451386
 20
163.92935655381942
 30
0.0
 10
75.527172851562497
 20
164.01755099826389
 30
0.0
 10
72.969533962673609
 20
164.10574544270833
 30
0.0
 10
69.794533962673611
 20
162.34185655381944
 30
0.0
 10
69.529950629340277
 20
160.04880099826389
 30
0.0
 10
69.265367296006943
 20
157.75574544270833
 30
0.0
 10
68.207033962673606
 20
156.34463433159721
 30
0.0
 10
66.44314507378472
 20
156.43282877604165
 30
0.0
 10
64.679256184895834
 20
156.52102322048609
 30
0.0
 10
63.444533962673603
 20
158.81407877604164
 30
0.0
 10
64.061895073784711
 20
162.34185655381944
 30
0.0
 10
64.679256184895834
 20
165.86963433159721
 30
0.0
 10
66.178561740451386
 20
168.07449544270833
 30
0.0
 10
66.266756184895826
 20
170.01477322048609
 30
0.0
 10
66.354950629340266
 20
171.95505099826389
 30
0.0
 10
65.208422851562489
 20
174.86546766493055
 30
0.0
 10
58.064672851562491
 20
174.42449544270832
 30
0.0
 10
50.920922851562494
 20
173.98352322048609
 30
0.0
 10
49.157033962673609
 20
173.71893988715277
 30
0.0
 10
47.040367296006941
 20
176.98213433159719
 30
0.0
 10
44.923700629340274
 20
180.24532877604165
 30
0.0
 10
44.218145073784719
 20
183.06755099826387
 30
0.0
 10
45.893839518229164
 20
185.5369954427083
 30
0.0
 10
47.56953396267361
 20
188.00643988715277
 30
0.0
 10
50.65633951822916
 20
188.27102322048609
 30
0.0
 10
52.420228407118053
 20
189.94671766493053
 30
0.0
 10
54.184117296006939
 20
191.62241210937498
 30
0.0
 10
57.53550618489583
 20
196.38491210937499
 30
0.0
 10
61.59245062934027
 20
197.53143988715277
 30
0.0
 10
65.649395073784717
 20
198.67796766493055
 30
0.0
 10
66.707728407118054
 20
199.20713433159722
 30
0.0
 10
68.3834228515625
 20
198.23699544270832
 30
0.0
 10
70.059117296006931
 20
197.26685655381942
 30
0.0
 10
71.470228407118043
 20
194.79741210937499
 30
0.0
 10
69.265367296006943
 20
191.97518988715277
 30
0.0
 10
67.060506184895829
 20
189.15296766493054
 30
0.0
 10
68.824395073784714
 20
186.5071343315972
 30
0.0
 10
71.823006184895831
 20
187.74185655381942
 30
0.0
 10
74.821617296006934
 20
188.97657877604166
 30
0.0
 10
81.612589518229157
 20
194.09185655381944
 30
0.0
 10
84.875783962673609
 20
194.62102322048608
 30
0.0
 10
88.138978407118046
 20
195.15018988715275
 30
0.0
 10
90.34383951822916
 20
194.18005099826388
 30
0.0
 10
92.37231174045138
 20
192.85713433159719
 30
0.0
 10
94.4007839626736
 20
191.53421766493054
 30
0.0
 10
97.311200629340263
 20
189.85852322048609
 30
0.0
 10
101.45633951822916
 20
191.53421766493054
 30
0.0
 10
105.60147840711805
 20
193.20991210937498
 30
0.0
 10
108.60008951822915
 20
193.82727322048609
 30
0.0
 10
112.65703396267359
 20
194.35643988715276
 30
0.0
 10
116.71397840711805
 20
194.88560655381943
 30
0.0
 10
117.4195339626736
 20
192.85713433159719
 30
0.0
 10
120.24175618489582
 20
192.94532877604166
 30
0.0
 10
123.06397840711804
 20
193.0335232204861
 30
0.0
 10
125.18064507378472
 20
195.23838433159722
 30
0.0
 10
128.3556450737847
 20
195.32657877604166
 30
0.0
 10
131.53064507378471
 20
195.4147732204861
 30
0.0
 10
134.35286729600693
 20
195.32657877604166
 30
0.0
 10
134.52925618489581
 20
192.06338433159721
 30
0.0
 10
134.70564507378472
 20
188.80018988715275
 30
0.0
 10
136.73411729600693
 20
189.85852322048609
 30
0.0
 10
138.40981174045137
 20
188.97657877604166
 30
0.0
 10
140.08550618489582
 20
188.09463433159721
 30
0.0
 10
140.35008951822914
 20
186.41893988715276
 30
0.0
 10
140.52647840711805
 20
183.5085232204861
 30
0.0
 10
140.70286729600693
 20
180.59810655381943
 30
0.0
 10
143.08411729600692
 20
177.5994954427083
 30
0.0
 10
148.90495062934028
 20
177.77588433159721
 30
0.0
 10
154.7257839626736
 20
177.95227322048609
 30
0.0
 10
161.60495062934027
 20
176.10018988715277
 30
0.0
 10
163.19245062934027
 20
173.45435655381942
 30
0.0
 10
164.77995062934025
 20
170.80852322048611
 30
0.0
 10
166.54383951822916
 20
166.39880099826388
 30
0.0
 10
161.86953396267359
 20
166.13421766493053
 30
0.0
 10
157.19522840711804
 20
165.86963433159721
 30
0.0
 10
150.1989284939236
 20
166.63410101996527
 30
0.0
 10
146.99430067274304
 20
166.7808620876736
 30
0.0
  0
ENDSEC
  0
SECTION
  2
OBJECTS
  0
DICTIONARY
  5
19
100
AcDbDictionary
280
     0
281
     1
  3
ACAD_GROUP
350
1A
  3
ACAD_MLINESTYLE
350
1B
  3
ACAD_LAYOUT
350
1E
  3
ACAD_PLOTSETTINGS
350
22
  3
ACAD_PLOTSTYLENAME
350
1F
  3
ACAD_WIPEOUT_VARS
350
23
  0
DICTIONARY
  5
1A
102
{ACAD_REACTORS
330
19
102
}
100
AcDbDictionary
280
     0
281
     1
  0
DICTIONARY
  5
1B
102
{ACAD_REACTORS
330
19
102
}
100
AcDbDictionary
280
     0
281
     1
  3
Standard
350
1C
  0
MLINESTYLE
  5
1C
102
{ACAD_REACTORS
330
1B
102
}
100
AcDbMlineStyle
  2
Standard
 70
     0
  3

 62
     0
 51
90.0
 52
90.0
 71
     2
 49
0.5
 62
   256
  6
ByLayer
 49
-0.5
 62
   256
  6
ByLayer
  0
ACDBDICTIONARYWDFLT
  5
1F
102
{ACAD_REACTORS
330
19
102
}
100
AcDbDictionary
281
     1
  3
Normal
350
1D
100
AcDbDictionaryWithDefault
340
1D
  0
ACDBPLACEHOLDER
  5
1D
102
{ACAD_REACTORS
330
1F
102
}
  0
LAYOUT
  5
20
102
{ACAD_REACTORS
330
1E
102
}
100
AcDbPlotSettings
  1

  2

  4

  6

 40
0.0
 41
0.0
 42
0.0
 43
0.0
 44
0.0
 45
0.0
 46
0.0
 47
0.0
 48
0.0
 49
0.0
140
0.0
141
0.0
142
1.0
143
1.0
 70
  1024
 72
     0
 73
     0
 74
     0
  7

 75
     0
147
1.0
148
0.0
149
0.0
100
AcDbLayout
  1
Model
 70
     0
 71
     0
 10
0.0
 20
0.0
 11
0.0
 21
0.0
 12
0.0
 22
0.0
 32
0.0
 14
0.0
 24
0.0
 34
0.0
 15
0.0
 25
0.0
 35
0.0
146
0.0
 13
0.0
 23
0.0
 33
0.0
 16
0.0
 26
0.0
 36
0.0
 17
0.0
 27
0.0
 37
0.0
 76
     0
330
A
331
0
345
0
346
0
  0
LAYOUT
  5
21
102
{ACAD_REACTORS
330
1E
102
}
100
AcDbPlotSettings
  1

  2

  4

  6

 40
0.0
 41
0.0
 42
0.0
 43
0.0
 44
0.0
 45
0.0
 46
0.0
 47
0.0
 48
0.0
 49
0.0
140
0.0
141
0.0
142
1.0
143
1.0
 70
     0
 72
     0
 73
     0
 74
     0
  7

 75
     0
147
1.0
148
0.0
149
0.0
100
AcDbLayout
  1
Layout1
 70
     0
 71
     0
 10
0.0
 20
0.0
 11
0.0
 21
0.0
 12
0.0
 22
0.0
 32
0.0
 14
0.0
 24
0.0
 34
0.0
 15
0.0
 25
0.0
 35
0.0
146
0.0
 13
0.0
 23
0.0
 33
0.0
 16
0.0
 26
0.0
 36
0.0
 17
0.0
 27
0.0
 37
0.0
 76
     0
330
B
331
0
345
0
346
0
  0
DICTIONARY
  5
1E
102
{ACAD_REACTORS
330
19
102
}
100
AcDbDictionary
280
     0
281
     1
  3
Layout1
350
21
  3
Model
350
20
  0
DICTIONARY
  5
22
102
{ACAD_REACTORS
330
19
102
}
100
AcDbDictionary
280
     0
281
     1
  0
WIPEOUTVARIABLES
  5
23
100
AcDbWipeoutVariables
 70
     1
  0
ENDSEC
  0
EOF
