  0
SECTION
  2
HEADER
  9
$ACADVER
  1
AC1015
  9
$ACADMAINTVER
 70
     6
  9
$DWGCODEPAGE
  3
ANSI_932
  9
$INSBASE
 10
0.0
 20
0.0
 30
0.0
  9
$EXTMIN
 10
73.477169
 20
82.372578
 30
1.000000E+20
  9
$EXTMAX
 10
136.660392
 20
213.784884
 30
-1.000000E+20
  9
$LIMMIN
 10
73.477169
 20
82.372578
  9
$LIMMAX
 10
136.660392
 20
213.784884
  9
$ORTHOMODE
 70
     0
  9
$REGENMODE
 70
     1
  9
$FILLMODE
 70
     1
  9
$QTEXTMODE
 70
     0
  9
$MIRRTEXT
 70
     1
  9
$LTSCALE
 40
1.0
  9
$ATTMODE
 70
     1
  9
$TEXTSIZE
 40
0.2
  9
$TRACEWID
 40
0.05
  9
$TEXTSTYLE
  7
Standard
  9
$CLAYER
  8
0
  9
$CELTYPE
  6
Continuous
  9
$CECOLOR
 62
   256
  9
$CELTSCALE
 40
1.0
  9
$DISPSILH
 70
     0
  9
$DIMSCALE
 40
1.0
  9
$DIMASZ
 40
0.18
  9
$DIMEXO
 40
0.0625
  9
$DIMDLI
 40
0.38
  9
$DIMRND
 40
0.0
  9
$DIMDLE
 40
0.0
  9
$DIMEXE
 40
0.18
  9
$DIMTP
 40
0.0
  9
$DIMTM
 40
0.0
  9
$DIMTXT
 40
0.18
  9
$DIMCEN
 40
0.09
  9
$DIMTSZ
 40
0.0
  9
$DIMTOL
 70
     0
  9
$DIMLIM
 70
     0
  9
$DIMTIH
 70
     1
  9
$DIMTOH
 70
     1
  9
$DIMSE1
 70
     0
  9
$DIMSE2
 70
     0
  9
$DIMTAD
 70
     0
  9
$DIMZIN
 70
     0
  9
$DIMBLK
  1

  9
$DIMASO
 70
     1
  9
$DIMSHO
 70
     1
  9
$DIMPOST
  1

  9
$DIMAPOST
  1

  9
$DIMALT
 70
     0
  9
$DIMALTD
 70
     2
  9
$DIMALTF
 40
25.4
  9
$DIMLFAC
 40
1.0
  9
$DIMTOFL
 70
     0
  9
$DIMTVP
 40
0.0
  9
$DIMTIX
 70
     0
  9
$DIMSOXD
 70
     0
  9
$DIMSAH
 70
     0
  9
$DIMBLK1
  1

  9
$DIMBLK2
  1

  9
$DIMSTYLE
  2
Standard
  9
$DIMCLRD
 70
     0
  9
$DIMCLRE
 70
     0
  9
$DIMCLRT
 70
     0
  9
$DIMTFAC
 40
1.0
  9
$DIMGAP
 40
0.09
  9
$DIMJUST
 70
     0
  9
$DIMSD1
 70
     0
  9
$DIMSD2
 70
     0
  9
$DIMTOLJ
 70
     1
  9
$DIMTZIN
 70
     0
  9
$DIMALTZ
 70
     0
  9
$DIMALTTZ
 70
     0
  9
$DIMUPT
 70
     0
  9
$DIMDEC
 70
     4
  9
$DIMTDEC
 70
     4
  9
$DIMALTU
 70
     2
  9
$DIMALTTD
 70
     2
  9
$DIMTXSTY
  7
Standard
  9
$DIMAUNIT
 70
     0
  9
$DIMADEC
 70
     0
  9
$DIMALTRND
 40
0.0
  9
$DIMAZIN
 70
     0
  9
$DIMDSEP
 70
     0
  9
$DIMATFIT
 70
     3
  9
$DIMFRAC
 70
     0
  9
$DIMLDRBLK
  1

  9
$DIMLUNIT
 70
     2
  9
$DIMLWD
 70
     0
  9
$DIMLWE
 70
     0
  9
$DIMTMOVE
 70
     0
  9
$LUNITS
 70
     2
  9
$LUPREC
 70
     4
  9
$SKETCHINC
 40
0.1
  9
$FILLETRAD
 40
0.0
  9
$AUNITS
 70
     0
  9
$AUPREC
 70
     0
  9
$MENU
  1
acad
  9
$ELEVATION
 40
0.0
  9
$PELEVATION
 40
0.0
  9
$THICKNESS
 40
0.0
  9
$LIMCHECK
 70
     0
  9
$CHAMFERA
 40
0.0
  9
$CHAMFERB
 40
0.0
  9
$CHAMFERC
 40
0.0
  9
$CHAMFERD
 40
0.0
  9
$SKPOLY
 70
     0
  9
$TDCREATE
 40
0.000000000
  9
$TDUCREATE
 40
0.000000000
  9
$TDUPDATE
 40
0.000000000
  9
$TDUUPDATE
 40
0.000000000
  9
$TDINDWG
 40
0.0000000000
  9
$TDUSRTIMER
 40
0.0000000000
  9
$USRTIMER
 70
     1
  9
$ANGBASE
 50
0.0
  9
$ANGDIR
 70
     0
  9
$PDMODE
 70
     0
  9
$PDSIZE
 40
0.0
  9
$PLINEWID
 40
0.0
  9
$SPLFRAME
 70
     0
  9
$SPLINETYPE
 70
     6
  9
$SPLINESEGS
 70
     8
  9
$HANDSEED
  5
30
  9
$SURFTAB1
 70
     6
  9
$SURFTAB2
 70
     6
  9
$SURFTYPE
 70
     6
  9
$SURFU
 70
     6
  9
$SURFV
 70
     6
  9
$UCSBASE
  2

  9
$UCSNAME
  2

  9
$UCSORG
 10
0.0
 20
0.0
 30
0.0
  9
$UCSXDIR
 10
1.0
 20
0.0
 30
0.0
  9
$UCSYDIR
 10
0.0
 20
1.0
 30
0.0
  9
$UCSORTHOREF
  2

  9
$UCSORTHOVIEW
 70
     0
  9
$UCSORGTOP
 10
0.0
 20
0.0
 30
0.0
  9
$UCSORGBOTTOM
 10
0.0
 20
0.0
 30
0.0
  9
$UCSORGLEFT
 10
0.0
 20
0.0
 30
0.0
  9
$UCSORGRIGHT
 10
0.0
 20
0.0
 30
0.0
  9
$UCSORGFRONT
 10
0.0
 20
0.0
 30
0.0
  9
$UCSORGBACK
 10
0.0
 20
0.0
 30
0.0
  9
$PUCSBASE
  2

  9
$PUCSNAME
  2

  9
$PUCSORG
 10
0.0
 20
0.0
 30
0.0
  9
$PUCSXDIR
 10
1.0
 20
0.0
 30
0.0
  9
$PUCSYDIR
 10
0.0
 20
1.0
 30
0.0
  9
$PUCSORTHOREF
  2

  9
$PUCSORTHOVIEW
 70
     0
  9
$PUCSORGTOP
 10
0.0
 20
0.0
 30
0.0
  9
$PUCSORGBOTTOM
 10
0.0
 20
0.0
 30
0.0
  9
$PUCSORGLEFT
 10
0.0
 20
0.0
 30
0.0
  9
$PUCSORGRIGHT
 10
0.0
 20
0.0
 30
0.0
  9
$PUCSORGFRONT
 10
0.0
 20
0.0
 30
0.0
  9
$PUCSORGBACK
 10
0.0
 20
0.0
 30
0.0
  9
$USERI1
 70
     0
  9
$USERI2
 70
     0
  9
$USERI3
 70
     0
  9
$USERI4
 70
     0
  9
$USERI5
 70
     0
  9
$USERR1
 40
0.0
  9
$USERR2
 40
0.0
  9
$USERR3
 40
0.0
  9
$USERR4
 40
0.0
  9
$USERR5
 40
0.0
  9
$WORLDVIEW
 70
     1
  9
$SHADEDGE
 70
     3
  9
$SHADEDIF
 70
    70
  9
$TILEMODE
 70
     1
  9
$MAXACTVP
 70
    16
  9
$PINSBASE
 10
0.0
 20
0.0
 30
0.0
  9
$PLIMCHECK
 70
     0
  9
$PEXTMIN
 10
1.000000E+20
 20
1.000000E+20
 30
1.000000E+20
  9
$PEXTMAX
 10
-1.000000E+20
 20
-1.000000E+20
 30
-1.000000E+20
  9
$PLIMMIN
 10
0.0
 20
0.0
  9
$PLIMMAX
 10
12.0
 20
9.0
  9
$UNITMODE
 70
     0
  9
$VISRETAIN
 70
     0
  9
$PLINEGEN
 70
     1
  9
$PSLTSCALE
 70
     0
  9
$TREEDEPTH
 70
  3020
  9
$CMLSTYLE
  2
Standard
  9
$CMLJUST
 70
     0
  9
$CMLSCALE
 40
1.0
  9
$PROXYGRAPHICS
 70
     0
  9
$MEASUREMENT
 70
     1
  9
$CELWEIGHT
370
     0
  9
$ENDCAPS
280
     0
  9
$JOINSTYLE
280
     0
  9
$LWDISPLAY
290
     0
  9
$INSUNITS
 70
     0
  9
$HYPERLINKBASE
  1

  9
$STYLESHEET
  1

  9
$XEDIT
290
     1
  9
$CEPSNTYPE
380
     0
  9
$PSTYLEMODE
290
     1
  9
$FINGERPRINTGUID
  2

  9
$VERSIONGUID
  2

  9
$EXTNAMES
290
     1
  9
$PSVPSCALE
 40
0.0
  0
ENDSEC
  0
SECTION
  2
CLASSES
  0
CLASS
  1
LWPOLYLINE
  2
AcDbPolyline
  3
AutoCAD 2000
 90
    32768
280
     0
281
     1
  0
CLASS
  1
IMAGE
  2
AcDbRasterImage
  3
ISM
 90
    32895
280
     0
281
     1
  0
CLASS
  1
OLE2FRAME
  2
AcDbOle2Frame
  3
AutoCAD 2000
 90
    32768
280
     0
281
     1
  0
CLASS
  1
HATCH
  2
AcDbHatch
  3
AutoCAD 2000
 90
    32768
280
     0
281
     1
  0
CLASS
  1
DICTIONARYVAR
  2
AcDbDictionaryVar
  3
AutoCAD 2000
 90
    32768
280
     0
281
     0
  0
CLASS
  1
RASTERVARIABLES
  2
AcDbRasterVariables
  3
ISM
 90
    32768
280
     0
281
     0
  0
CLASS
  1
IMAGEDEF
  2
AcDbRasterImageDef
  3
ISM
 90
    32768
280
     0
281
     0
  0
CLASS
  1
IMAGEDEF_REACTOR
  2
AcDbRasterImageDefReactor
  3
ISM
 90
    32769
280
     0
281
     0
  0
CLASS
  1
IDBUFFER
  2
AcDbIdBuffer
  3
AutoCAD 2000
 90
    32768
280
     0
281
     0
  0
CLASS
  1
SPATIAL_FILTER
  2
AcDbSpatialFilter
  3
AutoCAD 2000
 90
    32768
280
     0
281
     0
  0
CLASS
  1
XRECORD
  2
AcDbXrecord
  3
AutoCAD 2000
 90
    32768
280
     0
281
     0
  0
CLASS
  1
SORTENTSTABLE
  2
AcDbSortentsTable
  3
AutoCAD 2000
 90
    32768
280
     0
281
     0
  0
CLASS
  1
LAYER_INDEX
  2
AcDbLayerIndex
  3
AutoCAD 2000
 90
    32768
280
     0
281
     0
  0
CLASS
  1
SPATIAL_INDEX
  2
AcDbSpatialIndex
  3
AutoCAD 2000
 90
    32768
280
     0
281
     0
  0
CLASS
  1
OBJECT_PTR
  2
CAseDLPNTableRecord
  3
"ASE-LPNTableRecord"
 90
    32769
280
     0
281
     0
  0
CLASS
  1
LAYOUT
  2
AcDbLayout
  3
AutoCAD 2000
 90
        0
280
     0
281
     0
  0
CLASS
  1
PLOTSETTINGS
  2
AcDbPlotSettings
  3
AutoCAD 2000
 90
    32768
280
     0
281
     0
  0
CLASS
  1
ACDBDICTIONARYWDFLT
  2
AcDbDictionaryWithDefault
  3
AutoCAD 2000
 90
        0
280
     0
281
     0
  0
CLASS
  1
ACDBPLACEHOLDER
  2
AcDbPlaceHolder
  3
AutoCAD 2000
 90
        0
280
     0
281
     0
  0
CLASS
  1
VBA_PROJECT
  2
AcDbVbaProject
  3
acadvba
 90
    32768
280
     0
281
     0
  0
CLASS
  1
WIPEOUT
  2
AcDbWipeout
  3
WipeOut|AutoCAD Express Tool|expresstools@autodesk.com
 90
    32895
280
     0
281
     1
  0
CLASS
  1
WIPEOUTVARIABLES
  2
AcDbWipeoutVariables
  3
WipeOut|AutoCAD Express Tool|expresstools@autodesk.com
 90
        0
280
     0
281
     0
  0
CLASS
  1
RTEXT
  2
RText
  3
RText|AutoCAD Express Tool|expresstools@autodesk.com
 90
    32768
280
     0
281
     1
  0
CLASS
  1
ARCALIGNEDTEXT
  2
AcDbArcAlignedText
  3
ATEXT|AutoCAD Express Tool|expresstools@autodesk.com
 90
    32768
280
     0
281
     1
  0
ENDSEC
  0
SECTION
  2
TABLES
  0
TABLE
  2
VPORT
  5
7
100
AcDbSymbolTable
 70
     1
  0
VPORT
  5
15
100
AcDbSymbolTableRecord
100
AcDbViewportTableRecord
  2
*ACTIVE
 70
     0
 10
0.0
 20
0.0
 11
1.0
 21
1.0
 12
6.591288
 22
4.579184
 13
0.0
 23
0.0
 14
1.0
 24
1.0
 15
0.0
 25
0.0
 16
0.0
 26
0.0
 36
1.0
 17
0.0
 27
0.0
 37
0.0
 40
9.158369
 41
0.688564
 42
50.0
 43
0.0
 44
0.0
 50
0.0
 51
0.0
 71
     0
 72
   100
 73
     1
 74
     1
 75
     0
 76
     0
 77
     0
 78
     0
281
     0
 65
     0
110
0.0
120
0.0
130
0.0
111
1.0
121
0.0
131
0.0
112
0.0
122
1.0
132
0.0
345
0
346
0
 79
     0
146
0.0
  0
ENDTAB
  0
TABLE
  2
LTYPE
  5
4
100
AcDbSymbolTable
 70
     3
  0
LTYPE
  5
11
100
AcDbSymbolTableRecord
100
AcDbLinetypeTableRecord
  2
ByBlock
 70
    64
  3

 72
    65
 73
     0
 40
0.0
  0
LTYPE
  5
12
100
AcDbSymbolTableRecord
100
AcDbLinetypeTableRecord
  2
ByLayer
 70
    64
  3

 72
    65
 73
     0
 40
0.0
  0
LTYPE
  5
13
100
AcDbSymbolTableRecord
100
AcDbLinetypeTableRecord
  2
Continuous
 70
    64
  3
Solid line
 72
    65
 73
     0
 40
0.0
  0
ENDTAB
  0
TABLE
  2
LAYER
  5
2
100
AcDbSymbolTable
 70
     2
  0
LAYER
  5
14
100
AcDbSymbolTableRecord
100
AcDbLayerTableRecord
  2
0
 70
     0
 62
     7
  6
Continuous
290
     1
370
    -3
390
1D
  0
LAYER
  5
28
100
AcDbSymbolTableRecord
100
AcDbLayerTableRecord
  2
LAYER_1
 70
     0
 62
   160
  6
Continuous
290
     1
370
    -3
390
1D
  0
ENDTAB
  0
TABLE
  2
STYLE
  5
3
100
AcDbSymbolTable
 70
     5
  0
STYLE
  5
17
100
AcDbSymbolTableRecord
100
AcDbTextStyleTableRecord
  2
Standard
 70
     0
 40
0.0
 41
1.0
 50
0.0
 71
     0
 42
0.0
  3
txt
  4

  0
STYLE
  5
24
100
AcDbSymbolTableRecord
100
AcDbTextStyleTableRecord
  2
STD
 70
     0
 40
0.0
 41
1.0
 50
0.0
 71
     0
 42
0.0
  3
txt
  4

  0
STYLE
  5
25
100
AcDbSymbolTableRecord
100
AcDbTextStyleTableRecord
  2
TATESTD
 70
     4
 40
0.0
 41
1.0
 50
0.0
 71
     0
 42
0.0
  3
txt
  4

  0
STYLE
  5
26
100
AcDbSymbolTableRecord
100
AcDbTextStyleTableRecord
  2
KANJISTD
 70
     0
 40
0.0
 41
1.0
 50
0.0
 71
     0
 42
0.0
  3
txt
  4
extfont
  0
STYLE
  5
27
100
AcDbSymbolTableRecord
100
AcDbTextStyleTableRecord
  2
KANJITATE
 70
     4
 40
0.0
 41
1.0
 50
0.0
 71
     0
 42
0.0
  3
txt
  4
extfont
  0
ENDTAB
  0
TABLE
  2
VIEW
  5
5
100
AcDbSymbolTable
 70
     0
  0
ENDTAB
  0
TABLE
  2
UCS
  5
6
100
AcDbSymbolTable
 70
     0
  0
ENDTAB
  0
TABLE
  2
APPID
  5
8
100
AcDbSymbolTable
 70
     1
  0
APPID
  5
16
100
AcDbSymbolTableRecord
100
AcDbRegAppTableRecord
  2
ACAD
 70
     0
  0
ENDTAB
  0
TABLE
  2
DIMSTYLE
  5
9
100
AcDbSymbolTable
 70
     1
100
AcDbDimStyleTable
 71
     0
  0
DIMSTYLE
105
18
100
AcDbSymbolTableRecord
100
AcDbDimStyleTableRecord
  2
Standard
 70
     0
  3

  4

 40
1.0
 41
0.18
 42
0.0625
 43
0.38
 44
0.18
 45
0.0
 46
0.0
 47
0.0
 48
0.0
 71
     0
 72
     0
 73
     1
 74
     1
 75
     0
 76
     0
 77
     0
 78
     0
 79
     0
140
0.18
141
0.09
142
0.0
143
25.4
144
1.0
145
0.0
146
1.0
147
0.09
148
0.0
170
     0
171
     2
172
     0
173
     0
174
     0
175
     0
176
     0
177
     0
178
     0
179
     0
271
     4
272
     4
273
     2
274
     2
275
     0
276
     0
277
     2
278
    46
279
     0
280
     0
281
     0
282
     0
283
     1
284
     0
285
     0
286
     0
288
     0
340
17
341
0
342
0
343
0
344
0
371
    -2
372
    -2
  0
ENDTAB
  0
TABLE
  2
BLOCK_RECORD
  5
1
100
AcDbSymbolTable
 70
     1
  0
BLOCK_RECORD
  5
A
100
AcDbSymbolTableRecord
100
AcDbBlockTableRecord
  2
*MODEL_SPACE
340
20
  0
BLOCK_RECORD
  5
B
100
AcDbSymbolTableRecord
100
AcDbBlockTableRecord
  2
*PAPER_SPACE
340
21
  0
BLOCK_RECORD
  5
29
100
AcDbSymbolTableRecord
100
AcDbBlockTableRecord
  2
AI9-BLK1
340
0
102
{BLKREFS
331
2A
102
}
  0
ENDTAB
  0
ENDSEC
  0
SECTION
  2
BLOCKS
  0
BLOCK
  5
D
100
AcDbEntity
  8
0
100
AcDbBlockBegin
  2
*MODEL_SPACE
 70
     0
 10
0.0
 20
0.0
 30
0.0
  3
*MODEL_SPACE
  1

  0
ENDBLK
  5
E
100
AcDbEntity
  8
0
100
AcDbBlockEnd
  0
BLOCK
  5
F
100
AcDbEntity
 67
     1
  8
0
100
AcDbBlockBegin
  2
*PAPER_SPACE
 70
     0
 10
0.0
 20
0.0
 30
0.0
  3
*PAPER_SPACE
  1

  0
ENDBLK
  5
10
100
AcDbEntity
 67
     1
  8
0
100
AcDbBlockEnd
  0
BLOCK
  5
2B
100
AcDbEntity
  8
LAYER_1
 62
     7
100
AcDbBlockBegin
  2
AI9-BLK1
 70
     0
 10
0.0
 20
0.0
 30
0.0
  3
AI9-BLK1
  1

  0
SPLINE
  5
2E
100
AcDbEntity
  8
LAYER_1
 62
     7
100
AcDbSpline
210
0.0
220
0.0
230
1.0
 70
     8
 71
     3
 72
   149
 73
   145
 74
     0
 42
0.00000001
 43
0.00000001
 40
0.0
 40
0.0
 40
0.0
 40
0.0
 40
1.0
 40
1.0
 40
1.0
 40
2.0
 40
2.0
 40
2.0
 40
3.0
 40
3.0
 40
3.0
 40
4.0
 40
4.0
 40
4.0
 40
5.0
 40
5.0
 40
5.0
 40
6.0
 40
6.0
 40
6.0
 40
7.0
 40
7.0
 40
7.0
 40
8.0
 40
8.0
 40
8.0
 40
9.0
 40
9.0
 40
9.0
 40
10.0
 40
10.0
 40
10.0
 40
11.0
 40
11.0
 40
11.0
 40
12.0
 40
12.0
 40
12.0
 40
13.0
 40
13.0
 40
13.0
 40
14.0
 40
14.0
 40
14.0
 40
15.0
 40
15.0
 40
15.0
 40
16.0
 40
16.0
 40
16.0
 40
17.0
 40
17.0
 40
17.0
 40
18.0
 40
18.0
 40
18.0
 40
19.0
 40
19.0
 40
19.0
 40
20.0
 40
20.0
 40
20.0
 40
21.0
 40
21.0
 40
21.0
 40
22.0
 40
22.0
 40
22.0
 40
23.0
 40
23.0
 40
23.0
 40
24.0
 40
24.0
 40
24.0
 40
25.0
 40
25.0
 40
25.0
 40
26.0
 40
26.0
 40
26.0
 40
27.0
 40
27.0
 40
27.0
 40
28.0
 40
28.0
 40
28.0
 40
29.0
 40
29.0
 40
29.0
 40
30.0
 40
30.0
 40
30.0
 40
31.0
 40
31.0
 40
31.0
 40
32.0
 40
32.0
 40
32.0
 40
33.0
 40
33.0
 40
33.0
 40
34.0
 40
34.0
 40
34.0
 40
35.0
 40
35.0
 40
35.0
 40
36.0
 40
36.0
 40
36.0
 40
37.0
 40
37.0
 40
37.0
 40
38.0
 40
38.0
 40
38.0
 40
39.0
 40
39.0
 40
39.0
 40
40.0
 40
40.0
 40
40.0
 40
41.0
 40
41.0
 40
41.0
 40
42.0
 40
42.0
 40
42.0
 40
43.0
 40
43.0
 40
43.0
 40
44.0
 40
44.0
 40
44.0
 40
45.0
 40
45.0
 40
45.0
 40
46.0
 40
46.0
 40
46.0
 40
47.0
 40
47.0
 40
47.0
 40
48.0
 40
48.0
 40
48.0
 40
48.0
 10
17.182844373914929
 20
23.356110975477428
 30
0.0
 10
16.778734673394094
 20
21.611514621310761
 30
0.0
 10
17.155972629123262
 20
14.554925537109373
 30
0.0
 10
18.986351860894096
 20
12.245678032769096
 30
0.0
 10
20.818453640407984
 20
9.93677503797743
 30
0.0
 10
23.689596218532984
 20
6.1654290093315964
 30
0.0
 10
21.883332655164928
 20
2.2049472384982636
 30
0.0
 10
20.076380072699649
 20
-1.7548455132378471
 30
0.0
 10
17.005421956380207
 20
-9.9042188856336804
 30
0.0
 10
13.219606526692708
 20
-9.1934956868489568
 30
0.0
 10
9.4331020779079857
 20
-8.4824279785156236
 30
0.0
 10
6.4317348904079852
 20
-6.8267150878906246
 30
0.0
 10
5.8536478678385411
 20
-5.1768588595920138
 30
0.0
 10
5.2762498643663189
 20
-3.5270026312934024
 30
0.0
 10
5.0495625813802079
 20
-0.7485331217447916
 30
0.0
 10
4.655443657769097
 20
1.334371609157986
 30
0.0
 10
4.2606357150607632
 20
3.4172763400607638
 30
0.0
 10
3.2774054633246523
 20
4.1855326334635414
 30
0.0
 10
1.8504469129774304
 20
3.8324103461371526
 30
0.0
 10
0.4227993435329861
 20
3.4796325683593747
 30
0.0
 10
-0.8021043565538194
 20
-0.0881083170572917
 30
0.0
 10
0.5051371256510416
 20
-2.6536709255642359
 30
0.0
 10
1.8125508626302083
 20
-5.2199225531684021
 30
0.0
 10
2.6765808105468749
 20
-9.9607184516059011
 30
0.0
 10
2.0251132541232635
 20
-12.174881320529513
 30
0.0
 10
1.3736456976996527
 20
-14.389388699001735
 30
0.0
 10
0.4420918782552083
 20
-19.071617974175346
 30
0.0
 10
4.0153449164496529
 20
-20.586426459418401
 30
0.0
 10
7.5879089355468743
 20
-22.100890435112845
 30
0.0
 10
14.546312798394096
 20
-24.667486572265624
 30
0.0
 10
15.234987386067706
 20
-26.205032687717011
 30
0.0
 10
15.925040011935762
 20
-27.742578803168399
 30
0.0
 10
15.563649495442707
 20
-30.175849745008676
 30
0.0
 10
14.952834065755207
 20
-33.652295600043402
 30
0.0
 10
14.340640597873263
 20
-37.129085964626732
 30
0.0
 10
15.839257134331596
 20
-36.758393690321178
 30
0.0
 10
14.461907958984373
 20
-40.006429714626734
 30
0.0
 10
13.085247802734374
 20
-43.254121229383678
 30
0.0
 10
10.961346435546874
 20
-43.407427978515621
 30
0.0
 10
10.788402642144096
 20
-46.639272054036454
 30
0.0
 10
10.61614786783854
 20
-49.870771620008675
 30
0.0
 10
11.11224161783854
 20
-52.428410508897564
 30
0.0
 10
11.804016791449651
 20
-54.637061225043396
 30
0.0
 10
12.495791965060763
 20
-56.846400960286452
 30
0.0
 10
11.692740207248264
 20
-61.678836398654511
 30
0.0
 10
9.1423360188802079
 20
-63.854069688585064
 30
0.0
 10
6.5915873209635407
 20
-66.029647488064228
 30
0.0
 10
2.5391215006510413
 20
-66.323858642578116
 30
0.0
 10
-0.1923224555121528
 20
-63.729012722439229
 30
0.0
 10
-2.9237664116753468
 20
-61.134166802300342
 30
0.0
 10
-4.6988518608940968
 20
-57.412085639105896
 30
0.0
 10
-3.7800448947482637
 20
-52.533141411675345
 30
0.0
 10
-2.8612379286024301
 20
-47.653852674696175
 30
0.0
 10
0.5447557237413194
 20
-42.105181884765621
 30
0.0
 10
0.6308831108940972
 20
-40.320966932508675
 30
0.0
 10
0.7159769694010416
 20
-38.537440999348952
 30
0.0
 10
0.745260281032986
 20
-37.112894015842009
 30
0.0
 10
-1.6907667371961803
 20
-36.080743408203119
 30
0.0
 10
-4.1267937554253464
 20
-35.047559271918402
 30
0.0
 10
-9.7460890028211793
 20
-34.294116889105901
 30
0.0
 10
-12.553841824001735
 20
-33.008062744140624
 30
0.0
 10
-15.36159464518229
 20
-31.722008599175343
 30
0.0
 10
-20.120477294921873
 20
-28.938371446397568
 30
0.0
 10
-18.387077501085066
 20
-25.075041368272569
 30
0.0
 10
-16.653505452473958
 20
-21.212055799696177
 30
0.0
 10
-13.179643419053818
 20
-21.151766628689234
 30
0.0
 10
-11.191995578342013
 20
-20.078963894314235
 30
0.0
 10
-9.2043477376302079
 20
-19.005472140842013
 30
0.0
 10
-9.4093309190538186
 20
-17.002838134765625
 30
0.0
 10
-9.9512444390190957
 20
-14.665685356987845
 30
0.0
 10
-10.492985704210069
 20
-12.328532579210068
 30
0.0
 10
-12.195379638671874
 20
-10.382398139105902
 30
0.0
 10
-11.71031019422743
 20
-8.1334398057725679
 30
0.0
 10
-11.225240749782985
 20
-5.8844814724392354
 30
0.0
 10
-8.2292134602864575
 20
-4.5563971625434023
 30
0.0
 10
-6.7714213053385413
 20
-1.342467583550347
 30
0.0
 10
-5.3132846408420136
 20
1.8707729763454859
 30
0.0
 10
-6.2022915310329854
 20
2.0330369737413192
 30
0.0
 10
-7.7708435058593741
 20
6.2422546386718745
 30
0.0
 10
-9.3390509711371514
 20
10.451472303602429
 30
0.0
 10
-8.451766628689235
 20
10.856271023220485
 30
0.0
 10
-8.3000101725260418
 20
13.474199083116318
 30
0.0
 10
-8.1482537163628468
 20
16.092127143012153
 30
0.0
 10
-7.476976860894097
 20
22.07315741644965
 30
0.0
 10
-10.784268527560762
 20
23.616560194227429
 30
0.0
 10
-14.09156019422743
 20
25.159962972005207
 30
0.0
 10
-13.228219265407985
 20
18.654589165581594
 30
0.0
 10
-16.225452338324651
 20
17.082936604817707
 30
0.0
 10
-19.222168646918401
 20
15.511284044053818
 30
0.0
 10
-26.202793375651041
 20
14.862572564019096
 30
0.0
 10
-28.295172119140624
 20
18.815130615234374
 30
0.0
 10
-30.387550862630206
 20
22.766999647352428
 30
0.0
 10
-32.662002902560758
 20
27.946356201171874
 30
0.0
 10
-30.742912462022566
 20
32.624451361762148
 30
0.0
 10
-28.823649766710066
 20
37.302891031901041
 30
0.0
 10
-25.292254638671874
 20
38.521421305338535
 30
0.0
 10
-22.02906019422743
 20
38.389129638671875
 30
0.0
 10
-18.765865749782986
 20
38.256837972005208
 30
0.0
 10
-11.13704630533854
 20
42.842949083116316
 30
0.0
 10
-10.916560194227429
 20
47.517254638671872
 30
0.0
 10
-10.696074083116319
 20
52.191560194227428
 30
0.0
 10
-17.424862331814236
 20
51.854629855685758
 30
0.0
 10
-19.647810194227429
 20
53.690865749782979
 30
0.0
 10
-21.870585801866316
 20
55.527446153428812
 30
0.0
 10
-21.774123128255205
 20
61.615274386935759
 30
0.0
 10
-17.279996066623262
 20
64.308305528428818
 30
0.0
 10
-12.785696750217014
 20
67.000992160373258
 30
0.0
 10
-5.1927062988281243
 20
65.027296956380198
 30
0.0
 10
-2.9111918131510413
 20
62.048322889539925
 30
0.0
 10
-0.6295050726996527
 20
59.069693332248256
 30
0.0
 10
4.9875508626302079
 20
60.418103705512145
 30
0.0
 10
6.8106953938802075
 20
59.070726860894091
 30
0.0
 10
8.6338399251302071
 20
57.723005506727425
 30
0.0
 10
2.2245842827690971
 20
53.338087972005205
 30
0.0
 10
2.5773620605468746
 20
50.736351860894089
 30
0.0
 10
2.9301398383246524
 20
48.134615749782981
 30
0.0
 10
5.812306722005208
 20
49.425148518880206
 30
0.0
 10
9.544723171657985
 20
43.151629638671871
 30
0.0
 10
11.616948106553819
 20
39.667949083116319
 30
0.0
 10
14.159084065755208
 20
41.305402967664925
 30
0.0
 10
16.028392876519096
 20
43.003835042317704
 30
0.0
 10
17.897701687282986
 20
44.701922607421871
 30
0.0
 10
19.270227728949649
 20
46.131981743706596
 30
0.0
 10
19.446961127387151
 20
48.355790879991318
 30
0.0
 10
19.62369452582465
 20
50.579944525824651
 30
0.0
 10
20.675482177734374
 20
53.965784369574649
 30
0.0
 10
23.433625623914928
 20
53.467279052734369
 30
0.0
 10
26.191424560546874
 20
52.968773735894089
 30
0.0
 10
33.298312038845481
 20
48.040220133463535
 30
0.0
 10
31.025238037109371
 20
45.842249213324649
 30
0.0
 10
28.752853054470485
 20
43.644622802734368
 30
0.0
 10
27.077503119574651
 20
42.630731201171869
 30
0.0
 10
26.273417833116316
 20
40.959859890407984
 30
0.0
 10
25.469332546657984
 20
39.289333089192702
 30
0.0
 10
24.281463623046871
 20
38.068391248914928
 30
0.0
 10
27.347598605685761
 20
35.810820176866315
 30
0.0
 10
30.414078097873261
 20
33.552560085720486
 30
0.0
 10
29.367458089192706
 20
28.824166531032983
 30
0.0
 10
28.09483981662326
 20
28.309469265407984
 30
0.0
 10
26.82359958224826
 20
27.794771999782984
 30
0.0
 10
21.299388970269096
 20
30.806818983289929
 30
0.0
 10
19.191335042317707
 20
27.868841552734374
 30
0.0
 10
17.083970133463541
 20
24.930519612630206
 30
0.0
 10
17.587298583984374
 20
25.100362820095484
 30
0.0
 10
17.182844373914929
 20
23.356110975477428
 30
0.0
  0
SPLINE
  5
2D
100
AcDbEntity
  8
LAYER_1
 62
     7
100
AcDbSpline
210
0.0
220
0.0
230
1.0
 70
     8
 71
     3
 72
    20
 73
    16
 74
     0
 42
0.00000001
 43
0.00000001
 40
0.0
 40
0.0
 40
0.0
 40
0.0
 40
1.0
 40
1.0
 40
1.0
 40
2.0
 40
2.0
 40
2.0
 40
3.0
 40
3.0
 40
3.0
 40
4.0
 40
4.0
 40
4.0
 40
5.0
 40
5.0
 40
5.0
 40
5.0
 10
8.0061435275607629
 20
11.536677381727429
 30
0.0
 10
9.3552429199218743
 20
15.849592420789929
 30
0.0
 10
8.4236891004774304
 20
17.154594590928816
 30
0.0
 10
7.4142761230468741
 20
19.067311604817707
 30
0.0
 10
6.4048631456163188
 20
20.980373128255206
 30
0.0
 10
5.285207112630208
 20
23.08325941297743
 30
0.0
 10
3.2215949164496527
 20
23.526987711588539
 30
0.0
 10
1.1586717393663193
 20
23.970026991102429
 30
0.0
 10
-3.0874084472656249
 20
22.992653401692706
 30
0.0
 10
-3.6334560818142356
 20
17.523908827039929
 30
0.0
 10
-4.1793314615885411
 20
12.056197781032985
 30
0.0
 10
-2.5737447102864581
 20
7.2568352593315968
 30
0.0
 10
0.6394958496093749
 20
7.37879163953993
 30
0.0
 10
3.8523918999565967
 20
7.5017815483940966
 30
0.0
 10
6.6563551161024304
 20
7.2234178331163186
 30
0.0
 10
8.0061435275607629
 20
11.536677381727429
 30
0.0
  0
SPLINE
  5
2C
100
AcDbEntity
  8
LAYER_1
 62
     7
100
AcDbSpline
210
0.0
220
0.0
230
1.0
 70
     8
 71
     3
 72
    17
 73
    13
 74
     0
 42
0.00000001
 43
0.00000001
 40
0.0
 40
0.0
 40
0.0
 40
0.0
 40
1.0
 40
1.0
 40
1.0
 40
2.0
 40
2.0
 40
2.0
 40
3.0
 40
3.0
 40
3.0
 40
4.0
 40
4.0
 40
4.0
 40
4.0
 10
3.9185377332899303
 20
-52.827008056640622
 30
0.0
 10
2.6752027723524301
 20
-51.569892713758676
 30
0.0
 10
-0.1947340223524305
 20
-53.190810139973955
 30
0.0
 10
-0.2796556260850694
 20
-55.198611789279511
 30
0.0
 10
-0.3645772298177083
 20
-57.206068929036455
 30
0.0
 10
1.3784688313802083
 20
-60.626704237196172
 30
0.0
 10
2.6262824164496523
 20
-59.942508273654511
 30
0.0
 10
3.874440511067708
 20
-59.258656819661454
 30
0.0
 10
5.1894334581163193
 20
-57.964334445529509
 30
0.0
 10
5.0736782497829855
 20
-56.126720513237842
 30
0.0
 10
4.9586120605468746
 20
-54.289795600043398
 30
0.0
 10
5.161183675130208
 20
-54.084812418619784
 30
0.0
 10
3.9185377332899303
 20
-52.827008056640622
 30
0.0
  0
ENDBLK
  5
2F
100
AcDbEntity
  8
LAYER_1
100
AcDbBlockEnd
  0
ENDSEC
  0
SECTION
  2
ENTITIES
  0
INSERT
  5
2A
100
AcDbEntity
  8
LAYER_1
 62
     7
100
AcDbBlockReference
  2
AI9-BLK1
 10
105.068781
 20
148.078731
 30
0.0
  0
ENDSEC
  0
SECTION
  2
OBJECTS
  0
DICTIONARY
  5
19
100
AcDbDictionary
280
     0
281
     1
  3
ACAD_GROUP
350
1A
  3
ACAD_MLINESTYLE
350
1B
  3
ACAD_LAYOUT
350
1E
  3
ACAD_PLOTSETTINGS
350
22
  3
ACAD_PLOTSTYLENAME
350
1F
  3
ACAD_WIPEOUT_VARS
350
23
  0
DICTIONARY
  5
1A
102
{ACAD_REACTORS
330
19
102
}
100
AcDbDictionary
280
     0
281
     1
  0
DICTIONARY
  5
1B
102
{ACAD_REACTORS
330
19
102
}
100
AcDbDictionary
280
     0
281
     1
  3
Standard
350
1C
  0
MLINESTYLE
  5
1C
102
{ACAD_REACTORS
330
1B
102
}
100
AcDbMlineStyle
  2
Standard
 70
     0
  3

 62
     0
 51
90.0
 52
90.0
 71
     2
 49
0.5
 62
   256
  6
ByLayer
 49
-0.5
 62
   256
  6
ByLayer
  0
ACDBDICTIONARYWDFLT
  5
1F
102
{ACAD_REACTORS
330
19
102
}
100
AcDbDictionary
281
     1
  3
Normal
350
1D
100
AcDbDictionaryWithDefault
340
1D
  0
ACDBPLACEHOLDER
  5
1D
102
{ACAD_REACTORS
330
1F
102
}
  0
LAYOUT
  5
20
102
{ACAD_REACTORS
330
1E
102
}
100
AcDbPlotSettings
  1

  2

  4

  6

 40
0.0
 41
0.0
 42
0.0
 43
0.0
 44
0.0
 45
0.0
 46
0.0
 47
0.0
 48
0.0
 49
0.0
140
0.0
141
0.0
142
1.0
143
1.0
 70
  1024
 72
     0
 73
     0
 74
     0
  7

 75
     0
147
1.0
148
0.0
149
0.0
100
AcDbLayout
  1
Model
 70
     0
 71
     0
 10
0.0
 20
0.0
 11
0.0
 21
0.0
 12
0.0
 22
0.0
 32
0.0
 14
0.0
 24
0.0
 34
0.0
 15
0.0
 25
0.0
 35
0.0
146
0.0
 13
0.0
 23
0.0
 33
0.0
 16
0.0
 26
0.0
 36
0.0
 17
0.0
 27
0.0
 37
0.0
 76
     0
330
A
331
0
345
0
346
0
  0
LAYOUT
  5
21
102
{ACAD_REACTORS
330
1E
102
}
100
AcDbPlotSettings
  1

  2

  4

  6

 40
0.0
 41
0.0
 42
0.0
 43
0.0
 44
0.0
 45
0.0
 46
0.0
 47
0.0
 48
0.0
 49
0.0
140
0.0
141
0.0
142
1.0
143
1.0
 70
     0
 72
     0
 73
     0
 74
     0
  7

 75
     0
147
1.0
148
0.0
149
0.0
100
AcDbLayout
  1
Layout1
 70
     0
 71
     0
 10
0.0
 20
0.0
 11
0.0
 21
0.0
 12
0.0
 22
0.0
 32
0.0
 14
0.0
 24
0.0
 34
0.0
 15
0.0
 25
0.0
 35
0.0
146
0.0
 13
0.0
 23
0.0
 33
0.0
 16
0.0
 26
0.0
 36
0.0
 17
0.0
 27
0.0
 37
0.0
 76
     0
330
B
331
0
345
0
346
0
  0
DICTIONARY
  5
1E
102
{ACAD_REACTORS
330
19
102
}
100
AcDbDictionary
280
     0
281
     1
  3
Layout1
350
21
  3
Model
350
20
  0
DICTIONARY
  5
22
102
{ACAD_REACTORS
330
19
102
}
100
AcDbDictionary
280
     0
281
     1
  0
WIPEOUTVARIABLES
  5
23
100
AcDbWipeoutVariables
 70
     1
  0
ENDSEC
  0
EOF
