  0
SECTION
  2
HEADER
  9
$ACADVER
  1
AC1015
  9
$ACADMAINTVER
 70
     6
  9
$DWGCODEPAGE
  3
ANSI_932
  9
$INSBASE
 10
0.0
 20
0.0
 30
0.0
  9
$EXTMIN
 10
38.082258
 20
50.680455
 30
1.000000E+20
  9
$EXTMAX
 10
165.995036
 20
266.879489
 30
-1.000000E+20
  9
$LIMMIN
 10
38.082258
 20
50.680455
  9
$LIMMAX
 10
165.995036
 20
266.879489
  9
$ORTHOMODE
 70
     0
  9
$REGENMODE
 70
     1
  9
$FILLMODE
 70
     1
  9
$QTEXTMODE
 70
     0
  9
$MIRRTEXT
 70
     1
  9
$LTSCALE
 40
1.0
  9
$ATTMODE
 70
     1
  9
$TEXTSIZE
 40
0.2
  9
$TRACEWID
 40
0.05
  9
$TEXTSTYLE
  7
Standard
  9
$CLAYER
  8
0
  9
$CELTYPE
  6
Continuous
  9
$CECOLOR
 62
   256
  9
$CELTSCALE
 40
1.0
  9
$DISPSILH
 70
     0
  9
$DIMSCALE
 40
1.0
  9
$DIMASZ
 40
0.18
  9
$DIMEXO
 40
0.0625
  9
$DIMDLI
 40
0.38
  9
$DIMRND
 40
0.0
  9
$DIMDLE
 40
0.0
  9
$DIMEXE
 40
0.18
  9
$DIMTP
 40
0.0
  9
$DIMTM
 40
0.0
  9
$DIMTXT
 40
0.18
  9
$DIMCEN
 40
0.09
  9
$DIMTSZ
 40
0.0
  9
$DIMTOL
 70
     0
  9
$DIMLIM
 70
     0
  9
$DIMTIH
 70
     1
  9
$DIMTOH
 70
     1
  9
$DIMSE1
 70
     0
  9
$DIMSE2
 70
     0
  9
$DIMTAD
 70
     0
  9
$DIMZIN
 70
     0
  9
$DIMBLK
  1

  9
$DIMASO
 70
     1
  9
$DIMSHO
 70
     1
  9
$DIMPOST
  1

  9
$DIMAPOST
  1

  9
$DIMALT
 70
     0
  9
$DIMALTD
 70
     2
  9
$DIMALTF
 40
25.4
  9
$DIMLFAC
 40
1.0
  9
$DIMTOFL
 70
     0
  9
$DIMTVP
 40
0.0
  9
$DIMTIX
 70
     0
  9
$DIMSOXD
 70
     0
  9
$DIMSAH
 70
     0
  9
$DIMBLK1
  1

  9
$DIMBLK2
  1

  9
$DIMSTYLE
  2
Standard
  9
$DIMCLRD
 70
     0
  9
$DIMCLRE
 70
     0
  9
$DIMCLRT
 70
     0
  9
$DIMTFAC
 40
1.0
  9
$DIMGAP
 40
0.09
  9
$DIMJUST
 70
     0
  9
$DIMSD1
 70
     0
  9
$DIMSD2
 70
     0
  9
$DIMTOLJ
 70
     1
  9
$DIMTZIN
 70
     0
  9
$DIMALTZ
 70
     0
  9
$DIMALTTZ
 70
     0
  9
$DIMUPT
 70
     0
  9
$DIMDEC
 70
     4
  9
$DIMTDEC
 70
     4
  9
$DIMALTU
 70
     2
  9
$DIMALTTD
 70
     2
  9
$DIMTXSTY
  7
Standard
  9
$DIMAUNIT
 70
     0
  9
$DIMADEC
 70
     0
  9
$DIMALTRND
 40
0.0
  9
$DIMAZIN
 70
     0
  9
$DIMDSEP
 70
     0
  9
$DIMATFIT
 70
     3
  9
$DIMFRAC
 70
     0
  9
$DIMLDRBLK
  1

  9
$DIMLUNIT
 70
     2
  9
$DIMLWD
 70
     0
  9
$DIMLWE
 70
     0
  9
$DIMTMOVE
 70
     0
  9
$LUNITS
 70
     2
  9
$LUPREC
 70
     4
  9
$SKETCHINC
 40
0.1
  9
$FILLETRAD
 40
0.0
  9
$AUNITS
 70
     0
  9
$AUPREC
 70
     0
  9
$MENU
  1
acad
  9
$ELEVATION
 40
0.0
  9
$PELEVATION
 40
0.0
  9
$THICKNESS
 40
0.0
  9
$LIMCHECK
 70
     0
  9
$CHAMFERA
 40
0.0
  9
$CHAMFERB
 40
0.0
  9
$CHAMFERC
 40
0.0
  9
$CHAMFERD
 40
0.0
  9
$SKPOLY
 70
     0
  9
$TDCREATE
 40
0.000000000
  9
$TDUCREATE
 40
0.000000000
  9
$TDUPDATE
 40
0.000000000
  9
$TDUUPDATE
 40
0.000000000
  9
$TDINDWG
 40
0.0000000000
  9
$TDUSRTIMER
 40
0.0000000000
  9
$USRTIMER
 70
     1
  9
$ANGBASE
 50
0.0
  9
$ANGDIR
 70
     0
  9
$PDMODE
 70
     0
  9
$PDSIZE
 40
0.0
  9
$PLINEWID
 40
0.0
  9
$SPLFRAME
 70
     0
  9
$SPLINETYPE
 70
     6
  9
$SPLINESEGS
 70
     8
  9
$HANDSEED
  5
2B
  9
$SURFTAB1
 70
     6
  9
$SURFTAB2
 70
     6
  9
$SURFTYPE
 70
     6
  9
$SURFU
 70
     6
  9
$SURFV
 70
     6
  9
$UCSBASE
  2

  9
$UCSNAME
  2

  9
$UCSORG
 10
0.0
 20
0.0
 30
0.0
  9
$UCSXDIR
 10
1.0
 20
0.0
 30
0.0
  9
$UCSYDIR
 10
0.0
 20
1.0
 30
0.0
  9
$UCSORTHOREF
  2

  9
$UCSORTHOVIEW
 70
     0
  9
$UCSORGTOP
 10
0.0
 20
0.0
 30
0.0
  9
$UCSORGBOTTOM
 10
0.0
 20
0.0
 30
0.0
  9
$UCSORGLEFT
 10
0.0
 20
0.0
 30
0.0
  9
$UCSORGRIGHT
 10
0.0
 20
0.0
 30
0.0
  9
$UCSORGFRONT
 10
0.0
 20
0.0
 30
0.0
  9
$UCSORGBACK
 10
0.0
 20
0.0
 30
0.0
  9
$PUCSBASE
  2

  9
$PUCSNAME
  2

  9
$PUCSORG
 10
0.0
 20
0.0
 30
0.0
  9
$PUCSXDIR
 10
1.0
 20
0.0
 30
0.0
  9
$PUCSYDIR
 10
0.0
 20
1.0
 30
0.0
  9
$PUCSORTHOREF
  2

  9
$PUCSORTHOVIEW
 70
     0
  9
$PUCSORGTOP
 10
0.0
 20
0.0
 30
0.0
  9
$PUCSORGBOTTOM
 10
0.0
 20
0.0
 30
0.0
  9
$PUCSORGLEFT
 10
0.0
 20
0.0
 30
0.0
  9
$PUCSORGRIGHT
 10
0.0
 20
0.0
 30
0.0
  9
$PUCSORGFRONT
 10
0.0
 20
0.0
 30
0.0
  9
$PUCSORGBACK
 10
0.0
 20
0.0
 30
0.0
  9
$USERI1
 70
     0
  9
$USERI2
 70
     0
  9
$USERI3
 70
     0
  9
$USERI4
 70
     0
  9
$USERI5
 70
     0
  9
$USERR1
 40
0.0
  9
$USERR2
 40
0.0
  9
$USERR3
 40
0.0
  9
$USERR4
 40
0.0
  9
$USERR5
 40
0.0
  9
$WORLDVIEW
 70
     1
  9
$SHADEDGE
 70
     3
  9
$SHADEDIF
 70
    70
  9
$TILEMODE
 70
     1
  9
$MAXACTVP
 70
    16
  9
$PINSBASE
 10
0.0
 20
0.0
 30
0.0
  9
$PLIMCHECK
 70
     0
  9
$PEXTMIN
 10
1.000000E+20
 20
1.000000E+20
 30
1.000000E+20
  9
$PEXTMAX
 10
-1.000000E+20
 20
-1.000000E+20
 30
-1.000000E+20
  9
$PLIMMIN
 10
0.0
 20
0.0
  9
$PLIMMAX
 10
12.0
 20
9.0
  9
$UNITMODE
 70
     0
  9
$VISRETAIN
 70
     0
  9
$PLINEGEN
 70
     1
  9
$PSLTSCALE
 70
     0
  9
$TREEDEPTH
 70
  3020
  9
$CMLSTYLE
  2
Standard
  9
$CMLJUST
 70
     0
  9
$CMLSCALE
 40
1.0
  9
$PROXYGRAPHICS
 70
     0
  9
$MEASUREMENT
 70
     1
  9
$CELWEIGHT
370
     0
  9
$ENDCAPS
280
     0
  9
$JOINSTYLE
280
     0
  9
$LWDISPLAY
290
     0
  9
$INSUNITS
 70
     0
  9
$HYPERLINKBASE
  1

  9
$STYLESHEET
  1

  9
$XEDIT
290
     1
  9
$CEPSNTYPE
380
     0
  9
$PSTYLEMODE
290
     1
  9
$FINGERPRINTGUID
  2

  9
$VERSIONGUID
  2

  9
$EXTNAMES
290
     1
  9
$PSVPSCALE
 40
0.0
  0
ENDSEC
  0
SECTION
  2
CLASSES
  0
CLASS
  1
LWPOLYLINE
  2
AcDbPolyline
  3
AutoCAD 2000
 90
    32768
280
     0
281
     1
  0
CLASS
  1
IMAGE
  2
AcDbRasterImage
  3
ISM
 90
    32895
280
     0
281
     1
  0
CLASS
  1
OLE2FRAME
  2
AcDbOle2Frame
  3
AutoCAD 2000
 90
    32768
280
     0
281
     1
  0
CLASS
  1
HATCH
  2
AcDbHatch
  3
AutoCAD 2000
 90
    32768
280
     0
281
     1
  0
CLASS
  1
DICTIONARYVAR
  2
AcDbDictionaryVar
  3
AutoCAD 2000
 90
    32768
280
     0
281
     0
  0
CLASS
  1
RASTERVARIABLES
  2
AcDbRasterVariables
  3
ISM
 90
    32768
280
     0
281
     0
  0
CLASS
  1
IMAGEDEF
  2
AcDbRasterImageDef
  3
ISM
 90
    32768
280
     0
281
     0
  0
CLASS
  1
IMAGEDEF_REACTOR
  2
AcDbRasterImageDefReactor
  3
ISM
 90
    32769
280
     0
281
     0
  0
CLASS
  1
IDBUFFER
  2
AcDbIdBuffer
  3
AutoCAD 2000
 90
    32768
280
     0
281
     0
  0
CLASS
  1
SPATIAL_FILTER
  2
AcDbSpatialFilter
  3
AutoCAD 2000
 90
    32768
280
     0
281
     0
  0
CLASS
  1
XRECORD
  2
AcDbXrecord
  3
AutoCAD 2000
 90
    32768
280
     0
281
     0
  0
CLASS
  1
SORTENTSTABLE
  2
AcDbSortentsTable
  3
AutoCAD 2000
 90
    32768
280
     0
281
     0
  0
CLASS
  1
LAYER_INDEX
  2
AcDbLayerIndex
  3
AutoCAD 2000
 90
    32768
280
     0
281
     0
  0
CLASS
  1
SPATIAL_INDEX
  2
AcDbSpatialIndex
  3
AutoCAD 2000
 90
    32768
280
     0
281
     0
  0
CLASS
  1
OBJECT_PTR
  2
CAseDLPNTableRecord
  3
"ASE-LPNTableRecord"
 90
    32769
280
     0
281
     0
  0
CLASS
  1
LAYOUT
  2
AcDbLayout
  3
AutoCAD 2000
 90
        0
280
     0
281
     0
  0
CLASS
  1
PLOTSETTINGS
  2
AcDbPlotSettings
  3
AutoCAD 2000
 90
    32768
280
     0
281
     0
  0
CLASS
  1
ACDBDICTIONARYWDFLT
  2
AcDbDictionaryWithDefault
  3
AutoCAD 2000
 90
        0
280
     0
281
     0
  0
CLASS
  1
ACDBPLACEHOLDER
  2
AcDbPlaceHolder
  3
AutoCAD 2000
 90
        0
280
     0
281
     0
  0
CLASS
  1
VBA_PROJECT
  2
AcDbVbaProject
  3
acadvba
 90
    32768
280
     0
281
     0
  0
CLASS
  1
WIPEOUT
  2
AcDbWipeout
  3
WipeOut|AutoCAD Express Tool|expresstools@autodesk.com
 90
    32895
280
     0
281
     1
  0
CLASS
  1
WIPEOUTVARIABLES
  2
AcDbWipeoutVariables
  3
WipeOut|AutoCAD Express Tool|expresstools@autodesk.com
 90
        0
280
     0
281
     0
  0
CLASS
  1
RTEXT
  2
RText
  3
RText|AutoCAD Express Tool|expresstools@autodesk.com
 90
    32768
280
     0
281
     1
  0
CLASS
  1
ARCALIGNEDTEXT
  2
AcDbArcAlignedText
  3
ATEXT|AutoCAD Express Tool|expresstools@autodesk.com
 90
    32768
280
     0
281
     1
  0
ENDSEC
  0
SECTION
  2
TABLES
  0
TABLE
  2
VPORT
  5
7
100
AcDbSymbolTable
 70
     1
  0
VPORT
  5
15
100
AcDbSymbolTableRecord
100
AcDbViewportTableRecord
  2
*ACTIVE
 70
     0
 10
0.0
 20
0.0
 11
1.0
 21
1.0
 12
6.591288
 22
4.579184
 13
0.0
 23
0.0
 14
1.0
 24
1.0
 15
0.0
 25
0.0
 16
0.0
 26
0.0
 36
1.0
 17
0.0
 27
0.0
 37
0.0
 40
9.158369
 41
0.688564
 42
50.0
 43
0.0
 44
0.0
 50
0.0
 51
0.0
 71
     0
 72
   100
 73
     1
 74
     1
 75
     0
 76
     0
 77
     0
 78
     0
281
     0
 65
     0
110
0.0
120
0.0
130
0.0
111
1.0
121
0.0
131
0.0
112
0.0
122
1.0
132
0.0
345
0
346
0
 79
     0
146
0.0
  0
ENDTAB
  0
TABLE
  2
LTYPE
  5
4
100
AcDbSymbolTable
 70
     3
  0
LTYPE
  5
11
100
AcDbSymbolTableRecord
100
AcDbLinetypeTableRecord
  2
ByBlock
 70
    64
  3

 72
    65
 73
     0
 40
0.0
  0
LTYPE
  5
12
100
AcDbSymbolTableRecord
100
AcDbLinetypeTableRecord
  2
ByLayer
 70
    64
  3

 72
    65
 73
     0
 40
0.0
  0
LTYPE
  5
13
100
AcDbSymbolTableRecord
100
AcDbLinetypeTableRecord
  2
Continuous
 70
    64
  3
Solid line
 72
    65
 73
     0
 40
0.0
  0
ENDTAB
  0
TABLE
  2
LAYER
  5
2
100
AcDbSymbolTable
 70
     2
  0
LAYER
  5
14
100
AcDbSymbolTableRecord
100
AcDbLayerTableRecord
  2
0
 70
     0
 62
     7
  6
Continuous
290
     1
370
    -3
390
1D
  0
LAYER
  5
28
100
AcDbSymbolTableRecord
100
AcDbLayerTableRecord
  2
LAYER_1
 70
     0
 62
   160
  6
Continuous
290
     1
370
    -3
390
1D
  0
ENDTAB
  0
TABLE
  2
STYLE
  5
3
100
AcDbSymbolTable
 70
     5
  0
STYLE
  5
17
100
AcDbSymbolTableRecord
100
AcDbTextStyleTableRecord
  2
Standard
 70
     0
 40
0.0
 41
1.0
 50
0.0
 71
     0
 42
0.0
  3
txt
  4

  0
STYLE
  5
24
100
AcDbSymbolTableRecord
100
AcDbTextStyleTableRecord
  2
STD
 70
     0
 40
0.0
 41
1.0
 50
0.0
 71
     0
 42
0.0
  3
txt
  4

  0
STYLE
  5
25
100
AcDbSymbolTableRecord
100
AcDbTextStyleTableRecord
  2
TATESTD
 70
     4
 40
0.0
 41
1.0
 50
0.0
 71
     0
 42
0.0
  3
txt
  4

  0
STYLE
  5
26
100
AcDbSymbolTableRecord
100
AcDbTextStyleTableRecord
  2
KANJISTD
 70
     0
 40
0.0
 41
1.0
 50
0.0
 71
     0
 42
0.0
  3
txt
  4
extfont
  0
STYLE
  5
27
100
AcDbSymbolTableRecord
100
AcDbTextStyleTableRecord
  2
KANJITATE
 70
     4
 40
0.0
 41
1.0
 50
0.0
 71
     0
 42
0.0
  3
txt
  4
extfont
  0
ENDTAB
  0
TABLE
  2
VIEW
  5
5
100
AcDbSymbolTable
 70
     0
  0
ENDTAB
  0
TABLE
  2
UCS
  5
6
100
AcDbSymbolTable
 70
     0
  0
ENDTAB
  0
TABLE
  2
APPID
  5
8
100
AcDbSymbolTable
 70
     1
  0
APPID
  5
16
100
AcDbSymbolTableRecord
100
AcDbRegAppTableRecord
  2
ACAD
 70
     0
  0
ENDTAB
  0
TABLE
  2
DIMSTYLE
  5
9
100
AcDbSymbolTable
 70
     1
100
AcDbDimStyleTable
 71
     0
  0
DIMSTYLE
105
18
100
AcDbSymbolTableRecord
100
AcDbDimStyleTableRecord
  2
Standard
 70
     0
  3

  4

 40
1.0
 41
0.18
 42
0.0625
 43
0.38
 44
0.18
 45
0.0
 46
0.0
 47
0.0
 48
0.0
 71
     0
 72
     0
 73
     1
 74
     1
 75
     0
 76
     0
 77
     0
 78
     0
 79
     0
140
0.18
141
0.09
142
0.0
143
25.4
144
1.0
145
0.0
146
1.0
147
0.09
148
0.0
170
     0
171
     2
172
     0
173
     0
174
     0
175
     0
176
     0
177
     0
178
     0
179
     0
271
     4
272
     4
273
     2
274
     2
275
     0
276
     0
277
     2
278
    46
279
     0
280
     0
281
     0
282
     0
283
     1
284
     0
285
     0
286
     0
288
     0
340
17
341
0
342
0
343
0
344
0
371
    -2
372
    -2
  0
ENDTAB
  0
TABLE
  2
BLOCK_RECORD
  5
1
100
AcDbSymbolTable
 70
     0
  0
BLOCK_RECORD
  5
A
100
AcDbSymbolTableRecord
100
AcDbBlockTableRecord
  2
*MODEL_SPACE
340
20
  0
BLOCK_RECORD
  5
B
100
AcDbSymbolTableRecord
100
AcDbBlockTableRecord
  2
*PAPER_SPACE
340
21
  0
ENDTAB
  0
ENDSEC
  0
SECTION
  2
BLOCKS
  0
BLOCK
  5
D
100
AcDbEntity
  8
0
100
AcDbBlockBegin
  2
*MODEL_SPACE
 70
     0
 10
0.0
 20
0.0
 30
0.0
  3
*MODEL_SPACE
  1

  0
ENDBLK
  5
E
100
AcDbEntity
  8
0
100
AcDbBlockEnd
  0
BLOCK
  5
F
100
AcDbEntity
 67
     1
  8
0
100
AcDbBlockBegin
  2
*PAPER_SPACE
 70
     0
 10
0.0
 20
0.0
 30
0.0
  3
*PAPER_SPACE
  1

  0
ENDBLK
  5
10
100
AcDbEntity
 67
     1
  8
0
100
AcDbBlockEnd
  0
ENDSEC
  0
SECTION
  2
ENTITIES
  0
SPLINE
  5
2A
100
AcDbEntity
  8
LAYER_1
 62
     7
100
AcDbSpline
210
0.0
220
0.0
230
1.0
 70
     8
 71
     3
 72
    47
 73
    43
 74
     0
 42
0.00000001
 43
0.00000001
 40
0.0
 40
0.0
 40
0.0
 40
0.0
 40
1.0
 40
1.0
 40
1.0
 40
2.0
 40
2.0
 40
2.0
 40
3.0
 40
3.0
 40
3.0
 40
4.0
 40
4.0
 40
4.0
 40
5.0
 40
5.0
 40
5.0
 40
6.0
 40
6.0
 40
6.0
 40
7.0
 40
7.0
 40
7.0
 40
8.0
 40
8.0
 40
8.0
 40
9.0
 40
9.0
 40
9.0
 40
10.0
 40
10.0
 40
10.0
 40
11.0
 40
11.0
 40
11.0
 40
12.0
 40
12.0
 40
12.0
 40
13.0
 40
13.0
 40
13.0
 40
14.0
 40
14.0
 40
14.0
 40
14.0
 10
105.62593858506943
 20
195.01393636067706
 30
0.0
 10
105.62593858506943
 20
195.01393636067706
 30
0.0
 10
110.29783257378472
 20
197.16315917968748
 30
0.0
 10
114.26279296874999
 20
196.46311577690972
 30
0.0
 10
118.22740885416665
 20
195.76324462890622
 30
0.0
 10
121.41205512152777
 20
194.98396402994791
 30
0.0
 10
122.18754611545138
 20
192.8877956814236
 30
0.0
 10
122.96303710937499
 20
190.79162733289928
 30
0.0
 10
121.78722601996526
 20
188.59021131727428
 30
0.0
 10
119.04665256076387
 20
186.78790961371527
 30
0.0
 10
116.3064236111111
 20
184.98543565538193
 30
0.0
 10
115.40966525607638
 20
182.69289686414928
 30
0.0
 10
114.8956570095486
 20
181.6483439127604
 30
0.0
 10
114.38164876302082
 20
180.60379096137152
 30
0.0
 10
113.01394585503471
 20
179.33065592447915
 30
0.0
 10
112.50200466579859
 20
177.91454942491319
 30
0.0
 10
111.99040798611109
 20
176.49809841579861
 30
0.0
 10
110.70917697482638
 20
173.32895507812498
 30
0.0
 10
108.78819173177082
 20
171.30875108506942
 30
0.0
 10
106.86755099826388
 20
169.28837483723956
 30
0.0
 10
104.1054456922743
 20
167.91360948350692
 30
0.0
 10
102.4345743815104
 20
167.5312038845486
 30
0.0
 10
100.76387532552083
 20
167.14897054036456
 30
0.0
 10
95.811895073784711
 20
165.86687825520832
 30
0.0
 10
96.140901692708326
 20
168.23038601345485
 30
0.0
 10
96.470080566406239
 20
170.59406602647567
 30
0.0
 10
95.871667480468744
 20
172.57981906467012
 30
0.0
 10
94.995924207899293
 20
173.60128987630208
 30
0.0
 10
94.120180935329856
 20
174.62310519748263
 30
0.0
 10
89.756622992621516
 20
176.63125135633678
 30
0.0
 10
88.874678548177073
 20
178.62906222873264
 30
0.0
 10
87.99273410373263
 20
180.62704535590277
 30
0.0
 10
88.530168999565959
 20
183.10785861545136
 30
0.0
 10
89.928361002604163
 20
184.01856960720485
 30
0.0
 10
91.326208496093741
 20
184.92928059895831
 30
0.0
 10
95.567637803819437
 20
187.1803059895833
 30
0.0
 10
96.811661783854163
 20
188.93162027994791
 30
0.0
 10
98.055513509114576
 20
190.68259006076389
 30
0.0
 10
99.640085177951377
 20
192.59616834852429
 30
0.0
 10
101.12871093749999
 20
193.14927842881943
 30
0.0
 10
102.6173366970486
 20
193.70256076388887
 30
0.0
 10
105.62593858506943
 20
195.01393636067706
 30
0.0
 10
105.62593858506943
 20
195.01393636067706
 30
0.0
  0
SPLINE
  5
29
100
AcDbEntity
  8
LAYER_1
 62
     7
100
AcDbSpline
210
0.0
220
0.0
230
1.0
 70
     8
 71
     3
 72
   137
 73
   133
 74
     0
 42
0.00000001
 43
0.00000001
 40
0.0
 40
0.0
 40
0.0
 40
0.0
 40
1.0
 40
1.0
 40
1.0
 40
2.0
 40
2.0
 40
2.0
 40
3.0
 40
3.0
 40
3.0
 40
4.0
 40
4.0
 40
4.0
 40
5.0
 40
5.0
 40
5.0
 40
6.0
 40
6.0
 40
6.0
 40
7.0
 40
7.0
 40
7.0
 40
8.0
 40
8.0
 40
8.0
 40
9.0
 40
9.0
 40
9.0
 40
10.0
 40
10.0
 40
10.0
 40
11.0
 40
11.0
 40
11.0
 40
12.0
 40
12.0
 40
12.0
 40
13.0
 40
13.0
 40
13.0
 40
14.0
 40
14.0
 40
14.0
 40
15.0
 40
15.0
 40
15.0
 40
16.0
 40
16.0
 40
16.0
 40
17.0
 40
17.0
 40
17.0
 40
18.0
 40
18.0
 40
18.0
 40
19.0
 40
19.0
 40
19.0
 40
20.0
 40
20.0
 40
20.0
 40
21.0
 40
21.0
 40
21.0
 40
22.0
 40
22.0
 40
22.0
 40
23.0
 40
23.0
 40
23.0
 40
24.0
 40
24.0
 40
24.0
 40
25.0
 40
25.0
 40
25.0
 40
26.0
 40
26.0
 40
26.0
 40
27.0
 40
27.0
 40
27.0
 40
28.0
 40
28.0
 40
28.0
 40
29.0
 40
29.0
 40
29.0
 40
30.0
 40
30.0
 40
30.0
 40
31.0
 40
31.0
 40
31.0
 40
32.0
 40
32.0
 40
32.0
 40
33.0
 40
33.0
 40
33.0
 40
34.0
 40
34.0
 40
34.0
 40
35.0
 40
35.0
 40
35.0
 40
36.0
 40
36.0
 40
36.0
 40
37.0
 40
37.0
 40
37.0
 40
38.0
 40
38.0
 40
38.0
 40
39.0
 40
39.0
 40
39.0
 40
40.0
 40
40.0
 40
40.0
 40
41.0
 40
41.0
 40
41.0
 40
42.0
 40
42.0
 40
42.0
 40
43.0
 40
43.0
 40
43.0
 40
44.0
 40
44.0
 40
44.0
 40
44.0
 10
145.69722222222222
 20
140.19023708767361
 30
0.0
 10
144.77841525607639
 20
139.5728759765625
 30
0.0
 10
137.40694444444443
 20
134.19301486545137
 30
0.0
 10
138.11249999999998
 20
129.95968153211805
 30
0.0
 10
138.81805555555553
 20
125.72634819878471
 30
0.0
 10
140.93472222222221
 20
119.02357042100694
 30
0.0
 10
143.93333333333331
 20
117.08329264322916
 30
0.0
 10
146.93194444444444
 20
115.14301486545138
 30
0.0
 10
150.63611111111109
 20
113.37912597656249
 30
0.0
 10
155.75138888888887
 20
113.02634819878472
 30
0.0
 10
160.86666666666665
 20
112.67357042100693
 30
0.0
 10
164.21805555555554
 20
112.14440375434027
 30
0.0
 10
165.45277777777775
 20
108.08745930989582
 30
0.0
 10
166.68749999999997
 20
104.03051486545138
 30
0.0
 10
164.57083333333333
 20
90.09579264322916
 30
0.0
 10
162.45416666666665
 20
85.862459309895826
 30
0.0
 10
160.33749999999998
 20
81.629125976562491
 30
0.0
 10
146.04999999999998
 20
60.991625976562496
 30
0.0
 10
140.40555555555554
 20
57.993014865451386
 30
0.0
 10
134.76111111111109
 20
54.994403754340276
 30
0.0
 10
123.11944444444444
 20
46.704125976562494
 30
0.0
 10
115.53472222222221
 20
53.40690375434027
 30
0.0
 10
107.94999999999999
 20
60.109681532118053
 30
0.0
 10
113.94722222222221
 20
69.811070421006931
 30
0.0
 10
117.82777777777777
 20
74.573570421006934
 30
0.0
 10
121.70833333333333
 20
79.336070421006937
 30
0.0
 10
128.23472222222222
 20
86.391625976562494
 30
0.0
 10
130.17499999999998
 20
90.448570421006934
 30
0.0
 10
132.11527777777778
 20
94.505514865451374
 30
0.0
 10
131.23333333333332
 20
103.14857042100694
 30
0.0
 10
120.64999999999999
 20
100.50273708767361
 30
0.0
 10
110.06666666666666
 20
97.856903754340266
 30
0.0
 10
84.666666666666657
 20
80.923570421006943
 30
0.0
 10
75.847222222222214
 20
97.680514865451386
 30
0.0
 10
67.027777777777771
 20
114.43745930989583
 30
0.0
 10
82.373611111111103
 20
123.25690375434027
 30
0.0
 10
85.37222222222222
 20
125.54995930989583
 30
0.0
 10
88.370833333333323
 20
127.84301486545138
 30
0.0
 10
101.4236111111111
 20
134.89857042100692
 30
0.0
 10
104.06944444444443
 20
137.89718153211805
 30
0.0
 10
106.71527777777777
 20
140.89579264322916
 30
0.0
 10
113.00671115451388
 20
149.42102593315971
 30
0.0
 10
107.71504448784721
 20
150.53827039930553
 30
0.0
 10
102.42320556640624
 20
151.65551486545138
 30
0.0
 10
95.955555555555549
 20
149.83271484374998
 30
0.0
 10
95.955555555555549
 20
149.83271484374998
 30
0.0
 10
95.955555555555549
 20
149.83271484374998
 30
0.0
 10
97.719444444444434
 20
138.24961480034722
 30
0.0
 10
91.487094455295136
 20
136.36824815538193
 30
0.0
 10
85.254744466145823
 20
134.48688151041665
 30
0.0
 10
75.494616699218739
 20
138.13248155381945
 30
0.0
 10
68.674188910590274
 20
135.42773708767359
 30
0.0
 10
61.853761121961803
 20
132.72299262152777
 30
0.0
 10
57.502950032552079
 20
135.3099148220486
 30
0.0
 10
57.032522243923609
 20
136.95632595486109
 30
0.0
 10
56.562094455295131
 20
138.6027370876736
 30
0.0
 10
54.562905544704854
 20
141.30713704427083
 30
0.0
 10
58.561111111111103
 20
144.12935926649305
 30
0.0
 10
62.559316677517359
 20
146.95158148871528
 30
0.0
 10
65.969444444444434
 20
149.6563259548611
 30
0.0
 10
66.322222222222223
 20
153.18410373263887
 30
0.0
 10
66.674999999999997
 20
156.71188151041665
 30
0.0
 10
65.969444444444434
 20
165.17872043185761
 30
0.0
 10
61.030555555555551
 20
168.58884819878472
 30
0.0
 10
56.091666666666661
 20
171.99897596571179
 30
0.0
 10
49.859316677517356
 20
179.87756483289928
 30
0.0
 10
51.270427788628467
 20
185.99243706597221
 30
0.0
 10
52.681538899739579
 20
192.10730929904511
 30
0.0
 10
63.500172254774299
 20
197.16384819878471
 30
0.0
 10
70.085300021701386
 20
198.22218153211804
 30
0.0
 10
76.670427788628459
 20
199.28051486545138
 30
0.0
 10
86.195600043402763
 20
203.39602593315971
 30
0.0
 10
88.42974446614582
 20
206.80632595486108
 30
0.0
 10
90.663888888888877
 20
210.21662597656248
 30
0.0
 10
87.48888888888888
 20
216.56662597656248
 30
0.0
 10
79.727777777777774
 20
217.71315375434025
 30
0.0
 10
71.966666666666654
 20
218.85968153211803
 30
0.0
 10
53.151966688368049
 20
222.68149820963541
 30
0.0
 10
48.448205566406244
 20
224.68051486545136
 30
0.0
 10
43.74444444444444
 20
226.67953152126734
 30
0.0
 10
36.689061143663189
 20
232.55927598741317
 30
0.0
 10
38.570427788628471
 20
237.38051486545137
 30
0.0
 10
40.451794433593747
 20
242.20175374348955
 30
0.0
 10
44.449999999999996
 20
244.20094265407985
 30
0.0
 10
47.977777777777774
 20
244.55372043185761
 30
0.0
 10
51.505555555555553
 20
244.9064982096354
 30
0.0
 10
65.499016655815964
 20
240.2029093424479
 30
0.0
 10
68.438888888888883
 20
235.73427598741318
 30
0.0
 10
71.378761121961801
 20
231.26564263237844
 30
0.0
 10
76.43530002170138
 20
226.32692599826387
 30
0.0
 10
82.667650010850693
 20
224.79816487630205
 30
0.0
 10
88.899999999999991
 20
223.26940375434026
 30
0.0
 10
103.95196668836805
 20
223.38705376519096
 30
0.0
 10
107.83252224392361
 20
226.56205376519094
 30
0.0
 10
111.71307779947915
 20
229.73705376519095
 30
0.0
 10
116.88657769097222
 20
234.08786485460067
 30
0.0
 10
109.83136664496527
 20
240.79064263237845
 30
0.0
 10
102.77598334418401
 20
247.49342041015623
 30
0.0
 10
101.12957221137152
 20
253.60829264322913
 30
0.0
 10
103.01111111111111
 20
257.48884819878469
 30
0.0
 10
104.89265001085069
 20
261.36940375434023
 30
0.0
 10
109.3611111111111
 20
266.66107042100691
 30
0.0
 10
109.3611111111111
 20
266.66107042100691
 30
0.0
 10
109.3611111111111
 20
266.66107042100691
 30
0.0
 10
123.23692220052082
 20
259.95829264322913
 30
0.0
 10
130.29247775607638
 20
259.25273708767361
 30
0.0
 10
137.34803331163192
 20
258.54718153211803
 30
0.0
 10
151.57696668836803
 20
256.13664822048611
 30
0.0
 10
156.33946668836805
 20
250.02177598741318
 30
0.0
 10
161.10196668836804
 20
243.90690375434025
 30
0.0
 10
162.51273328993054
 20
232.91188151041663
 30
0.0
 10
162.04247775607638
 20
222.26980929904511
 30
0.0
 10
161.57222222222219
 20
211.62773708767358
 30
0.0
 10
161.30763888888887
 20
197.60482042100693
 30
0.0
 10
155.66319444444443
 20
191.34301486545138
 30
0.0
 10
150.01874999999998
 20
185.08120930989583
 30
0.0
 10
149.57777777777775
 20
183.6700981987847
 30
0.0
 10
145.52083333333331
 20
180.49509819878472
 30
0.0
 10
141.46388888888887
 20
177.32009819878471
 30
0.0
 10
137.23055555555555
 20
175.20343153211803
 30
0.0
 10
137.31874999999999
 20
171.49926486545138
 30
0.0
 10
137.40694444444443
 20
167.7950981987847
 30
0.0
 10
145.07986111111109
 20
161.18051486545139
 30
0.0
 10
147.37291666666664
 20
159.24023708767359
 30
0.0
 10
149.66597222222219
 20
157.29995930989583
 30
0.0
 10
152.2236111111111
 20
151.52322319878471
 30
0.0
 10
151.65034722222219
 20
149.00968153211804
 30
0.0
 10
151.07708333333332
 20
146.49613986545137
 30
0.0
 10
149.13680555555555
 20
143.32113986545139
 30
0.0
 10
148.03437499999998
 20
142.08641764322914
 30
0.0
 10
146.93194444444444
 20
140.85169542100692
 30
0.0
 10
146.61602918836803
 20
140.80759819878472
 30
0.0
 10
145.69722222222222
 20
140.19023708767361
 30
0.0
  0
ENDSEC
  0
SECTION
  2
OBJECTS
  0
DICTIONARY
  5
19
100
AcDbDictionary
280
     0
281
     1
  3
ACAD_GROUP
350
1A
  3
ACAD_MLINESTYLE
350
1B
  3
ACAD_LAYOUT
350
1E
  3
ACAD_PLOTSETTINGS
350
22
  3
ACAD_PLOTSTYLENAME
350
1F
  3
ACAD_WIPEOUT_VARS
350
23
  0
DICTIONARY
  5
1A
102
{ACAD_REACTORS
330
19
102
}
100
AcDbDictionary
280
     0
281
     1
  0
DICTIONARY
  5
1B
102
{ACAD_REACTORS
330
19
102
}
100
AcDbDictionary
280
     0
281
     1
  3
Standard
350
1C
  0
MLINESTYLE
  5
1C
102
{ACAD_REACTORS
330
1B
102
}
100
AcDbMlineStyle
  2
Standard
 70
     0
  3

 62
     0
 51
90.0
 52
90.0
 71
     2
 49
0.5
 62
   256
  6
ByLayer
 49
-0.5
 62
   256
  6
ByLayer
  0
ACDBDICTIONARYWDFLT
  5
1F
102
{ACAD_REACTORS
330
19
102
}
100
AcDbDictionary
281
     1
  3
Normal
350
1D
100
AcDbDictionaryWithDefault
340
1D
  0
ACDBPLACEHOLDER
  5
1D
102
{ACAD_REACTORS
330
1F
102
}
  0
LAYOUT
  5
20
102
{ACAD_REACTORS
330
1E
102
}
100
AcDbPlotSettings
  1

  2

  4

  6

 40
0.0
 41
0.0
 42
0.0
 43
0.0
 44
0.0
 45
0.0
 46
0.0
 47
0.0
 48
0.0
 49
0.0
140
0.0
141
0.0
142
1.0
143
1.0
 70
  1024
 72
     0
 73
     0
 74
     0
  7

 75
     0
147
1.0
148
0.0
149
0.0
100
AcDbLayout
  1
Model
 70
     0
 71
     0
 10
0.0
 20
0.0
 11
0.0
 21
0.0
 12
0.0
 22
0.0
 32
0.0
 14
0.0
 24
0.0
 34
0.0
 15
0.0
 25
0.0
 35
0.0
146
0.0
 13
0.0
 23
0.0
 33
0.0
 16
0.0
 26
0.0
 36
0.0
 17
0.0
 27
0.0
 37
0.0
 76
     0
330
A
331
0
345
0
346
0
  0
LAYOUT
  5
21
102
{ACAD_REACTORS
330
1E
102
}
100
AcDbPlotSettings
  1

  2

  4

  6

 40
0.0
 41
0.0
 42
0.0
 43
0.0
 44
0.0
 45
0.0
 46
0.0
 47
0.0
 48
0.0
 49
0.0
140
0.0
141
0.0
142
1.0
143
1.0
 70
     0
 72
     0
 73
     0
 74
     0
  7

 75
     0
147
1.0
148
0.0
149
0.0
100
AcDbLayout
  1
Layout1
 70
     0
 71
     0
 10
0.0
 20
0.0
 11
0.0
 21
0.0
 12
0.0
 22
0.0
 32
0.0
 14
0.0
 24
0.0
 34
0.0
 15
0.0
 25
0.0
 35
0.0
146
0.0
 13
0.0
 23
0.0
 33
0.0
 16
0.0
 26
0.0
 36
0.0
 17
0.0
 27
0.0
 37
0.0
 76
     0
330
B
331
0
345
0
346
0
  0
DICTIONARY
  5
1E
102
{ACAD_REACTORS
330
19
102
}
100
AcDbDictionary
280
     0
281
     1
  3
Layout1
350
21
  3
Model
350
20
  0
DICTIONARY
  5
22
102
{ACAD_REACTORS
330
19
102
}
100
AcDbDictionary
280
     0
281
     1
  0
WIPEOUTVARIABLES
  5
23
100
AcDbWipeoutVariables
 70
     1
  0
ENDSEC
  0
EOF
