<?xml version="1.0" encoding="utf-8"?>
<!-- Generator: Adobe Illustrator 12.0.0, SVG Export Plug-In . SVG Version: 6.00 Build 51448)  -->
<!DOCTYPE svg PUBLIC "-//W3C//DTD SVG 1.1//EN" "http://www.w3.org/Graphics/SVG/1.1/DTD/svg11.dtd" [
	<!ENTITY ns_svg "http://www.w3.org/2000/svg">
	<!ENTITY ns_xlink "http://www.w3.org/1999/xlink">
]>
<svg  version="1.1" id="Layer_1" xmlns="&ns_svg;" xmlns:xlink="&ns_xlink;" width="202.346" height="174.747"
	 viewBox="0 0 202.346 174.747" overflow="visible" enable-background="new 0 0 202.346 174.747" xml:space="preserve">
<path fill="none" stroke="#000000" stroke-width="0.7087" stroke-linecap="round" stroke-linejoin="round" stroke-miterlimit="500" d="
	M27.325,96.677c5.104,5.5,3.334,28.666-9.666,29.333s-20.001,3.334-16.334,16.334s7.668,20.332,22.334,18.666
	s13.333-7.332,31.333-2.666s21.667,8.334,32.667,14s33.999-0.666,40.666-16s14.666-18.334,26-18.334s47.667-3.332,47.667-25.666
	s-13.667-35.334-9.667-56.667s-2.999-48.333-38.666-53.667S79.658,6.344,63.325,1.677c-16.333-4.667-29.999,5.333-26.666,15
	s18.332,31.333,35.666,29s36.333-4.001,41,6.333s-0.666,20.666,10.667,26s27.999,22.334,10.333,24.334s-36.666-0.333-39.666-7
	S92.325,71.343,78.325,73.01s-15.999,7.334-19.666,11.334s-14.666,6.334-22,1S22.22,91.177,27.325,96.677z"/>
</svg>
