<?xml version="1.0" encoding="utf-8"?>
<!-- Generator: Adobe Illustrator 12.0.0, SVG Export Plug-In . SVG Version: 6.00 Build 51448)  -->
<!DOCTYPE svg PUBLIC "-//W3C//DTD SVG 1.1//EN" "http://www.w3.org/Graphics/SVG/1.1/DTD/svg11.dtd" [
	<!ENTITY ns_svg "http://www.w3.org/2000/svg">
	<!ENTITY ns_xlink "http://www.w3.org/1999/xlink">
]>
<svg  version="1.1" id="Layer_1" xmlns="&ns_svg;" xmlns:xlink="&ns_xlink;" width="240.364" height="192.562"
	 viewBox="0 0 240.364 192.562" overflow="visible" enable-background="new 0 0 240.364 192.562" xml:space="preserve">
<path fill="none" stroke="#000000" d="M134.662,22.682c-16-3.667-32.189-4.474-43.167-8.167c-8.917-3-35.5-16.833-50.5-13.5
	s-23.027,5.44-30.667,15.333c-6.5,8.417-12.4,15.063-8.667,23.667c3.833,8.833,16.188,21.271,28,22.667c10.361,1.225,21-1.667,28-1
	s16,1.5,19,9c2.911,7.277,2,18.042,5,26.333c1.328,3.669,8,10,13.333,12s11.333,2,17.667,1.333s16.333-4.667,20-6
	s6.598-2.641,11.667-1.667c4.771,0.917,9.75,6.417,10.666,13.667c0.509,4.023,0.668,23.333,0.334,29.667s0.666,20.333,4.666,26
	s8.668,13.333,17.334,17s21.999,3,27.666,3s21.334-2,26.667-6s7-6,8-10.667s-1.667-10.333-9-16.333s-42.125-25.167-46-37.333
	c-2.179-6.842-5.617-13.079-4-18.333c3-9.75,8.667-18.333,11-22.667s7.333-20-6-31.667s-30-19-38-22S134.662,22.682,134.662,22.682z
	"/>
</svg>
