<?xml version="1.0" encoding="utf-8"?>
<!-- Generator: Adobe Illustrator 12.0.0, SVG Export Plug-In . SVG Version: 6.00 Build 51448)  -->
<!DOCTYPE svg PUBLIC "-//W3C//DTD SVG 1.1//EN" "http://www.w3.org/Graphics/SVG/1.1/DTD/svg11.dtd" [
	<!ENTITY ns_svg "http://www.w3.org/2000/svg">
	<!ENTITY ns_xlink "http://www.w3.org/1999/xlink">
]>
<svg  version="1.1" id="Layer_1" xmlns="&ns_svg;" xmlns:xlink="&ns_xlink;" width="376.468" height="150.19"
	 viewBox="0 0 376.468 150.19" overflow="visible" enable-background="new 0 0 376.468 150.19" xml:space="preserve">
<path fill="none" stroke="#000000" d="M136.624,100.566c11.193,2.964,41.722,8.163,56.536,13.605
	c14.814,5.442,25.396,12.699,31.745,19.35s20.672,16.817,36.658,16.137c15.986-0.68,20.408-7.483,20.295-16.439
	s0.34-5.782,0.34-5.782s21.881-0.227,28.91,2.494c7.029,2.721,16.213,9.41,24.149,10.09c7.936,0.68,26.529-3.742,29.931-5.329
	c3.401-1.587,10.431-4.648,10.771-10.771c0.34-6.123-7.937-22.789-22.448-30.611s-31.972-13.378-47.051-14.172
	c-15.078-0.793-50.451,1.927-56.12,1.927s-31.518-1.36-40.702-7.369c-9.183-6.009-17.12-15.646-19.16-22.562
	c-2.041-6.916-3.887-11.799-8.163-20.634S159.979,2.157,123.473,0.797C86.966-0.564,50.309,2.913,37.459,7.902
	C24.61,12.89,9.342,21.507,3.9,26.495S0.499,41.007,3.447,45.089c2.948,4.081,5.441,9.372,25.698,11.64
	c20.256,2.268,25.698-0.303,35.373,0.302c9.675,0.605,17.99,4.082,22.373,6.651c4.384,2.57,8.918,4.535,9.221,9.977
	c0.302,5.442,2.116,8.919,6.198,11.791s11.186,7.407,16.477,9.221S125.431,97.603,136.624,100.566z"/>
</svg>
