  0
SECTION
  2
HEADER
  9
$ACADVER
  1
AC1015
  9
$ACADMAINTVER
 70
     6
  9
$DWGCODEPAGE
  3
ANSI_932
  9
$INSBASE
 10
0.0
 20
0.0
 30
0.0
  9
$EXTMIN
 10
41.038666
 20
131.587834
 30
1.000000E+20
  9
$EXTMAX
 10
160.450844
 20
216.557324
 30
-1.000000E+20
  9
$LIMMIN
 10
41.038666
 20
131.587834
  9
$LIMMAX
 10
160.450844
 20
216.557324
  9
$ORTHOMODE
 70
     0
  9
$REGENMODE
 70
     1
  9
$FILLMODE
 70
     1
  9
$QTEXTMODE
 70
     0
  9
$MIRRTEXT
 70
     1
  9
$LTSCALE
 40
1.0
  9
$ATTMODE
 70
     1
  9
$TEXTSIZE
 40
0.2
  9
$TRACEWID
 40
0.05
  9
$TEXTSTYLE
  7
Standard
  9
$CLAYER
  8
0
  9
$CELTYPE
  6
Continuous
  9
$CECOLOR
 62
   256
  9
$CELTSCALE
 40
1.0
  9
$DISPSILH
 70
     0
  9
$DIMSCALE
 40
1.0
  9
$DIMASZ
 40
0.18
  9
$DIMEXO
 40
0.0625
  9
$DIMDLI
 40
0.38
  9
$DIMRND
 40
0.0
  9
$DIMDLE
 40
0.0
  9
$DIMEXE
 40
0.18
  9
$DIMTP
 40
0.0
  9
$DIMTM
 40
0.0
  9
$DIMTXT
 40
0.18
  9
$DIMCEN
 40
0.09
  9
$DIMTSZ
 40
0.0
  9
$DIMTOL
 70
     0
  9
$DIMLIM
 70
     0
  9
$DIMTIH
 70
     1
  9
$DIMTOH
 70
     1
  9
$DIMSE1
 70
     0
  9
$DIMSE2
 70
     0
  9
$DIMTAD
 70
     0
  9
$DIMZIN
 70
     0
  9
$DIMBLK
  1

  9
$DIMASO
 70
     1
  9
$DIMSHO
 70
     1
  9
$DIMPOST
  1

  9
$DIMAPOST
  1

  9
$DIMALT
 70
     0
  9
$DIMALTD
 70
     2
  9
$DIMALTF
 40
25.4
  9
$DIMLFAC
 40
1.0
  9
$DIMTOFL
 70
     0
  9
$DIMTVP
 40
0.0
  9
$DIMTIX
 70
     0
  9
$DIMSOXD
 70
     0
  9
$DIMSAH
 70
     0
  9
$DIMBLK1
  1

  9
$DIMBLK2
  1

  9
$DIMSTYLE
  2
Standard
  9
$DIMCLRD
 70
     0
  9
$DIMCLRE
 70
     0
  9
$DIMCLRT
 70
     0
  9
$DIMTFAC
 40
1.0
  9
$DIMGAP
 40
0.09
  9
$DIMJUST
 70
     0
  9
$DIMSD1
 70
     0
  9
$DIMSD2
 70
     0
  9
$DIMTOLJ
 70
     1
  9
$DIMTZIN
 70
     0
  9
$DIMALTZ
 70
     0
  9
$DIMALTTZ
 70
     0
  9
$DIMUPT
 70
     0
  9
$DIMDEC
 70
     4
  9
$DIMTDEC
 70
     4
  9
$DIMALTU
 70
     2
  9
$DIMALTTD
 70
     2
  9
$DIMTXSTY
  7
Standard
  9
$DIMAUNIT
 70
     0
  9
$DIMADEC
 70
     0
  9
$DIMALTRND
 40
0.0
  9
$DIMAZIN
 70
     0
  9
$DIMDSEP
 70
     0
  9
$DIMATFIT
 70
     3
  9
$DIMFRAC
 70
     0
  9
$DIMLDRBLK
  1

  9
$DIMLUNIT
 70
     2
  9
$DIMLWD
 70
     0
  9
$DIMLWE
 70
     0
  9
$DIMTMOVE
 70
     0
  9
$LUNITS
 70
     2
  9
$LUPREC
 70
     4
  9
$SKETCHINC
 40
0.1
  9
$FILLETRAD
 40
0.0
  9
$AUNITS
 70
     0
  9
$AUPREC
 70
     0
  9
$MENU
  1
acad
  9
$ELEVATION
 40
0.0
  9
$PELEVATION
 40
0.0
  9
$THICKNESS
 40
0.0
  9
$LIMCHECK
 70
     0
  9
$CHAMFERA
 40
0.0
  9
$CHAMFERB
 40
0.0
  9
$CHAMFERC
 40
0.0
  9
$CHAMFERD
 40
0.0
  9
$SKPOLY
 70
     0
  9
$TDCREATE
 40
0.000000000
  9
$TDUCREATE
 40
0.000000000
  9
$TDUPDATE
 40
0.000000000
  9
$TDUUPDATE
 40
0.000000000
  9
$TDINDWG
 40
0.0000000000
  9
$TDUSRTIMER
 40
0.0000000000
  9
$USRTIMER
 70
     1
  9
$ANGBASE
 50
0.0
  9
$ANGDIR
 70
     0
  9
$PDMODE
 70
     0
  9
$PDSIZE
 40
0.0
  9
$PLINEWID
 40
0.0
  9
$SPLFRAME
 70
     0
  9
$SPLINETYPE
 70
     6
  9
$SPLINESEGS
 70
     8
  9
$HANDSEED
  5
2A
  9
$SURFTAB1
 70
     6
  9
$SURFTAB2
 70
     6
  9
$SURFTYPE
 70
     6
  9
$SURFU
 70
     6
  9
$SURFV
 70
     6
  9
$UCSBASE
  2

  9
$UCSNAME
  2

  9
$UCSORG
 10
0.0
 20
0.0
 30
0.0
  9
$UCSXDIR
 10
1.0
 20
0.0
 30
0.0
  9
$UCSYDIR
 10
0.0
 20
1.0
 30
0.0
  9
$UCSORTHOREF
  2

  9
$UCSORTHOVIEW
 70
     0
  9
$UCSORGTOP
 10
0.0
 20
0.0
 30
0.0
  9
$UCSORGBOTTOM
 10
0.0
 20
0.0
 30
0.0
  9
$UCSORGLEFT
 10
0.0
 20
0.0
 30
0.0
  9
$UCSORGRIGHT
 10
0.0
 20
0.0
 30
0.0
  9
$UCSORGFRONT
 10
0.0
 20
0.0
 30
0.0
  9
$UCSORGBACK
 10
0.0
 20
0.0
 30
0.0
  9
$PUCSBASE
  2

  9
$PUCSNAME
  2

  9
$PUCSORG
 10
0.0
 20
0.0
 30
0.0
  9
$PUCSXDIR
 10
1.0
 20
0.0
 30
0.0
  9
$PUCSYDIR
 10
0.0
 20
1.0
 30
0.0
  9
$PUCSORTHOREF
  2

  9
$PUCSORTHOVIEW
 70
     0
  9
$PUCSORGTOP
 10
0.0
 20
0.0
 30
0.0
  9
$PUCSORGBOTTOM
 10
0.0
 20
0.0
 30
0.0
  9
$PUCSORGLEFT
 10
0.0
 20
0.0
 30
0.0
  9
$PUCSORGRIGHT
 10
0.0
 20
0.0
 30
0.0
  9
$PUCSORGFRONT
 10
0.0
 20
0.0
 30
0.0
  9
$PUCSORGBACK
 10
0.0
 20
0.0
 30
0.0
  9
$USERI1
 70
     0
  9
$USERI2
 70
     0
  9
$USERI3
 70
     0
  9
$USERI4
 70
     0
  9
$USERI5
 70
     0
  9
$USERR1
 40
0.0
  9
$USERR2
 40
0.0
  9
$USERR3
 40
0.0
  9
$USERR4
 40
0.0
  9
$USERR5
 40
0.0
  9
$WORLDVIEW
 70
     1
  9
$SHADEDGE
 70
     3
  9
$SHADEDIF
 70
    70
  9
$TILEMODE
 70
     1
  9
$MAXACTVP
 70
    16
  9
$PINSBASE
 10
0.0
 20
0.0
 30
0.0
  9
$PLIMCHECK
 70
     0
  9
$PEXTMIN
 10
1.000000E+20
 20
1.000000E+20
 30
1.000000E+20
  9
$PEXTMAX
 10
-1.000000E+20
 20
-1.000000E+20
 30
-1.000000E+20
  9
$PLIMMIN
 10
0.0
 20
0.0
  9
$PLIMMAX
 10
12.0
 20
9.0
  9
$UNITMODE
 70
     0
  9
$VISRETAIN
 70
     0
  9
$PLINEGEN
 70
     1
  9
$PSLTSCALE
 70
     0
  9
$TREEDEPTH
 70
  3020
  9
$CMLSTYLE
  2
Standard
  9
$CMLJUST
 70
     0
  9
$CMLSCALE
 40
1.0
  9
$PROXYGRAPHICS
 70
     0
  9
$MEASUREMENT
 70
     1
  9
$CELWEIGHT
370
     0
  9
$ENDCAPS
280
     0
  9
$JOINSTYLE
280
     0
  9
$LWDISPLAY
290
     0
  9
$INSUNITS
 70
     0
  9
$HYPERLINKBASE
  1

  9
$STYLESHEET
  1

  9
$XEDIT
290
     1
  9
$CEPSNTYPE
380
     0
  9
$PSTYLEMODE
290
     1
  9
$FINGERPRINTGUID
  2

  9
$VERSIONGUID
  2

  9
$EXTNAMES
290
     1
  9
$PSVPSCALE
 40
0.0
  0
ENDSEC
  0
SECTION
  2
CLASSES
  0
CLASS
  1
LWPOLYLINE
  2
AcDbPolyline
  3
AutoCAD 2000
 90
    32768
280
     0
281
     1
  0
CLASS
  1
IMAGE
  2
AcDbRasterImage
  3
ISM
 90
    32895
280
     0
281
     1
  0
CLASS
  1
OLE2FRAME
  2
AcDbOle2Frame
  3
AutoCAD 2000
 90
    32768
280
     0
281
     1
  0
CLASS
  1
HATCH
  2
AcDbHatch
  3
AutoCAD 2000
 90
    32768
280
     0
281
     1
  0
CLASS
  1
DICTIONARYVAR
  2
AcDbDictionaryVar
  3
AutoCAD 2000
 90
    32768
280
     0
281
     0
  0
CLASS
  1
RASTERVARIABLES
  2
AcDbRasterVariables
  3
ISM
 90
    32768
280
     0
281
     0
  0
CLASS
  1
IMAGEDEF
  2
AcDbRasterImageDef
  3
ISM
 90
    32768
280
     0
281
     0
  0
CLASS
  1
IMAGEDEF_REACTOR
  2
AcDbRasterImageDefReactor
  3
ISM
 90
    32769
280
     0
281
     0
  0
CLASS
  1
IDBUFFER
  2
AcDbIdBuffer
  3
AutoCAD 2000
 90
    32768
280
     0
281
     0
  0
CLASS
  1
SPATIAL_FILTER
  2
AcDbSpatialFilter
  3
AutoCAD 2000
 90
    32768
280
     0
281
     0
  0
CLASS
  1
XRECORD
  2
AcDbXrecord
  3
AutoCAD 2000
 90
    32768
280
     0
281
     0
  0
CLASS
  1
SORTENTSTABLE
  2
AcDbSortentsTable
  3
AutoCAD 2000
 90
    32768
280
     0
281
     0
  0
CLASS
  1
LAYER_INDEX
  2
AcDbLayerIndex
  3
AutoCAD 2000
 90
    32768
280
     0
281
     0
  0
CLASS
  1
SPATIAL_INDEX
  2
AcDbSpatialIndex
  3
AutoCAD 2000
 90
    32768
280
     0
281
     0
  0
CLASS
  1
OBJECT_PTR
  2
CAseDLPNTableRecord
  3
"ASE-LPNTableRecord"
 90
    32769
280
     0
281
     0
  0
CLASS
  1
LAYOUT
  2
AcDbLayout
  3
AutoCAD 2000
 90
        0
280
     0
281
     0
  0
CLASS
  1
PLOTSETTINGS
  2
AcDbPlotSettings
  3
AutoCAD 2000
 90
    32768
280
     0
281
     0
  0
CLASS
  1
ACDBDICTIONARYWDFLT
  2
AcDbDictionaryWithDefault
  3
AutoCAD 2000
 90
        0
280
     0
281
     0
  0
CLASS
  1
ACDBPLACEHOLDER
  2
AcDbPlaceHolder
  3
AutoCAD 2000
 90
        0
280
     0
281
     0
  0
CLASS
  1
VBA_PROJECT
  2
AcDbVbaProject
  3
acadvba
 90
    32768
280
     0
281
     0
  0
CLASS
  1
WIPEOUT
  2
AcDbWipeout
  3
WipeOut|AutoCAD Express Tool|expresstools@autodesk.com
 90
    32895
280
     0
281
     1
  0
CLASS
  1
WIPEOUTVARIABLES
  2
AcDbWipeoutVariables
  3
WipeOut|AutoCAD Express Tool|expresstools@autodesk.com
 90
        0
280
     0
281
     0
  0
CLASS
  1
RTEXT
  2
RText
  3
RText|AutoCAD Express Tool|expresstools@autodesk.com
 90
    32768
280
     0
281
     1
  0
CLASS
  1
ARCALIGNEDTEXT
  2
AcDbArcAlignedText
  3
ATEXT|AutoCAD Express Tool|expresstools@autodesk.com
 90
    32768
280
     0
281
     1
  0
ENDSEC
  0
SECTION
  2
TABLES
  0
TABLE
  2
VPORT
  5
7
100
AcDbSymbolTable
 70
     1
  0
VPORT
  5
15
100
AcDbSymbolTableRecord
100
AcDbViewportTableRecord
  2
*ACTIVE
 70
     0
 10
0.0
 20
0.0
 11
1.0
 21
1.0
 12
6.591288
 22
4.579184
 13
0.0
 23
0.0
 14
1.0
 24
1.0
 15
0.0
 25
0.0
 16
0.0
 26
0.0
 36
1.0
 17
0.0
 27
0.0
 37
0.0
 40
9.158369
 41
0.688564
 42
50.0
 43
0.0
 44
0.0
 50
0.0
 51
0.0
 71
     0
 72
   100
 73
     1
 74
     1
 75
     0
 76
     0
 77
     0
 78
     0
281
     0
 65
     0
110
0.0
120
0.0
130
0.0
111
1.0
121
0.0
131
0.0
112
0.0
122
1.0
132
0.0
345
0
346
0
 79
     0
146
0.0
  0
ENDTAB
  0
TABLE
  2
LTYPE
  5
4
100
AcDbSymbolTable
 70
     3
  0
LTYPE
  5
11
100
AcDbSymbolTableRecord
100
AcDbLinetypeTableRecord
  2
ByBlock
 70
    64
  3

 72
    65
 73
     0
 40
0.0
  0
LTYPE
  5
12
100
AcDbSymbolTableRecord
100
AcDbLinetypeTableRecord
  2
ByLayer
 70
    64
  3

 72
    65
 73
     0
 40
0.0
  0
LTYPE
  5
13
100
AcDbSymbolTableRecord
100
AcDbLinetypeTableRecord
  2
Continuous
 70
    64
  3
Solid line
 72
    65
 73
     0
 40
0.0
  0
ENDTAB
  0
TABLE
  2
LAYER
  5
2
100
AcDbSymbolTable
 70
     2
  0
LAYER
  5
14
100
AcDbSymbolTableRecord
100
AcDbLayerTableRecord
  2
0
 70
     0
 62
     7
  6
Continuous
290
     1
370
    -3
390
1D
  0
LAYER
  5
28
100
AcDbSymbolTableRecord
100
AcDbLayerTableRecord
  2
LAYER_1
 70
     0
 62
   160
  6
Continuous
290
     1
370
    -3
390
1D
  0
ENDTAB
  0
TABLE
  2
STYLE
  5
3
100
AcDbSymbolTable
 70
     5
  0
STYLE
  5
17
100
AcDbSymbolTableRecord
100
AcDbTextStyleTableRecord
  2
Standard
 70
     0
 40
0.0
 41
1.0
 50
0.0
 71
     0
 42
0.0
  3
txt
  4

  0
STYLE
  5
24
100
AcDbSymbolTableRecord
100
AcDbTextStyleTableRecord
  2
STD
 70
     0
 40
0.0
 41
1.0
 50
0.0
 71
     0
 42
0.0
  3
txt
  4

  0
STYLE
  5
25
100
AcDbSymbolTableRecord
100
AcDbTextStyleTableRecord
  2
TATESTD
 70
     4
 40
0.0
 41
1.0
 50
0.0
 71
     0
 42
0.0
  3
txt
  4

  0
STYLE
  5
26
100
AcDbSymbolTableRecord
100
AcDbTextStyleTableRecord
  2
KANJISTD
 70
     0
 40
0.0
 41
1.0
 50
0.0
 71
     0
 42
0.0
  3
txt
  4
extfont
  0
STYLE
  5
27
100
AcDbSymbolTableRecord
100
AcDbTextStyleTableRecord
  2
KANJITATE
 70
     4
 40
0.0
 41
1.0
 50
0.0
 71
     0
 42
0.0
  3
txt
  4
extfont
  0
ENDTAB
  0
TABLE
  2
VIEW
  5
5
100
AcDbSymbolTable
 70
     0
  0
ENDTAB
  0
TABLE
  2
UCS
  5
6
100
AcDbSymbolTable
 70
     0
  0
ENDTAB
  0
TABLE
  2
APPID
  5
8
100
AcDbSymbolTable
 70
     1
  0
APPID
  5
16
100
AcDbSymbolTableRecord
100
AcDbRegAppTableRecord
  2
ACAD
 70
     0
  0
ENDTAB
  0
TABLE
  2
DIMSTYLE
  5
9
100
AcDbSymbolTable
 70
     1
100
AcDbDimStyleTable
 71
     0
  0
DIMSTYLE
105
18
100
AcDbSymbolTableRecord
100
AcDbDimStyleTableRecord
  2
Standard
 70
     0
  3

  4

 40
1.0
 41
0.18
 42
0.0625
 43
0.38
 44
0.18
 45
0.0
 46
0.0
 47
0.0
 48
0.0
 71
     0
 72
     0
 73
     1
 74
     1
 75
     0
 76
     0
 77
     0
 78
     0
 79
     0
140
0.18
141
0.09
142
0.0
143
25.4
144
1.0
145
0.0
146
1.0
147
0.09
148
0.0
170
     0
171
     2
172
     0
173
     0
174
     0
175
     0
176
     0
177
     0
178
     0
179
     0
271
     4
272
     4
273
     2
274
     2
275
     0
276
     0
277
     2
278
    46
279
     0
280
     0
281
     0
282
     0
283
     1
284
     0
285
     0
286
     0
288
     0
340
17
341
0
342
0
343
0
344
0
371
    -2
372
    -2
  0
ENDTAB
  0
TABLE
  2
BLOCK_RECORD
  5
1
100
AcDbSymbolTable
 70
     0
  0
BLOCK_RECORD
  5
A
100
AcDbSymbolTableRecord
100
AcDbBlockTableRecord
  2
*MODEL_SPACE
340
20
  0
BLOCK_RECORD
  5
B
100
AcDbSymbolTableRecord
100
AcDbBlockTableRecord
  2
*PAPER_SPACE
340
21
  0
ENDTAB
  0
ENDSEC
  0
SECTION
  2
BLOCKS
  0
BLOCK
  5
D
100
AcDbEntity
  8
0
100
AcDbBlockBegin
  2
*MODEL_SPACE
 70
     0
 10
0.0
 20
0.0
 30
0.0
  3
*MODEL_SPACE
  1

  0
ENDBLK
  5
E
100
AcDbEntity
  8
0
100
AcDbBlockEnd
  0
BLOCK
  5
F
100
AcDbEntity
 67
     1
  8
0
100
AcDbBlockBegin
  2
*PAPER_SPACE
 70
     0
 10
0.0
 20
0.0
 30
0.0
  3
*PAPER_SPACE
  1

  0
ENDBLK
  5
10
100
AcDbEntity
 67
     1
  8
0
100
AcDbBlockEnd
  0
ENDSEC
  0
SECTION
  2
ENTITIES
  0
SPLINE
  5
29
100
AcDbEntity
  8
LAYER_1
 62
     7
100
AcDbSpline
210
0.0
220
0.0
230
1.0
 70
     8
 71
     3
 72
   185
 73
   181
 74
     0
 42
0.00000001
 43
0.00000001
 40
0.0
 40
0.0
 40
0.0
 40
0.0
 40
1.0
 40
1.0
 40
1.0
 40
2.0
 40
2.0
 40
2.0
 40
3.0
 40
3.0
 40
3.0
 40
4.0
 40
4.0
 40
4.0
 40
5.0
 40
5.0
 40
5.0
 40
6.0
 40
6.0
 40
6.0
 40
7.0
 40
7.0
 40
7.0
 40
8.0
 40
8.0
 40
8.0
 40
9.0
 40
9.0
 40
9.0
 40
10.0
 40
10.0
 40
10.0
 40
11.0
 40
11.0
 40
11.0
 40
12.0
 40
12.0
 40
12.0
 40
13.0
 40
13.0
 40
13.0
 40
14.0
 40
14.0
 40
14.0
 40
15.0
 40
15.0
 40
15.0
 40
16.0
 40
16.0
 40
16.0
 40
17.0
 40
17.0
 40
17.0
 40
18.0
 40
18.0
 40
18.0
 40
19.0
 40
19.0
 40
19.0
 40
20.0
 40
20.0
 40
20.0
 40
21.0
 40
21.0
 40
21.0
 40
22.0
 40
22.0
 40
22.0
 40
23.0
 40
23.0
 40
23.0
 40
24.0
 40
24.0
 40
24.0
 40
25.0
 40
25.0
 40
25.0
 40
26.0
 40
26.0
 40
26.0
 40
27.0
 40
27.0
 40
27.0
 40
28.0
 40
28.0
 40
28.0
 40
29.0
 40
29.0
 40
29.0
 40
30.0
 40
30.0
 40
30.0
 40
31.0
 40
31.0
 40
31.0
 40
32.0
 40
32.0
 40
32.0
 40
33.0
 40
33.0
 40
33.0
 40
34.0
 40
34.0
 40
34.0
 40
35.0
 40
35.0
 40
35.0
 40
36.0
 40
36.0
 40
36.0
 40
37.0
 40
37.0
 40
37.0
 40
38.0
 40
38.0
 40
38.0
 40
39.0
 40
39.0
 40
39.0
 40
40.0
 40
40.0
 40
40.0
 40
41.0
 40
41.0
 40
41.0
 40
42.0
 40
42.0
 40
42.0
 40
43.0
 40
43.0
 40
43.0
 40
44.0
 40
44.0
 40
44.0
 40
45.0
 40
45.0
 40
45.0
 40
46.0
 40
46.0
 40
46.0
 40
47.0
 40
47.0
 40
47.0
 40
48.0
 40
48.0
 40
48.0
 40
49.0
 40
49.0
 40
49.0
 40
50.0
 40
50.0
 40
50.0
 40
51.0
 40
51.0
 40
51.0
 40
52.0
 40
52.0
 40
52.0
 40
53.0
 40
53.0
 40
53.0
 40
54.0
 40
54.0
 40
54.0
 40
55.0
 40
55.0
 40
55.0
 40
56.0
 40
56.0
 40
56.0
 40
57.0
 40
57.0
 40
57.0
 40
58.0
 40
58.0
 40
58.0
 40
59.0
 40
59.0
 40
59.0
 40
60.0
 40
60.0
 40
60.0
 40
60.0
 10
41.30807291666666
 20
132.19761555989581
 30
0.0
 10
41.30807291666666
 20
132.19761555989581
 30
0.0
 10
42.024652777777774
 20
131.80418565538193
 30
0.0
 10
42.024652777777774
 20
131.80418565538193
 30
0.0
 10
42.024652777777774
 20
131.80418565538193
 30
0.0
 10
46.779745822482631
 20
136.26558430989581
 30
0.0
 10
46.779745822482631
 20
136.26558430989581
 30
0.0
 10
48.720023600260411
 20
135.82461208767359
 30
0.0
 10
51.064583333333331
 20
134.01662597656249
 30
0.0
 10
53.357638888888886
 20
133.75204264322915
 30
0.0
 10
55.65069444444444
 20
133.48745930989583
 30
0.0
 10
62.61805555555555
 20
135.69232042100694
 30
0.0
 10
65.175694444444431
 20
136.48607042100693
 30
0.0
 10
67.73333333333332
 20
137.27982042100695
 30
0.0
 10
69.58541666666666
 20
138.16176486545137
 30
0.0
 10
70.026388888888889
 20
139.30829264322915
 30
0.0
 10
70.467361111111103
 20
140.45482042100693
 30
0.0
 10
69.761805555555554
 20
141.95412597656249
 30
0.0
 10
71.52569444444444
 20
143.10065375434027
 30
0.0
 10
73.289583333333326
 20
144.24718153211805
 30
0.0
 10
77.258333333333326
 20
144.86454264322916
 30
0.0
 10
78.669444444444437
 20
144.59995930989581
 30
0.0
 10
80.080555555555549
 20
144.33537597656249
 30
0.0
 10
82.638194444444437
 20
144.15898708767361
 30
0.0
 10
82.990972222222211
 20
144.42357042100693
 30
0.0
 10
83.343749999999986
 20
144.68815375434028
 30
0.0
 10
81.5798611111111
 20
147.06940375434027
 30
0.0
 10
80.433333333333323
 20
147.77495930989582
 30
0.0
 10
79.286805555555546
 20
148.48051486545137
 30
0.0
 10
79.176562499999989
 20
149.03173014322914
 30
0.0
 10
80.036458333333329
 20
149.4947509765625
 30
0.0
 10
80.896354166666654
 20
149.95777180989583
 30
0.0
 10
81.844444444444434
 20
149.84752875434026
 30
0.0
 10
85.59270833333332
 20
147.77495930989582
 30
0.0
 10
89.34097222222222
 20
145.70238986545138
 30
0.0
 10
88.194444444444443
 20
145.5260009765625
 30
0.0
 10
90.487499999999997
 20
144.99683430989583
 30
0.0
 10
92.780555555555551
 20
144.46766764322916
 30
0.0
 10
95.497185601128464
 20
143.22398817274305
 30
0.0
 10
96.890554470486109
 20
142.50086263020833
 30
0.0
 10
98.283923339843739
 20
141.77773708767359
 30
0.0
 10
108.47916666666666
 20
138.77912597656248
 30
0.0
 10
112.80069444444443
 20
140.71940375434028
 30
0.0
 10
117.12222222222221
 20
142.65968153211804
 30
0.0
 10
118.18055555555554
 20
148.83329264322916
 30
0.0
 10
118.18055555555554
 20
150.15620930989581
 30
0.0
 10
118.18055555555554
 20
151.4791259765625
 30
0.0
 10
117.21041666666666
 20
155.62426486545138
 30
0.0
 10
116.72534722222221
 20
156.37391764322916
 30
0.0
 10
116.24027777777776
 20
157.12357042100692
 30
0.0
 10
115.97569444444443
 20
158.53468153211804
 30
0.0
 10
117.82777777777777
 20
158.35829264322916
 30
0.0
 10
119.67986111111109
 20
158.18190375434025
 30
0.0
 10
129.38124999999999
 20
157.07947319878471
 30
0.0
 10
132.3798611111111
 20
157.29995930989583
 30
0.0
 10
135.3784722222222
 20
157.52044542100694
 30
0.0
 10
141.46388888888887
 20
158.75516764322916
 30
0.0
 10
143.62465277777775
 20
159.50482042100694
 30
0.0
 10
145.78541666666666
 20
160.25447319878469
 30
0.0
 10
152.48819444444442
 20
163.25308430989583
 30
0.0
 10
153.2378472222222
 20
164.75238986545136
 30
0.0
 10
153.98749999999998
 20
166.25169542100693
 30
0.0
 10
154.91354166666665
 20
170.13225097656249
 30
0.0
 10
153.63472222222219
 20
171.58745930989582
 30
0.0
 10
152.35590277777777
 20
173.04266764322915
 30
0.0
 10
148.828125
 20
174.85065375434027
 30
0.0
 10
147.41701388888887
 20
175.29162597656247
 30
0.0
 10
146.00590277777778
 20
175.7325981987847
 30
0.0
 10
144.41840277777777
 20
177.05551486545139
 30
0.0
 10
144.37430555555554
 20
177.67287597656249
 30
0.0
 10
144.33020833333333
 20
178.2902370876736
 30
0.0
 10
144.859375
 20
180.18641764322916
 30
0.0
 10
149.40138888888887
 20
181.28884819878471
 30
0.0
 10
153.94340277777778
 20
182.39127875434025
 30
0.0
 10
156.76562499999997
 20
185.43398708767359
 30
0.0
 10
157.69166666666666
 20
186.31593153211804
 30
0.0
 10
158.61770833333333
 20
187.19787597656247
 30
0.0
 10
160.51388888888889
 20
189.53502875434026
 30
0.0
 10
160.24930555555554
 20
191.56350097656249
 30
0.0
 10
159.98472222222222
 20
193.5919731987847
 30
0.0
 10
158.08854166666666
 20
194.78259819878471
 30
0.0
 10
156.72152777777777
 20
195.53225097656249
 30
0.0
 10
155.35451388888887
 20
196.28190375434025
 30
0.0
 10
155.06788194444442
 20
196.43624403211803
 30
0.0
 10
155.24427083333333
 20
197.64891764322914
 30
0.0
 10
155.42065972222221
 20
198.86159125434025
 30
0.0
 10
156.78043891059028
 20
201.92634819878469
 30
0.0
 10
154.60486111111109
 20
203.74897596571179
 30
0.0
 10
152.42928331163193
 20
205.57160373263886
 30
0.0
 10
150.98923339843748
 20
206.83560926649304
 30
0.0
 10
149.54849446614583
 20
207.24729817708331
 30
0.0
 10
148.10775553385415
 20
207.65898708767358
 30
0.0
 10
146.75521104600693
 20
207.80592041015623
 30
0.0
 10
146.34386664496526
 20
208.86425374348957
 30
0.0
 10
145.93252224392359
 20
209.92258707682291
 30
0.0
 10
145.5793999565972
 20
211.74521484374998
 30
0.0
 10
143.16886664496528
 20
211.92160373263886
 30
0.0
 10
140.75833333333333
 20
212.09799262152777
 30
0.0
 10
137.46585557725695
 20
210.92200927734373
 30
0.0
 10
136.61319444444445
 20
210.42229817708332
 30
0.0
 10
135.76053331163195
 20
209.92258707682291
 30
0.0
 10
134.70254448784721
 20
208.86408148871527
 30
0.0
 10
133.32071668836804
 20
209.36396484374998
 30
0.0
 10
131.93888888888887
 20
209.86384819878469
 30
0.0
 10
131.4093777126736
 20
211.62773708767358
 30
0.0
 10
131.08622775607637
 20
212.3038370768229
 30
0.0
 10
130.76307779947916
 20
212.97993706597219
 30
0.0
 10
129.79293891059027
 20
214.59706488715275
 30
0.0
 10
127.70555555555555
 20
215.06732042100691
 30
0.0
 10
125.61817220052082
 20
215.5375759548611
 30
0.0
 10
120.50323893229165
 20
214.53815375434027
 30
0.0
 10
118.1512722439236
 20
212.3038370768229
 30
0.0
 10
115.79930555555555
 20
210.06952039930553
 30
0.0
 10
114.65312228732638
 20
208.83479817708331
 30
0.0
 10
113.82974446614583
 20
207.364948187934
 30
0.0
 10
113.00636664496527
 20
205.89509819878469
 30
0.0
 10
111.97766113281249
 20
202.07328152126735
 30
0.0
 10
110.86041666666665
 20
202.16147596571179
 30
0.0
 10
109.74317220052082
 20
202.24967041015623
 30
0.0
 10
108.12673339843749
 20
203.13161485460068
 30
0.0
 10
107.12696668836804
 20
204.89550374348957
 30
0.0
 10
106.12719997829861
 20
206.65939263237846
 30
0.0
 10
103.06984998914929
 20
212.33329264322916
 30
0.0
 10
102.30555555555554
 20
213.36217041015624
 30
0.0
 10
101.5412611219618
 20
214.39104817708332
 30
0.0
 10
100.24762776692707
 20
217.00742594401041
 30
0.0
 10
97.601794433593739
 20
216.24313151041665
 30
0.0
 10
94.95596110026041
 20
215.47883707682288
 30
0.0
 10
87.57708333333332
 20
208.54093153211804
 30
0.0
 10
85.284027777777766
 20
201.30898708767359
 30
0.0
 10
82.990972222222211
 20
194.07704264322916
 30
0.0
 10
82.109027777777769
 20
193.01870930989583
 30
0.0
 10
81.138888888888886
 20
188.78537597656248
 30
0.0
 10
80.168749999999989
 20
184.55204264322916
 30
0.0
 10
79.529340277777777
 20
180.89197319878471
 30
0.0
 10
78.250520833333326
 20
181.00221625434025
 30
0.0
 10
76.971701388888889
 20
181.11245930989583
 30
0.0
 10
75.891319444444434
 20
185.25759819878471
 30
0.0
 10
74.127430555555549
 20
186.99943847656249
 30
0.0
 10
72.363541666666663
 20
188.74127875434027
 30
0.0
 10
68.990104166666654
 20
191.07843153211803
 30
0.0
 10
66.013541666666654
 20
190.6374593098958
 30
0.0
 10
63.036979166666661
 20
190.1964870876736
 30
0.0
 10
59.766550021701384
 20
187.46245930989582
 30
0.0
 10
58.766955566406246
 20
185.34579264322915
 30
0.0
 10
57.767361111111107
 20
183.22912597656247
 30
0.0
 10
56.914872233072913
 20
183.37605929904512
 30
0.0
 10
57.003066677517353
 20
181.28884819878471
 30
0.0
 10
57.0912611219618
 20
179.20163709852429
 30
0.0
 10
58.590566677517359
 20
173.5864759657118
 30
0.0
 10
59.296122233072914
 20
170.97009819878471
 30
0.0
 10
60.00167778862847
 20
168.35372043185762
 30
0.0
 10
61.001099989149303
 20
165.61969265407984
 30
0.0
 10
61.030555555555551
 20
164.38497043185762
 30
0.0
 10
61.0600111219618
 20
163.15024820963541
 30
0.0
 10
61.500983344184021
 20
161.73913709852428
 30
0.0
 10
60.883622233072913
 20
161.38635932074652
 30
0.0
 10
60.266261121961797
 20
161.03358154296873
 30
0.0
 10
58.766955566406246
 20
163.32646484374999
 30
0.0
 10
57.0912611219618
 20
163.79689263237844
 30
0.0
 10
55.415566677517354
 20
164.26732042100693
 30
0.0
 10
51.770138888888887
 20
164.91413709852429
 30
0.0
 10
50.62361111111111
 20
163.06205376519097
 30
0.0
 10
49.477083333333326
 20
161.20997043185761
 30
0.0
 10
47.419155544704857
 20
158.74035373263888
 30
0.0
 10
47.360416666666666
 20
157.00592041015622
 30
0.0
 10
47.301677788628467
 20
155.27148708767359
 30
0.0
 10
48.624594455295131
 20
149.03930935329859
 30
0.0
 10
48.68333333333333
 20
147.12831488715275
 30
0.0
 10
48.742072211371521
 20
145.21732042100692
 30
0.0
 10
48.771355523003464
 20
141.98340928819442
 30
0.0
 10
47.683738878038191
 20
141.10146484374999
 30
0.0
 10
46.596122233072911
 20
140.21952039930554
 30
0.0
 10
45.596700032552079
 20
140.48410373263889
 30
0.0
 10
45.09681667751736
 20
139.60215928819443
 30
0.0
 10
44.596933322482634
 20
138.72021484375
 30
0.0
 10
44.596933322482634
 20
137.83827039930554
 30
0.0
 10
45.214294433593743
 20
137.19162597656248
 30
0.0
 10
45.27510036892361
 20
137.12789171006943
 30
0.0
 10
41.30807291666666
 20
132.19761555989581
 30
0.0
 10
41.30807291666666
 20
132.19761555989581
 30
0.0
  0
ENDSEC
  0
SECTION
  2
OBJECTS
  0
DICTIONARY
  5
19
100
AcDbDictionary
280
     0
281
     1
  3
ACAD_GROUP
350
1A
  3
ACAD_MLINESTYLE
350
1B
  3
ACAD_LAYOUT
350
1E
  3
ACAD_PLOTSETTINGS
350
22
  3
ACAD_PLOTSTYLENAME
350
1F
  3
ACAD_WIPEOUT_VARS
350
23
  0
DICTIONARY
  5
1A
102
{ACAD_REACTORS
330
19
102
}
100
AcDbDictionary
280
     0
281
     1
  0
DICTIONARY
  5
1B
102
{ACAD_REACTORS
330
19
102
}
100
AcDbDictionary
280
     0
281
     1
  3
Standard
350
1C
  0
MLINESTYLE
  5
1C
102
{ACAD_REACTORS
330
1B
102
}
100
AcDbMlineStyle
  2
Standard
 70
     0
  3

 62
     0
 51
90.0
 52
90.0
 71
     2
 49
0.5
 62
   256
  6
ByLayer
 49
-0.5
 62
   256
  6
ByLayer
  0
ACDBDICTIONARYWDFLT
  5
1F
102
{ACAD_REACTORS
330
19
102
}
100
AcDbDictionary
281
     1
  3
Normal
350
1D
100
AcDbDictionaryWithDefault
340
1D
  0
ACDBPLACEHOLDER
  5
1D
102
{ACAD_REACTORS
330
1F
102
}
  0
LAYOUT
  5
20
102
{ACAD_REACTORS
330
1E
102
}
100
AcDbPlotSettings
  1

  2

  4

  6

 40
0.0
 41
0.0
 42
0.0
 43
0.0
 44
0.0
 45
0.0
 46
0.0
 47
0.0
 48
0.0
 49
0.0
140
0.0
141
0.0
142
1.0
143
1.0
 70
  1024
 72
     0
 73
     0
 74
     0
  7

 75
     0
147
1.0
148
0.0
149
0.0
100
AcDbLayout
  1
Model
 70
     0
 71
     0
 10
0.0
 20
0.0
 11
0.0
 21
0.0
 12
0.0
 22
0.0
 32
0.0
 14
0.0
 24
0.0
 34
0.0
 15
0.0
 25
0.0
 35
0.0
146
0.0
 13
0.0
 23
0.0
 33
0.0
 16
0.0
 26
0.0
 36
0.0
 17
0.0
 27
0.0
 37
0.0
 76
     0
330
A
331
0
345
0
346
0
  0
LAYOUT
  5
21
102
{ACAD_REACTORS
330
1E
102
}
100
AcDbPlotSettings
  1

  2

  4

  6

 40
0.0
 41
0.0
 42
0.0
 43
0.0
 44
0.0
 45
0.0
 46
0.0
 47
0.0
 48
0.0
 49
0.0
140
0.0
141
0.0
142
1.0
143
1.0
 70
     0
 72
     0
 73
     0
 74
     0
  7

 75
     0
147
1.0
148
0.0
149
0.0
100
AcDbLayout
  1
Layout1
 70
     0
 71
     0
 10
0.0
 20
0.0
 11
0.0
 21
0.0
 12
0.0
 22
0.0
 32
0.0
 14
0.0
 24
0.0
 34
0.0
 15
0.0
 25
0.0
 35
0.0
146
0.0
 13
0.0
 23
0.0
 33
0.0
 16
0.0
 26
0.0
 36
0.0
 17
0.0
 27
0.0
 37
0.0
 76
     0
330
B
331
0
345
0
346
0
  0
DICTIONARY
  5
1E
102
{ACAD_REACTORS
330
19
102
}
100
AcDbDictionary
280
     0
281
     1
  3
Layout1
350
21
  3
Model
350
20
  0
DICTIONARY
  5
22
102
{ACAD_REACTORS
330
19
102
}
100
AcDbDictionary
280
     0
281
     1
  0
WIPEOUTVARIABLES
  5
23
100
AcDbWipeoutVariables
 70
     1
  0
ENDSEC
  0
EOF
