<?xml version="1.0" encoding="utf-8"?>
<!-- Generator: Adobe Illustrator 12.0.0, SVG Export Plug-In . SVG Version: 6.00 Build 51448)  -->
<!DOCTYPE svg PUBLIC "-//W3C//DTD SVG 1.1//EN" "http://www.w3.org/Graphics/SVG/1.1/DTD/svg11.dtd" [
	<!ENTITY ns_svg "http://www.w3.org/2000/svg">
	<!ENTITY ns_xlink "http://www.w3.org/1999/xlink">
]>
<svg  version="1.1" id="Layer_1" xmlns="&ns_svg;" xmlns:xlink="&ns_xlink;" width="362.058" height="183.694"
	 viewBox="0 0 362.058 183.694" overflow="visible" enable-background="new 0 0 362.058 183.694" xml:space="preserve">
<path fill="none" stroke="#000000" d="M199.558,2.878c0,0-63,10-83.5,39.5s-17.5,53-31.5,58.5s-28,0-44.5-5.5s-35-4-37.5,6
	s-8,50,22.5,51s72.5,1.5,84-6.5s27.5-14,39.5-6s7.5,24,15.5,31s21.5-2.5,32-1s32.5,17,49,12.5s16-19.5,12-34.5s2-19.5,18-18
	s62.5,7,69.5,3s17-14.5,17-22.5s-4.5-27-23-32s-60.5-11.5-63-21s8.5-21.5,14.5-32s3-18.5-22.5-23S199.558,2.878,199.558,2.878z"/>
</svg>
