<?xml version="1.0" encoding="utf-8"?>
<!-- Generator: Adobe Illustrator 12.0.0, SVG Export Plug-In . SVG Version: 6.00 Build 51448)  -->
<!DOCTYPE svg PUBLIC "-//W3C//DTD SVG 1.1//EN" "http://www.w3.org/Graphics/SVG/1.1/DTD/svg11.dtd" [
	<!ENTITY ns_svg "http://www.w3.org/2000/svg">
	<!ENTITY ns_xlink "http://www.w3.org/1999/xlink">
]>
<svg  version="1.1" id="Layer_1" xmlns="&ns_svg;" xmlns:xlink="&ns_xlink;" width="99.784" height="168.289"
	 viewBox="0 0 99.784 168.289" overflow="visible" enable-background="new 0 0 99.784 168.289" xml:space="preserve">
<path fill="none" stroke="#000000" stroke-width="0.7087" stroke-linecap="round" stroke-linejoin="round" stroke-miterlimit="500" d="
	M54.858,39.19c0.044,4.737,1.729,9.296-3.463,16.028c-5.192,6.731-9.938,12.112-18.137,11.942
	c-8.199-0.171-21.806-4.255-27.517,2.061c-5.712,6.314-8.3,13-0.534,23.295c7.765,10.295,14.078,17.072,14.273,24.283
	c0.196,7.211,0.053,15.644,12.359,17.617c12.309,1.974,18.419,5.811,22.757,10.789c4.339,4.979,9.42,16.753,19.174,21.377
	c9.753,4.624,17.522-3.458,18.422-11.499c0.898-8.042-9.506-12.12-9.154-19.746s-0.766-9.163,3.72-13.685
	c4.484-4.521-1.42-7.552-5.448-10.786c-4.028-3.233-6.776-9.929-2.762-13.331c4.014-3.403,5.102,0.034,10.981,1.763
	c5.879,1.729,9.76,0.355,9.896-3.81c0.138-4.164-3.938-11.068-9.012-11.937c-5.073-0.867-16.762-0.419-17.893-8.594
	c-1.131-8.176-0.812-11.767,2.685-16.654c3.495-4.888,6.441-7.226,6.838-11.181c0.396-3.956-4.256-7.479-3.41-14.921
	s4.863-12.979,6.692-16.854c1.829-3.876,3.914-20.583-7.239-13.08c-11.154,7.504-13.603,8.957-18.381,17.304
	C54.93,27.92,54.814,34.453,54.858,39.19z"/>
</svg>
