<?xml version="1.0" encoding="utf-8"?>
<!-- Generator: Adobe Illustrator 12.0.0, SVG Export Plug-In . SVG Version: 6.00 Build 51448)  -->
<!DOCTYPE svg PUBLIC "-//W3C//DTD SVG 1.1//EN" "http://www.w3.org/Graphics/SVG/1.1/DTD/svg11.dtd" [
	<!ENTITY ns_svg "http://www.w3.org/2000/svg">
	<!ENTITY ns_xlink "http://www.w3.org/1999/xlink">
]>
<svg  version="1.1" id="Layer_1" xmlns="&ns_svg;" xmlns:xlink="&ns_xlink;" width="126.845" height="53.981"
	 viewBox="0 0 126.845 53.981" overflow="visible" enable-background="new 0 0 126.845 53.981" xml:space="preserve">
<path fill="none" stroke="#000000" stroke-width="0.7087" stroke-linecap="round" stroke-linejoin="round" stroke-miterlimit="500" d="
	M102.253,26.443c-1.548-1.616-19.184-14.431-23.604-18.03S65.686-0.878,56.818,0.592c-8.869,1.47-14.793,5.505-18.903,10.414
	c-4.11,4.91-5.122,5.389-13.615,5.032c-8.494-0.356-11.238-4.419-15.822-0.688c-4.585,3.733-7.918,3.659-8.118,12.656
	c-0.201,8.998,6.36,21.313,14.469,23.995c8.11,2.682,28.968,1.813,41.198-0.915c12.23-2.729,34.751-3.393,45.74-2.814
	c10.99,0.578,16.044-1.811,20.236-2.884c4.191-1.073,7.521-8.334,0.06-10.167c-7.461-1.834-8.517,0.643-13.271-2.964
	S103.801,28.063,102.253,26.443z"/>
</svg>
