<?xml version="1.0" encoding="utf-8"?>
<!-- Generator: Adobe Illustrator 12.0.0, SVG Export Plug-In . SVG Version: 6.00 Build 51448)  -->
<!DOCTYPE svg PUBLIC "-//W3C//DTD SVG 1.1//EN" "http://www.w3.org/Graphics/SVG/1.1/DTD/svg11.dtd" [
	<!ENTITY ns_svg "http://www.w3.org/2000/svg">
	<!ENTITY ns_xlink "http://www.w3.org/1999/xlink">
]>
<svg  version="1.1" id="Layer_1" xmlns="&ns_svg;" xmlns:xlink="&ns_xlink;" width="270.843" height="275.264"
	 viewBox="0 0 270.843 275.264" overflow="visible" enable-background="new 0 0 270.843 275.264" xml:space="preserve">
<path fill="none" stroke="#000000" d="M192.565,100.528c3.104-4.636,21-25,19-46s-17.333-35.668-27-42.334s-29-13.333-43-11.333
	s-28.334,10.333-41.334,11.333s-37.333-5-48.333-5s-22.334,3.668-29.667,10.334S7.732,35.611,4.815,41.111
	s-8.25,20.751,0.417,27.167s24.667,7.832,34.917,2.666s25.167-13.749,31.167-16.666s17.333-8.418,24.417-8.834s11.5,2,14.417,5.417
	s6.833,8.166,8.417,11.333s1.666,9.75,5.75,12.167s8.333,2.499,11.5,2.583s7.75,0.916,10,4.25s4,6.418,3.917,11.584
	s-4.501,15.083-9.167,20.833s-10.25,11.749-14.333,17.333s-6.625,17.292-6.5,27.542s5,26.5,8.875,32.25s10.75,13.125,16,16
	s14.25,3.875,19.875,3.375s12.625-0.375,15.875,2.75s10.375,11.75,14.75,22.5s9.375,22.125,16,28.25s11.625,10.625,21.125,11.125
	s19-5.625,23.625-10.75s13.625-13.375,14.375-22.125s-2.25-20.875-10.375-29s-23-20.5-34.5-26.125s-34.375-19.875-38.5-30.5
	s-9.125-27.25-2.625-39.375S189.462,105.164,192.565,100.528z"/>
</svg>
