<?xml version="1.0" encoding="utf-8"?>
<!-- Generator: Adobe Illustrator 12.0.0, SVG Export Plug-In . SVG Version: 6.00 Build 51448)  -->
<!DOCTYPE svg PUBLIC "-//W3C//DTD SVG 1.1//EN" "http://www.w3.org/Graphics/SVG/1.1/DTD/svg11.dtd" [
	<!ENTITY ns_svg "http://www.w3.org/2000/svg">
	<!ENTITY ns_xlink "http://www.w3.org/1999/xlink">
]>
<svg  version="1.1" id="Layer_1" xmlns="&ns_svg;" xmlns:xlink="&ns_xlink;" width="131.63" height="186.606"
	 viewBox="0 0 131.63 186.606" overflow="visible" enable-background="new 0 0 131.63 186.606" xml:space="preserve">
<path fill="none" stroke="#000000" d="M36.515,1.381c-22.667,4.667-19.333,30-15.333,38s1.333,20.666-1.333,26
	s-4.667,16.001,0,19.334s4.5,16.666-3.5,23.666s-19,22.5-15,33s7.5,20,7.5,25.5s7,16,12.5,18.5s20.5-1.5,20.5-11.5
	s-4-14.5-10.5-23.5s-9-11-5-16s9.5-5.5,13-2.5c5.5,5.084,13.583,22.334,13.833,24.584s8.166,11.476,15.333,14.583
	s30.91,6.971,39.333,1.333s14.334-15,14.334-26.333s3.88-16.429,8-20.333c3.166-3-2.167-10.167-7.667-13.167
	s-23.333,2.501-26.667,9.334s1,15.334,3.167,16s2.333,5.332,1,6.166s-17,5.834-15.833-5.666s-0.167-15.833,2.833-18.5
	s8.667-9.501,6.5-14.334s-8.833-10.166-19.333-11.166s-22.5-6.167-22.5-13.667s-1.138-11.722,2.667-16.667
	c3.333-4.333,8.167-7.334,8.333-12s-3-16-7.167-20.333s-1.5-11.334,0.167-16.667s-4.333-15.333-12-14.5S36.515,1.381,36.515,1.381z"
	/>
</svg>
