<?xml version="1.0" encoding="utf-8"?>
<!-- Generator: Adobe Illustrator 12.0.0, SVG Export Plug-In . SVG Version: 6.00 Build 51448)  -->
<!DOCTYPE svg PUBLIC "-//W3C//DTD SVG 1.1//EN" "http://www.w3.org/Graphics/SVG/1.1/DTD/svg11.dtd" [
	<!ENTITY ns_svg "http://www.w3.org/2000/svg">
	<!ENTITY ns_xlink "http://www.w3.org/1999/xlink">
]>
<svg  version="1.1" id="Layer_1" xmlns="&ns_svg;" xmlns:xlink="&ns_xlink;" width="218.835" height="226.478"
	 viewBox="0 0 218.835 226.478" overflow="visible" enable-background="new 0 0 218.835 226.478" xml:space="preserve">
<path fill="none" stroke="#000000" stroke-width="0.7087" stroke-linecap="round" stroke-linejoin="round" stroke-miterlimit="500" d="
	M161.79,193.429c-1,8-4.334,33.666-27.667,32.666s-30-17.666-30-24.666s2.334-42.667,2.334-42.667s0.999-18.333-16.334-24
	s-21.667-13.999-24-22.333s0-25-6.333-30s-31.333-7.334-40-15c-8.667-7.667-20.666-21-19.333-36s21.999-18.334,32.666-17.667
	s39.251-1.167,45.334,9.333s26.167,12.333,33.833,12s24.5-14.875,29.75-24.25s24-17.5,33.75-1s18.25,24.125,28.125,25.25
	s13.625,5.75,12.5,16.75s-10.291,15.083-9.791,24.416c0.5,9.334,15.167,19.668,11.167,31.001s-26.001,45.083-44.501,35.333
	s-14.083,10.167-14,18S162.79,185.429,161.79,193.429z"/>
<path fill="none" stroke="#000000" stroke-width="0.7087" stroke-linecap="round" stroke-linejoin="round" stroke-miterlimit="500" d="
	M143.04,125.595c3.084,0.251,15.75-28,17.5-36.25s-0.25-28-18.75-32s-29.5,6.5-29.75,16.5s7.75,28.25,13.75,35.75
	S139.956,125.344,143.04,125.595z"/>
</svg>
