<?xml version="1.0" encoding="utf-8"?>
<!-- Generator: Adobe Illustrator 12.0.0, SVG Export Plug-In . SVG Version: 6.00 Build 51448)  -->
<!DOCTYPE svg PUBLIC "-//W3C//DTD SVG 1.1//EN" "http://www.w3.org/Graphics/SVG/1.1/DTD/svg11.dtd" [
	<!ENTITY ns_svg "http://www.w3.org/2000/svg">
	<!ENTITY ns_xlink "http://www.w3.org/1999/xlink">
]>
<svg  version="1.1" id="Layer_1" xmlns="&ns_svg;" xmlns:xlink="&ns_xlink;" width="143.189" height="201.888"
	 viewBox="0 0 143.189 201.888" overflow="visible" enable-background="new 0 0 143.189 201.888" xml:space="preserve">
<path fill="none" stroke="#000000" d="M37.009,201.198c0,0,49.667,4,75.333-24.667s30.333-32,29.333-50s-14.334-38.667-12-51.667
	s12.667-29.333,13-40.667s-5.667-34.667-26.667-33.667s-24.333,16.333-23.667,27s6.333,33,7.333,39.667s0.667,16.333-3.333,16.667
	s-14-5.417-16.417-13.417S64.76,57.865,56.343,61.365S39.176,74.031,42.176,83.031s17,26.667,17.5,32.5s5.5,20.833-13.333,20.5
	s-29.834-1.833-37.667,11s-8,27.333-8.167,32.667s1.833,13.167,10.333,16S37.009,201.198,37.009,201.198z"/>
</svg>
