<?xml version="1.0" encoding="utf-8"?>
<!-- Generator: Adobe Illustrator 12.0.0, SVG Export Plug-In . SVG Version: 6.00 Build 51448)  -->
<!DOCTYPE svg PUBLIC "-//W3C//DTD SVG 1.1//EN" "http://www.w3.org/Graphics/SVG/1.1/DTD/svg11.dtd" [
	<!ENTITY ns_svg "http://www.w3.org/2000/svg">
	<!ENTITY ns_xlink "http://www.w3.org/1999/xlink">
]>
<svg  version="1.1" id="Layer_1" xmlns="&ns_svg;" xmlns:xlink="&ns_xlink;" width="159.412" height="100.878"
	 viewBox="0 0 159.412 100.878" overflow="visible" enable-background="new 0 0 159.412 100.878" xml:space="preserve">
<path fill="none" stroke="#000000" d="M138.158,45.317c0,0-25.813-26.302-34.094-29.711c-8.281-3.41-16.561-4.384-18.996,2.435
	s-1.949,17.048-1.949,17.048S66.071,29.73,56.087,18.528C46.103,7.326,31.49,0.263,23.941,0.506
	C16.391,0.75-0.655,12.196,0.562,25.834c1.217,13.638,5.602,24.109,9.498,28.736c3.896,4.628,8.522,11.69,20.456,12.908
	s37.019,0.243,44.811,2.435c7.793,2.192,19.729,13.882,25.815,18.509c6.088,4.626,18.509,11.445,29.224,11.933
	c10.716,0.487,27.521-6.819,28.494-20.7c0.973-13.881-11.689-24.597-13.882-26.789C142.786,50.675,138.158,45.317,138.158,45.317z"
	/>
</svg>
