<?xml version="1.0" encoding="utf-8"?>
<!-- Generator: Adobe Illustrator 12.0.0, SVG Export Plug-In . SVG Version: 6.00 Build 51448)  -->
<!DOCTYPE svg PUBLIC "-//W3C//DTD SVG 1.1//EN" "http://www.w3.org/Graphics/SVG/1.1/DTD/svg11.dtd" [
	<!ENTITY ns_svg "http://www.w3.org/2000/svg">
	<!ENTITY ns_xlink "http://www.w3.org/1999/xlink">
]>
<svg  version="1.1" id="Layer_1" xmlns="&ns_svg;" xmlns:xlink="&ns_xlink;" width="152.524" height="50.986"
	 viewBox="0 0 152.524 50.986" overflow="visible" enable-background="new 0 0 152.524 50.986" xml:space="preserve">
<path fill="none" stroke="#000000" stroke-width="0.7087" stroke-linecap="round" stroke-linejoin="round" stroke-miterlimit="500" d="
	M85.625,13.378c-7.167-6-15.166-13.5-28.5-13c-13.333,0.5-20.333,7-26.833,13.333c-6.5,6.334-17,14-22.667,17.667
	s-10.166,14.167-5,17.333c5.167,3.167,16.833,2.834,21.667-4.166c4.833-7,13.167-13.667,18.333-13.667
	c5.167,0,10.5,4.667,14.667,9.833c4.166,5.167,9.333,9.5,16.833,9s15.667-9.167,23.167-8.333c7.5,0.833,9.833,8.5,20.666,8.333
	c10.834-0.166,25-7.833,30-17.833s7.167-19-2.833-25.333c-10-6.334-14.667-3.667-22.667,5.5c-8,9.166-20.5,10.333-28,6.5
	C86.958,14.711,85.625,13.378,85.625,13.378z"/>
</svg>
