<?xml version="1.0" encoding="utf-8"?>
<!-- Generator: Adobe Illustrator 12.0.0, SVG Export Plug-In . SVG Version: 6.00 Build 51448)  -->
<!DOCTYPE svg PUBLIC "-//W3C//DTD SVG 1.1//EN" "http://www.w3.org/Graphics/SVG/1.1/DTD/svg11.dtd" [
	<!ENTITY ns_svg "http://www.w3.org/2000/svg">
	<!ENTITY ns_xlink "http://www.w3.org/1999/xlink">
]>
<svg  version="1.1" id="Layer_1" xmlns="&ns_svg;" xmlns:xlink="&ns_xlink;" width="183.07" height="170.492"
	 viewBox="0 0 183.07 170.492" overflow="visible" enable-background="new 0 0 183.07 170.492" xml:space="preserve">
<path fill="none" stroke="#000000" d="M41.059,66.296l-29.5-19.75c0,0-12-9.5-11-18.5s12-19,14.25-20.75s13.5-8.25,29.5-6.5
	s29.5,8.5,35.75,12.75s15.25,19.5,15.5,23s4.75,26.75,9,31.5s9.5,13.25,24.5,17.75s34.25,9.5,39.75,15.75s15.5,14.25,13.5,32.75
	s-7.5,27-12.25,30.5s-16.25,7.75-22,3.25s-19.25-18.75-20.75-23.25s-14.25-9.25-21.5-9.25s-23.75-3.5-28.5-10.25s-12-11-12-23.75
	s-6.75-20.5-10.75-24.25S41.059,66.296,41.059,66.296z"/>
</svg>
