<?xml version="1.0" encoding="utf-8"?>
<!-- Generator: Adobe Illustrator 12.0.0, SVG Export Plug-In . SVG Version: 6.00 Build 51448)  -->
<!DOCTYPE svg PUBLIC "-//W3C//DTD SVG 1.1//EN" "http://www.w3.org/Graphics/SVG/1.1/DTD/svg11.dtd" [
	<!ENTITY ns_svg "http://www.w3.org/2000/svg">
	<!ENTITY ns_xlink "http://www.w3.org/1999/xlink">
]>
<svg  version="1.1" id="Layer_1" xmlns="&ns_svg;" xmlns:xlink="&ns_xlink;" width="338.491" height="240.858"
	 viewBox="0 0 338.491 240.858" overflow="visible" enable-background="new 0 0 338.491 240.858" xml:space="preserve">
<path fill="none" stroke="#000000" d="M0.764,239.13l2.031,1.115l13.479-12.646c5.5,1.25,12.146,6.375,18.646,7.125
	s26.25-5.5,33.5-7.75s12.5-4.75,13.75-8s-0.75-7.5,4.25-10.75s16.25-5,20.25-4.25s11.25,1.25,12.25,0.5s-4-7.5-7.25-9.5
	s-3.563-3.563-1.125-4.875s5.125-1,15.75,4.875s7.375,6.375,13.875,7.875s14.201,5.025,18.15,7.075s32.85,10.55,45.1,5.05
	s15.25-23,15.25-26.75s-2.75-15.5-4.125-17.625s-2.125-6.125,3.125-5.625s32.75,3.625,41.25,3s25.75-4.125,31.875-6.25
	s25.125-10.625,27.25-14.875s4.75-15.25,1.125-19.375s-13.625-9.25-17.625-10.5s-8.5-5-8.625-6.75s1.375-7.125,14.25-10.25
	s20.875-11.75,23.5-14.25s8-9.125,7.25-14.875s-6.125-9.125-10-11.25s-4.688-2.563-4.188-6s4.354-12.125-1.813-17.292
	s-10.249-8.75-14.333-9.917s-7.918-1.583-9.084-4.583s-2.167-8.167-9-8.667s-16.166,2.833-18.583,4.25s-5.416,4.417-9.333,3
	s-5.418-6.417-6.334-8.333s-3.666-6.5-9.583-7.833s-20.416,1.5-27.083,7.833s-9.916,9.833-12.25,14s-5.25,15-8.417,14.75
	s-7.749-2.75-10.583-7.75s-11.5-21.083-13.667-24s-5.833-10.333-13.333-8.167S131.92,22.724,125.42,43.224s-9,23.5-11.75,35.5
	s-4.563,22.375-8.188,22.063s-6.688-12.063-11.688-17s-14.563-11.563-23-10.313s-17.708,9-20.542,15s-5.25,5.583-5,11.5
	s4.5,21.833,6.5,29.25s4.833,15.167,4.917,18.667s1.333,7.5-0.417,8.5s-6-5.5-10.75-6.833S30.42,146.39,27.17,151.64
	s-9.083,12.25-9.25,17.167s3.583,22.583,3.75,28s0.25,14.584-2.833,17.084s-5.916,1.75-7.333,4.25s-1.417,5,0.333,6.833
	C12.009,225.154,0.764,239.13,0.764,239.13z"/>
</svg>
