<?xml version="1.0" encoding="utf-8"?>
<!-- Generator: Adobe Illustrator 12.0.0, SVG Export Plug-In . SVG Version: 6.00 Build 51448)  -->
<!DOCTYPE svg PUBLIC "-//W3C//DTD SVG 1.1//EN" "http://www.w3.org/Graphics/SVG/1.1/DTD/svg11.dtd" [
	<!ENTITY ns_svg "http://www.w3.org/2000/svg">
	<!ENTITY ns_xlink "http://www.w3.org/1999/xlink">
]>
<svg  version="1.1" id="Layer_1" xmlns="&ns_svg;" xmlns:xlink="&ns_xlink;" width="170.586" height="125.725"
	 viewBox="0 0 170.586 125.725" overflow="visible" enable-background="new 0 0 170.586 125.725" xml:space="preserve">
<path fill="none" stroke="#000000" stroke-width="0.7087" stroke-linecap="round" stroke-linejoin="round" stroke-miterlimit="500" d="
	M30.229,0.608c6,0,34.5-0.5,42,13s5.5,17.75,18.75,23s21,5.5,23.75,16s2.5,21.75,17.75,23s28.25-1.75,33.75,1.5s5.25,11.75-0.25,12
	s-9,2.75-9.5,8s-3,10.75,3.5,14s4.406,6.281,0.75,5.844s-15.75-1.094-20.125-6.844s-11.25-6.875-18.125-5.125
	s-21.625,10.375-29.375,14.75s-21.25,9.5-20.375,1.25s5.25-12,8.25-16.625s7.625-15.25,1.125-18.125s-16.375,0.125-23.75,0
	s-12.625-6.25-14.875-9.25s-2-7.625-11-7.625S8.354,67.483,7.104,59.983s0-10.25,7.875-10.25s12.5,4,19.875,4
	s13.875-3,14.875-10.125s1.125-15.25-6.25-19.25s-20.25-5.75-28.625-5.125s-14.5-2.625-14.5-8s4.5-8.5,9.75-10
	S24.229,0.608,30.229,0.608z"/>
</svg>
