<?xml version="1.0" encoding="utf-8"?>
<!-- Generator: Adobe Illustrator 12.0.0, SVG Export Plug-In . SVG Version: 6.00 Build 51448)  -->
<!DOCTYPE svg PUBLIC "-//W3C//DTD SVG 1.1//EN" "http://www.w3.org/Graphics/SVG/1.1/DTD/svg11.dtd" [
	<!ENTITY ns_svg "http://www.w3.org/2000/svg">
	<!ENTITY ns_xlink "http://www.w3.org/1999/xlink">
]>
<svg  version="1.1" id="Layer_1" xmlns="&ns_svg;" xmlns:xlink="&ns_xlink;" width="173.773" height="84.434"
	 viewBox="0 0 173.773 84.434" overflow="visible" enable-background="new 0 0 173.773 84.434" xml:space="preserve">
<path fill="none" stroke="#000000" stroke-width="0.7087" stroke-linecap="round" stroke-linejoin="round" stroke-miterlimit="500" d="
	M52.933,44.035c-4.407,0.805-21.033,4.78-28.381,5.059c-7.348,0.279-26.181-3.952-24.027-15.484
	c2.154-11.532,11.547-20.129,23.37-16.591c11.822,3.538,23.683,1.526,29.189-2.641C58.592,10.21,70.736-0.771,82.837,2.95
	c12.102,3.72,17.855,1.307,24.855-1.489c6.999-2.795,22.137-0.677,27.795,10.779c5.657,11.456,5.854,22.132,16.879,29.329
	c11.026,7.197,24.361,19.087,20.309,30.175s-10.859,14.806-19.543,10.729c-8.684-4.077-26.885-21.93-32.48-22.198
	c-5.597-0.27-10.916,4.221-20.303-0.913c-9.389-5.133-17.76-15.175-28.309-16.09S57.339,43.229,52.933,44.035z"/>
</svg>
