<?xml version="1.0" encoding="utf-8"?>
<!-- Generator: Adobe Illustrator 12.0.0, SVG Export Plug-In . SVG Version: 6.00 Build 51448)  -->
<!DOCTYPE svg PUBLIC "-//W3C//DTD SVG 1.1//EN" "http://www.w3.org/Graphics/SVG/1.1/DTD/svg11.dtd" [
	<!ENTITY ns_svg "http://www.w3.org/2000/svg">
	<!ENTITY ns_xlink "http://www.w3.org/1999/xlink">
]>
<svg  version="1.1" id="Layer_1" xmlns="&ns_svg;" xmlns:xlink="&ns_xlink;" width="317.33" height="348.455"
	 viewBox="0 0 317.33 348.455" overflow="visible" enable-background="new 0 0 317.33 348.455" xml:space="preserve">
<path fill="none" stroke="#000000" d="M5.188,260.952c7.208,23.333,47,27.666,61.667,44.333s22.333,42.334,51,42.667
	s32-24.334,49.333-28.667s43.333,4.666,52-6s3-31.666-10-36.333s-38.333,4.001-51.333,9.667s-34.334,12.333-45,4.333
	s-25.667-22.001-18.333-45.667s12-37,12-37s3-13.999,17-12.666s21,21,32.667,27s46.001,7.666,55.667,2.666s25.334-16.332,25-29.666
	s-14.666-51.333-20-63.667s-7.667-28-5.667-41s5.333-20.667,14-26.333s26.333-5.667,32-3.667s19.667,9,15.667,26
	s-16.666,21-23,21.667s-17.333,4-16,10.667s15.333,11.667,23.333,12.333s25.333-6,33.333,1s20.667,4.333,22.667-1
	s-6.001-12.667-6.667-22.667s1.667-21.333,6.667-28.333s7.667-32.333-11.333-34.333s-35.668-0.333-46.334-9s-26-15.333-26-29
	s-16-5.666-22.333-3.333s-30.334,7-37.667,3.333s-23-3-27.333,6.333c-4.333,9.333-7,29.333-14.333,36s-23,8.667-31,8.667
	s-29,1.667-38.333-2.333s-26-9-29.333,0.333s-3,24.333,3.333,27.333s18,4.667,22.667,20s5.667,14,13,19s22,16,16.333,30
	s-17.667,17-20,29.667s4.667,19,3.333,28.667s-7,20.999-16.333,21.333s-15-8.666-17.667-15.333s-7.333-17.333-18.667-15
	s-15,15.999-14.667,28.333S3.104,246.619,5.188,260.952z"/>
</svg>
