<?xml version="1.0" encoding="utf-8"?>
<!-- Generator: Adobe Illustrator 12.0.0, SVG Export Plug-In . SVG Version: 6.00 Build 51448)  -->
<!DOCTYPE svg PUBLIC "-//W3C//DTD SVG 1.1//EN" "http://www.w3.org/Graphics/SVG/1.1/DTD/svg11.dtd" [
	<!ENTITY ns_svg "http://www.w3.org/2000/svg">
	<!ENTITY ns_xlink "http://www.w3.org/1999/xlink">
]>
<svg  version="1.1" id="Layer_1" xmlns="&ns_svg;" xmlns:xlink="&ns_xlink;" width="42.037" height="59.904"
	 viewBox="0 0 42.037 59.904" overflow="visible" enable-background="new 0 0 42.037 59.904" xml:space="preserve">
<path fill="none" stroke="#000000" stroke-width="0.7087" stroke-linecap="round" stroke-linejoin="round" stroke-miterlimit="500" d="
	M13.097,0.47c-0.855,0.832,1.566,10.264-3.987,19.782C3.556,29.771-1.808,35.407,1.239,41.048c3.047,5.642,9.703,6.479,13.49,12.213
	c3.787,5.733,7.206,9.619,11.74,2.226s8.699-13.03,7.777-18.855c-0.921-5.824,2.598-13.496,5.836-17.747
	c3.237-4.25,1.482-8.227-4.523-11.836C29.551,3.438,13.953-0.361,13.097,0.47z"/>
<path fill="none" stroke="#000000" stroke-width="0.7087" stroke-linecap="round" stroke-linejoin="round" stroke-miterlimit="500" d="
	M22.514,22.386c-1.548-1.433-7.226,3.31-7.307,5.543s0.504,5.547,1.428,8.367c0.923,2.821,4.066,2.915,5.823,3.286
	c1.756,0.371,4.115-1.661,3.239-5.452c-0.876-3.792-2.542-1.898-3.743-3.101C20.752,29.828,24.061,23.819,22.514,22.386z"/>
</svg>
