<?xml version="1.0" encoding="utf-8"?>
<!-- Generator: Adobe Illustrator 12.0.0, SVG Export Plug-In . SVG Version: 6.00 Build 51448)  -->
<!DOCTYPE svg PUBLIC "-//W3C//DTD SVG 1.1//EN" "http://www.w3.org/Graphics/SVG/1.1/DTD/svg11.dtd" [
	<!ENTITY ns_svg "http://www.w3.org/2000/svg">
	<!ENTITY ns_xlink "http://www.w3.org/1999/xlink">
]>
<svg  version="1.1" id="Layer_1" xmlns="&ns_svg;" xmlns:xlink="&ns_xlink;" width="59.875" height="27.253"
	 viewBox="0 0 59.875 27.253" overflow="visible" enable-background="new 0 0 59.875 27.253" xml:space="preserve">
<path fill="none" stroke="#000000" stroke-width="0.7087" stroke-linecap="round" stroke-linejoin="round" stroke-miterlimit="500" d="
	M42.541,1.949c-5-1.75-19-2.75-26.75,0.75s-9.25,1.75-12.25,1.5s-4.75,4-1.25,5.5s3.5,3.25,12.5,3.5s7-0.75,10.75-1.5
	s3.75,6,0.25,6.75s-7.25,2.75-6.25,4.5s5.25,4.75,9.75,3.75s7.25-1,10.75-3.75s3.5-3,8.5-1s8,5.5,9.5,3.5s-0.75-6,0-10.5
	s2.25-7.375,1-9.875S47.541,3.699,42.541,1.949z"/>
</svg>
