<?xml version="1.0" encoding="utf-8"?>
<!-- Generator: Adobe Illustrator 12.0.0, SVG Export Plug-In . SVG Version: 6.00 Build 51448)  -->
<!DOCTYPE svg PUBLIC "-//W3C//DTD SVG 1.1//EN" "http://www.w3.org/Graphics/SVG/1.1/DTD/svg11.dtd" [
	<!ENTITY ns_svg "http://www.w3.org/2000/svg">
	<!ENTITY ns_xlink "http://www.w3.org/1999/xlink">
]>
<svg  version="1.1" id="Layer_1" xmlns="&ns_svg;" xmlns:xlink="&ns_xlink;" width="90.44" height="56.578"
	 viewBox="0 0 90.44 56.578" overflow="visible" enable-background="new 0 0 90.44 56.578" xml:space="preserve">
<path fill="none" stroke="#000000" stroke-width="0.7087" stroke-linecap="round" stroke-linejoin="round" stroke-miterlimit="500" d="
	M81.886,37.701c0.188-1.078,5.25-4,7.75-11.25s-6-10.25-10.75-8.5s-5.25,2.5-5.75,7.5s-1,11-6,9s-10-4.5-13.75-9.75
	s-0.5-7.25-5-12.5s-10.25-16.5-16-9.75s1.25,9,1.5,12.75s-1.25,10.75-8.25,6.75s-7.75-8.25-13.5-7s-16.75,10.5-9.25,13.25
	s9.5,8,12.25,10.75s3.5,8.75,9.25,9.5s5.75-3.75,11.75-6.5s9.5-5,15.25-1.5s14,3.75,17.25,9.25s3.5,6.25,8.25,6.5
	s8.25-1.5,8.25-6.75S81.698,38.779,81.886,37.701z"/>
</svg>
