<?xml version="1.0" encoding="utf-8"?>
<!-- Generator: Adobe Illustrator 12.0.0, SVG Export Plug-In . SVG Version: 6.00 Build 51448)  -->
<!DOCTYPE svg PUBLIC "-//W3C//DTD SVG 1.1//EN" "http://www.w3.org/Graphics/SVG/1.1/DTD/svg11.dtd" [
	<!ENTITY ns_svg "http://www.w3.org/2000/svg">
	<!ENTITY ns_xlink "http://www.w3.org/1999/xlink">
]>
<svg  version="1.1" id="Layer_1" xmlns="&ns_svg;" xmlns:xlink="&ns_xlink;" width="52.871" height="85.283"
	 viewBox="0 0 52.871 85.283" overflow="visible" enable-background="new 0 0 52.871 85.283" xml:space="preserve">
<path fill="none" stroke="#000000" stroke-width="0.7087" stroke-linecap="round" stroke-linejoin="round" stroke-miterlimit="500" d="
	M34.442,64.78c4.417-1.625,12.667-4,15.334-10.667c2.666-6.666,4.666-4.333-0.334-16.666c-5-12.334-10.666-12.001-4.666-23.667
	c6-11.667-7.667-14.667-19.334-13c-11.666,1.667-18-0.667-16,9s6.334,7,15.334,9s11.666,2.666,10.333,9
	c-1.333,6.333-6,10.666-15.333,10c-9.334-0.667-9.334-10.667-11.334-13.667s-10.667-3.666-7.333,17
	c2.729,9.229,5.086,7.515,5.3,13.729c0.215,6.214-4.5,6-4.929,15.643c-0.428,9.643-0.214,13.285,5.144,14.143
	c5.356,0.857,12.214,0.429,12.643-8.785c0.429-9.215,1.714-9,4.5-9.857C26.552,65.128,30.026,66.405,34.442,64.78z"/>
</svg>
