<?xml version="1.0" encoding="utf-8"?>
<!-- Generator: Adobe Illustrator 12.0.0, SVG Export Plug-In . SVG Version: 6.00 Build 51448)  -->
<!DOCTYPE svg PUBLIC "-//W3C//DTD SVG 1.1//EN" "http://www.w3.org/Graphics/SVG/1.1/DTD/svg11.dtd" [
	<!ENTITY ns_svg "http://www.w3.org/2000/svg">
	<!ENTITY ns_xlink "http://www.w3.org/1999/xlink">
]>
<svg  version="1.1" id="Layer_1" xmlns="&ns_svg;" xmlns:xlink="&ns_xlink;" width="53.163" height="50.676"
	 viewBox="0 0 53.163 50.676" overflow="visible" enable-background="new 0 0 53.163 50.676" xml:space="preserve">
<path fill="none" stroke="#000000" stroke-width="0.7087" stroke-linecap="round" stroke-linejoin="round" stroke-miterlimit="500" d="
	M46.417,36.925c-3-2.75-11.5-2.75-9.75-10.5s6.25-6.5,11-9.25s5.75-4.25,4.5-9s-9.75-4-15-0.5s-8,8.75-13,6.75s-10.5-8.5-11.5-10.75
	s-6.25-5.5-9.25-1.25s-5.25,9.5,0.5,13.75s12.25,5.75,12.25,10.75s-4.75,10.25-10,12.75s-7.5,8-2.25,9.5s16.75-1.25,19.25-5
	s5-5.25,7.75-1s6.25,4.75,11,6.25s9.5,1.5,10.75-3S46.417,36.925,46.417,36.925z"/>
</svg>
